<?xml version="1.0" encoding="utf-8" ?>
<svg baseProfile="full" height="100%" version="1.1" viewBox="0,0,180,60" width="100%" xmlns="http://www.w3.org/2000/svg" xmlns:ev="http://www.w3.org/2001/xml-events" xmlns:xlink="http://www.w3.org/1999/xlink"><defs /><path d="M0,0 M67.91813659667969,22.57743263244629 L67.93158721923828,22.5 L67.96513366699219,22.529150009155273 L67.99662780761719,22.803024291992188 L68.00300598144531,23.466039657592773 L67.95237731933594,24.5513973236084 L67.82564544677734,26.05223274230957 L67.64083862304688,27.941925048828125 L67.4327392578125,30.18992042541504 L67.20245361328125,32.72052001953125 L66.94920349121094,35.44641876220703 L66.63996887207031,38.24445724487305 L66.24729919433594,40.98677444458008 L65.77961730957031,43.53828048706055 L65.3084945678711,45.751529693603516 L64.89849090576172,47.504600524902344 L64.60917663574219,48.71101379394531 L64.44725036621094,49.31952667236328 L64.41429901123047,49.34699249267578 L64.51371765136719,48.8475227355957 L64.78451538085938,47.88914489746094 L65.25582885742188,46.592288970947266 L65.92649841308594,45.07796096801758 L66.7729263305664,43.45948028564453 L67.7959976196289,41.86118698120117 L68.99148559570312,40.39128875732422 L70.3743896484375,39.14723587036133 L71.94371032714844,38.2340202331543 L73.62728881835938,37.73239517211914 L75.3392562866211,37.701961517333984 L76.95775604248047,38.16140365600586 L78.35302734375,39.08415603637695 L79.43376159667969,40.396148681640625 L80.13910675048828,41.985164642333984 L80.42632293701172,43.71159744262695 L80.303466796875,45.4323616027832 L79.76522827148438,47.00369644165039 L78.83978271484375,48.32475280761719 L77.58164978027344,49.328521728515625 L76.07967376708984,49.99775695800781 L74.44953918457031,50.353511810302734 L72.82959747314453,50.42879104614258 L71.33647155761719,50.2606201171875 L70.0638198852539,49.90752410888672 L69.1293716430664,49.406280517578125 L68.62409973144531,48.817779541015625 L68.574951171875,48.21345138549805 L68.78791809082031,47.729644775390625 L69.05741882324219,47.4300651550293 M83.57512664794922,48.33295822143555 L83.63468933105469,48.286964416503906 L83.86280822753906,48.175052642822266 L84.34248352050781,47.969451904296875 L85.1237564086914,47.658111572265625 L86.16448974609375,47.236454010009766 L87.3852310180664,46.68036651611328 L88.7091064453125,45.98567581176758 L90.0280990600586,45.16001892089844 L91.2297134399414,44.233604431152344 L92.20430755615234,43.261749267578125 L92.82868194580078,42.30482482910156 L93.03685760498047,41.421546936035156 L92.81852722167969,40.6836051940918 L92.1935043334961,40.16975402832031 L91.23440551757812,39.96218490600586 L90.00776672363281,40.115928649902344 L88.61016845703125,40.643394470214844 L87.17715454101562,41.51448059082031 L85.8429183959961,42.66002655029297 L84.7611083984375,43.99104690551758 L84.04915618896484,45.40498733520508 L83.77627563476562,46.794918060302734 L83.99771118164062,48.06259536743164 L84.73124694824219,49.12532424926758 L85.94998931884766,49.919952392578125 L87.60171508789062,50.400474548339844 L89.54838562011719,50.557350158691406 L91.66907501220703,50.385536193847656 L93.78412628173828,49.92616271972656 L95.72061920166016,49.26486587524414 L97.15469360351562,48.645118713378906 L97.98658752441406,48.215614318847656 M99.39285278320312,41.30985641479492 L99.3896713256836,41.2246208190918 L99.39411926269531,41.201087951660156 L99.4053726196289,41.37709045410156 L99.41954803466797,41.8958854675293 L99.4153823852539,42.799983978271484 L99.38059997558594,44.02592086791992 L99.31015014648438,45.44445037841797 L99.2187271118164,46.888633728027344 L99.12525177001953,48.190574645996094 L99.05137634277344,49.21013641357422 L99.0084457397461,49.84758758544922 L98.99449920654297,50.037017822265625 L98.99800872802734,49.76021957397461 L99.01144409179688,49.02769088745117 L99.0257797241211,47.899986267089844 L99.05747985839844,46.484169006347656 L99.14583587646484,44.905059814453125 L99.34329223632812,43.29338455200195 L99.69406127929688,41.770198822021484 L100.22222137451172,40.43674087524414 L100.9217529296875,39.37080383300781 L101.80367279052734,38.63701629638672 L102.8616943359375,38.24635314941406 L104.08446502685547,38.17862319946289 L105.43063354492188,38.3699836730957 L106.8187255859375,38.72596740722656 L108.1358413696289,39.138343811035156 L109.31146240234375,39.4677619934082 L110.27825164794922,39.596797943115234 L111.01475524902344,39.47480010986328 L111.48995208740234,39.22782897949219 L111.7349624633789,38.990177154541016 M115.36294555664062,24.04178810119629 L115.36156463623047,24.180694580078125 L115.37528228759766,24.562294006347656 L115.40062713623047,25.279573440551758 L115.44198608398438,26.379072189331055 L115.49687957763672,27.873886108398438 L115.53588104248047,29.73090362548828 L115.53931427001953,31.906667709350586 L115.52041625976562,34.347537994384766 L115.46748352050781,36.93769073486328 L115.39797973632812,39.54463195800781 L115.32293701171875,42.01526641845703 L115.29419708251953,44.19213104248047 L115.3703384399414,45.94230651855469 L115.59490203857422,47.20747375488281 L115.86511993408203,47.95896911621094 L116.08948516845703,48.3000373840332 M121.68452453613281,41.32299041748047 L121.85997009277344,41.054718017578125 L122.07470703125,40.76329040527344 L122.24370574951172,40.64018249511719 L122.26487731933594,40.91593933105469 L122.1613998413086,41.657066345214844 L121.94794464111328,42.81452178955078 L121.69559478759766,44.23513412475586 L121.47221374511719,45.731422424316406 L121.32548522949219,47.09136962890625 L121.28068542480469,48.15779495239258 L121.31136322021484,48.83195495605469 L121.35733032226562,49.152618408203125 M122.1873550415039,30.727550506591797 L122.25083923339844,30.745115280151367 L122.3827133178711,30.841400146484375 L122.53335571289062,30.97607421875 L122.6530990600586,31.10879898071289 M128.209228515625,40.10341262817383 L128.25424194335938,40.18395233154297 L128.32447814941406,40.42471694946289 L128.38565063476562,40.91277313232422 L128.39022827148438,41.68611145019531 L128.33248901367188,42.73357009887695 L128.22140502929688,43.99243927001953 L128.10195922851562,45.3559455871582 L128.00823974609375,46.679786682128906 L127.95243835449219,47.82733917236328 L127.93379211425781,48.66339874267578 L127.97956085205078,49.097679138183594 L128.10203552246094,49.06631088256836 L128.33319091796875,48.55467987060547 L128.68789672851562,47.5985107421875 L129.1934814453125,46.31056594848633 L129.86883544921875,44.835147857666016 L130.74343872070312,43.33589553833008 L131.80953979492188,41.93418502807617 L133.03787231445312,40.74311065673828 L134.37225341796875,39.838478088378906 L135.76296997070312,39.29347229003906 L137.159423828125,39.14616394042969 L138.52206420898438,39.41157531738281 L139.80673217773438,40.05438995361328 L140.97329711914062,41.03170394897461 L141.99835205078125,42.26738357543945 L142.87811279296875,43.66791534423828 L143.63211059570312,45.15133285522461 L144.2928009033203,46.67479705810547 L144.78656005859375,47.913291931152344 L145.08775329589844,48.71445083618164 " fill="none" stroke="black" stroke-linecap="round" stroke-width="2" /></svg>