<?xml version="1.0" encoding="utf-8" ?>
<svg baseProfile="full" height="100%" version="1.1" viewBox="0,0,150,60" width="100%" xmlns="http://www.w3.org/2000/svg" xmlns:ev="http://www.w3.org/2001/xml-events" xmlns:xlink="http://www.w3.org/1999/xlink"><defs /><path d="M0,0 M54.56599807739258,22.661928176879883 L54.53899002075195,22.561569213867188 L54.5258903503418,22.5 L54.54568862915039,22.615766525268555 L54.597408294677734,23.07610511779785 L54.64815139770508,23.986961364746094 L54.658138275146484,25.384132385253906 L54.60451889038086,27.253711700439453 L54.498294830322266,29.560871124267578 L54.35475540161133,32.2079963684082 L54.18020248413086,35.050296783447266 L53.96547317504883,37.913299560546875 L53.704933166503906,40.61363220214844 L53.406673431396484,42.97352981567383 L53.10004806518555,44.86503219604492 L52.816654205322266,46.18450164794922 L52.60993576049805,46.88722610473633 L52.50087356567383,46.98147964477539 L52.51130294799805,46.52302551269531 L52.66837692260742,45.57148742675781 L52.99711990356445,44.23398971557617 L53.5148811340332,42.62645721435547 L54.268550872802734,40.902469635009766 L55.2551155090332,39.202213287353516 L56.45766830444336,37.65287399291992 L57.85788345336914,36.34731674194336 L59.42240524291992,35.37834167480469 L61.095123291015625,34.81101608276367 L62.83491897583008,34.71670913696289 L64.5396728515625,35.109615325927734 L66.09841918945312,35.9676628112793 L67.41436767578125,37.22757339477539 L68.39598083496094,38.800350189208984 L68.93948364257812,40.54792404174805 L69.00543212890625,42.35179901123047 L68.53889465332031,44.07413101196289 L67.55937194824219,45.600341796875 L66.14663696289062,46.843666076660156 L64.42350006103516,47.76423645019531 L62.51762771606445,48.329769134521484 L60.6088752746582,48.564537048339844 L58.83427429199219,48.505157470703125 L57.32683181762695,48.217124938964844 L56.170433044433594,47.76075744628906 L55.518821716308594,47.162593841552734 L55.4555778503418,46.4492073059082 L56.00937271118164,45.66522216796875 L56.79374313354492,44.9981689453125 L57.469730377197266,44.56470489501953 M81.63009643554688,40.94105911254883 L81.70700073242188,40.53064727783203 L81.72868347167969,39.86528015136719 L81.55355834960938,39.03523635864258 L81.05374145507812,38.22734451293945 L80.19886779785156,37.532432556152344 L79.01162719726562,37.024322509765625 L77.58738708496094,36.754119873046875 L76.03680419921875,36.78559494018555 L74.4400634765625,37.15174865722656 L72.89471435546875,37.85127258300781 L71.50914001464844,38.847564697265625 L70.39784240722656,40.06850051879883 L69.69502258300781,41.42559814453125 L69.53311157226562,42.80728530883789 L69.98753356933594,44.09176254272461 L71.07684326171875,45.158302307128906 L72.76165771484375,45.89814758300781 L74.9095458984375,46.242881774902344 L77.31382751464844,46.17220687866211 L79.75076293945312,45.71874237060547 L81.97630310058594,44.951412200927734 L83.7890625,43.963279724121094 L85.07704162597656,42.85334014892578 L85.78486633300781,41.71612548828125 L85.91120910644531,40.637351989746094 L85.52882385253906,39.705509185791016 L84.73687744140625,38.9725227355957 L83.66592407226562,38.522804260253906 L82.50520324707031,38.402523040771484 L81.4283447265625,38.60283660888672 L80.64151000976562,38.93388748168945 L80.20701599121094,39.23325729370117 M99.14396667480469,42.538787841796875 L99.14199829101562,42.024662017822266 L99.02236938476562,41.18593215942383 L98.66084289550781,40.13913345336914 L97.95176696777344,39.11503601074219 L96.84486389160156,38.224178314208984 L95.38407897949219,37.55266189575195 L93.6505126953125,37.157073974609375 L91.77511596679688,37.10152816772461 L89.90840148925781,37.430870056152344 L88.2138671875,38.1285514831543 L86.83985900878906,39.15331268310547 L85.93394470214844,40.40270233154297 L85.57662963867188,41.74648666381836 L85.80928039550781,43.02482604980469 L86.61776733398438,44.09202194213867 L87.9390869140625,44.81462097167969 L89.6820068359375,45.12874221801758 L91.73281860351562,45.01997375488281 L93.91670227050781,44.53126907348633 L96.03987121582031,43.72156524658203 L97.92417907714844,42.688411712646484 L99.43305969238281,41.547035217285156 L100.50773620605469,40.4357795715332 L101.1729736328125,39.48828887939453 L101.49551391601562,38.80070877075195 L101.57249450683594,38.40483474731445 L101.51327514648438,38.3133430480957 L101.39872741699219,38.53452682495117 L101.27548217773438,39.08548355102539 L101.18490600585938,39.964168548583984 L101.16360473632812,41.103572845458984 L101.27708435058594,42.401206970214844 L101.56134033203125,43.70914840698242 L102.00123596191406,44.885868072509766 L102.43212890625,45.738372802734375 L102.73843383789062,46.21925354003906 M110.36822509765625,23.506423950195312 L110.35336303710938,23.415239334106445 L110.33515930175781,23.468719482421875 L110.30929565429688,23.852317810058594 L110.27822875976562,24.74933624267578 L110.23101806640625,26.19397735595703 L110.17051696777344,28.13438606262207 L110.10403442382812,30.45780372619629 L110.04904174804688,33.02344512939453 L110.00559997558594,35.64753723144531 L109.96664428710938,38.16395950317383 L109.91314697265625,40.436893463134766 L109.82754516601562,42.35908508300781 L109.70071411132812,43.85694122314453 L109.53288269042969,44.90039825439453 L109.37626647949219,45.496803283691406 L109.26405334472656,45.74772262573242 M105.62709045410156,37.414268493652344 L105.69041442871094,37.21267318725586 L105.9453125,36.926429748535156 L106.50830078125,36.62883377075195 L107.55209350585938,36.44490432739258 L109.10032653808594,36.412620544433594 L111.03726196289062,36.51701354980469 L112.783935546875,36.664249420166016 L113.96900939941406,36.7880973815918 M127.68447875976562,37.42940902709961 L127.60946655273438,37.20426940917969 L127.31240844726562,36.836700439453125 L126.64651489257812,36.375823974609375 L125.52044677734375,35.95283508300781 L123.95204162597656,35.63509750366211 L122.09494018554688,35.467430114746094 L120.17901611328125,35.443302154541016 L118.45652770996094,35.54804229736328 L117.15235900878906,35.75406265258789 L116.41673278808594,36.08320617675781 L116.32666015625,36.55094528198242 L116.89360046386719,37.147579193115234 L118.10037231445312,37.84675598144531 L119.88427734375,38.61790466308594 L122.11386108398438,39.436729431152344 L124.60336303710938,40.317665100097656 L127.11309814453125,41.252899169921875 L129.37496948242188,42.19744110107422 L131.1667938232422,43.08683395385742 L132.33741760253906,43.8665885925293 L132.80816650390625,44.50356674194336 L132.60665893554688,45.002952575683594 L131.78746032714844,45.3663444519043 L130.43663024902344,45.589542388916016 L128.64320373535156,45.66643142700195 L126.51580810546875,45.61403274536133 L124.16525268554688,45.461769104003906 L121.70156860351562,45.25032424926758 L119.17926025390625,45.01723098754883 L117.12606811523438,44.82573318481445 L115.79779052734375,44.70307922363281 " fill="none" stroke="black" stroke-linecap="round" stroke-width="2" /></svg>