<?xml version="1.0" encoding="utf-8" ?>
<svg baseProfile="full" height="100%" version="1.1" viewBox="0,0,150,60" width="100%" xmlns="http://www.w3.org/2000/svg" xmlns:ev="http://www.w3.org/2001/xml-events" xmlns:xlink="http://www.w3.org/1999/xlink"><defs /><path d="M0,0 M62.9829216003418,25.4656925201416 L62.96086502075195,25.106918334960938 L62.82881164550781,24.541423797607422 L62.506935119628906,23.867902755737305 L61.901649475097656,23.258804321289062 L60.95410919189453,22.78432846069336 L59.6494255065918,22.518573760986328 L58.029541015625,22.5 L56.166446685791016,22.777488708496094 L54.21937942504883,23.382389068603516 L52.343849182128906,24.308488845825195 L50.7089958190918,25.533004760742188 L49.44765853881836,27.021282196044922 L48.683753967285156,28.69788360595703 L48.48215103149414,30.4583740234375 L48.914093017578125,32.16392517089844 L50.013389587402344,33.67987060546875 L51.772796630859375,34.89079666137695 L54.10299301147461,35.72834014892578 L56.8475227355957,36.1778678894043 L59.829742431640625,36.24261474609375 L62.81339645385742,35.96586227416992 L65.5790023803711,35.44648742675781 L67.65242004394531,34.91777420043945 L68.86882019042969,34.53676986694336 M77.31309509277344,28.813140869140625 L77.35619354248047,28.415897369384766 L77.28201293945312,27.80109214782715 L76.96640014648438,27.109294891357422 L76.29942321777344,26.565380096435547 L75.27389526367188,26.280214309692383 L73.95548248291016,26.316679000854492 L72.46663665771484,26.67621612548828 L70.94622802734375,27.345996856689453 L69.55220031738281,28.308544158935547 L68.42478942871094,29.495532989501953 L67.67256927490234,30.81106185913086 L67.41612243652344,32.13567352294922 L67.74969482421875,33.31809997558594 L68.69955444335938,34.18889236450195 L70.22396087646484,34.64384460449219 L72.17674255371094,34.62898254394531 L74.32002258300781,34.17048645019531 L76.403564453125,33.360511779785156 L78.19711303710938,32.307437896728516 L79.5467529296875,31.113872528076172 L80.41921997070312,29.911455154418945 L80.87057495117188,28.821189880371094 L81.01582336425781,27.953563690185547 L80.98368835449219,27.382862091064453 L80.85408782958984,27.138099670410156 L80.69850158691406,27.234230041503906 L80.55970764160156,27.69491958618164 L80.47041320800781,28.511476516723633 L80.47798156738281,29.621116638183594 L80.63123321533203,30.90375328063965 L80.946533203125,32.20941162109375 L81.46701049804688,33.398868560791016 L82.1610107421875,34.37178039550781 L82.93927001953125,35.068031311035156 L83.59254455566406,35.4720573425293 L84.00624084472656,35.642845153808594 M87.26560974121094,27.022762298583984 L87.30294799804688,26.998281478881836 L87.33984375,27.094017028808594 L87.35568237304688,27.446054458618164 L87.3281021118164,28.185529708862305 L87.26249694824219,29.344125747680664 L87.18121337890625,30.92597198486328 L87.09698486328125,32.87995147705078 L87.00375366210938,35.13690948486328 L86.88056945800781,37.601322174072266 L86.69867706298828,40.156593322753906 L86.4501953125,42.64786911010742 L86.15762329101562,44.90372848510742 L85.86357116699219,46.74587631225586 L85.60873413085938,48.03306579589844 L85.41508483886719,48.66732406616211 L85.29177856445312,48.6287956237793 L85.24522399902344,47.955753326416016 L85.26518249511719,46.713829040527344 L85.35438537597656,45.008934020996094 L85.49267578125,42.96003723144531 L85.66539001464844,40.67903137207031 L85.89250183105469,38.289493560791016 L86.20415496826172,35.9034423828125 L86.63735961914062,33.60448455810547 L87.25909423828125,31.476703643798828 L88.11894226074219,29.581600189208984 L89.24723052978516,27.971481323242188 L90.68631744384766,26.71222686767578 L92.4290542602539,25.86489486694336 L94.4402847290039,25.463069915771484 L96.62747192382812,25.501239776611328 L98.874267578125,25.931196212768555 L100.99297332763672,26.65938949584961 L102.8235855102539,27.58928108215332 L104.2262954711914,28.635025024414062 L105.10000610351562,29.724639892578125 L105.36090087890625,30.79193687438965 L105.00178527832031,31.791276931762695 L104.02681732177734,32.66276550292969 L102.5289077758789,33.35251235961914 L100.67228698730469,33.81427764892578 L98.65020751953125,34.01690673828125 L96.6720199584961,33.962608337402344 L94.98326873779297,33.65513229370117 L93.7750244140625,33.13863754272461 L93.14897918701172,32.48735809326172 L92.97762298583984,31.9054012298584 L93.04374694824219,31.514623641967773 M108.11495208740234,27.80853271484375 L108.13764190673828,27.880680084228516 L108.17955017089844,28.103940963745117 L108.23711395263672,28.555736541748047 L108.28209686279297,29.263647079467773 L108.30412292480469,30.199010848999023 L108.2802734375,31.291479110717773 L108.23583984375,32.436119079589844 L108.18568420410156,33.52638244628906 L108.1259536743164,34.43756103515625 L108.03021240234375,35.04347610473633 L107.8927993774414,35.245933532714844 L107.71052551269531,34.989253997802734 L107.54036712646484,34.2682991027832 L107.42333984375,33.158538818359375 L107.37461853027344,31.757436752319336 L107.4137954711914,30.196117401123047 L107.57160949707031,28.606319427490234 L107.88471221923828,27.10167121887207 L108.42121124267578,25.780025482177734 L109.20252227783203,24.729734420776367 L110.23693084716797,24.004980087280273 L111.5026626586914,23.63705062866211 L112.95246887207031,23.616558074951172 L114.52567291259766,23.898359298706055 L116.16217803955078,24.414743423461914 L117.77601623535156,25.079071044921875 L119.31437683105469,25.802997589111328 L120.73136901855469,26.503963470458984 L121.97115325927734,27.110082626342773 L122.9924545288086,27.571937561035156 L123.69535064697266,27.860183715820312 L124.07203674316406,27.995819091796875 M125.9219741821289,27.452299118041992 L125.9464340209961,27.5010986328125 L125.96939849853516,27.656169891357422 L125.9778060913086,27.995647430419922 L125.94425201416016,28.571380615234375 L125.87430572509766,29.405424118041992 L125.77984619140625,30.461313247680664 L125.68304443359375,31.6634464263916 L125.6156234741211,32.897804260253906 L125.605224609375,34.03495407104492 L125.65451049804688,34.96382522583008 L125.75475311279297,35.55674743652344 L125.85469818115234,35.69015121459961 L125.92220306396484,35.534305572509766 L125.95024108886719,35.27775192260742 " fill="none" stroke="black" stroke-linecap="round" stroke-width="2" /></svg>