<?xml version="1.0" encoding="utf-8" ?>
<svg baseProfile="full" height="100%" version="1.1" viewBox="0,0,150,60" width="100%" xmlns="http://www.w3.org/2000/svg" xmlns:ev="http://www.w3.org/2001/xml-events" xmlns:xlink="http://www.w3.org/1999/xlink"><defs /><path d="M0,0 M59.67756652832031,38.6669921875 L59.56000900268555,38.33973693847656 L59.273590087890625,37.86338806152344 L58.74776840209961,37.35348129272461 L57.95112991333008,36.988582611083984 L56.85359573364258,36.819053649902344 L55.497066497802734,36.88405990600586 L53.95320510864258,37.20458984375 L52.29153823852539,37.811832427978516 L50.621185302734375,38.72684860229492 L49.0506477355957,39.93901062011719 L47.688514709472656,41.39341735839844 L46.66752243041992,43.0108528137207 L46.11570739746094,44.692710876464844 L46.138126373291016,46.32752227783203 L46.81761932373047,47.79109191894531 L48.16539001464844,48.957088470458984 L50.13783264160156,49.725669860839844 L52.6118049621582,50.04289627075195 L55.414546966552734,49.941673278808594 L58.407649993896484,49.434776306152344 L61.385868072509766,48.573951721191406 L64.14208984375,47.435264587402344 L66.21481323242188,46.381622314453125 L67.4303207397461,45.64188766479492 M67.92581939697266,23.89016342163086 L67.87997436523438,23.4237060546875 L67.84107971191406,22.879173278808594 L67.83177947998047,22.504079818725586 L67.86907958984375,22.600887298583984 L67.93852233886719,23.23887825012207 L67.99992370605469,24.39866828918457 L68.02702331542969,25.98914909362793 L68.04421997070312,27.982728958129883 L68.066162109375,30.292766571044922 L68.10240173339844,32.817230224609375 L68.15065002441406,35.45211410522461 L68.17469787597656,38.06028747558594 L68.1434326171875,40.50630187988281 L68.04771423339844,42.65882873535156 L67.89776611328125,44.40907287597656 L67.7259521484375,45.685081481933594 L67.5828857421875,46.442527770996094 L67.51144409179688,46.661197662353516 L67.54730224609375,46.36956787109375 L67.71737670898438,45.600120544433594 L68.04818725585938,44.447731018066406 L68.55953979492188,43.05070495605469 L69.24346923828125,41.54755783081055 L70.09469604492188,40.06526184082031 L71.08775329589844,38.72389602661133 L72.19642639160156,37.59980392456055 L73.3985595703125,36.77376937866211 L74.65382385253906,36.30414962768555 L75.88919067382812,36.222835540771484 L77.06094360351562,36.53276824951172 L78.111083984375,37.2113037109375 L79.0093994140625,38.20673370361328 L79.73655700683594,39.4552001953125 L80.26504516601562,40.85670852661133 L80.58792114257812,42.3109130859375 L80.75579833984375,43.7105712890625 L80.83006286621094,44.94316864013672 L80.89533996582031,45.9295654296875 L80.96784973144531,46.581939697265625 L81.03143310546875,46.91346740722656 M94.94696044921875,41.197391510009766 L95.04176330566406,40.68488693237305 L95.04537963867188,39.89628601074219 L94.81781005859375,38.97247314453125 L94.232666015625,38.170291900634766 L93.27058410644531,37.57831954956055 L91.96626281738281,37.24766540527344 L90.41584777832031,37.1920280456543 L88.70693969726562,37.436702728271484 L87.00141906738281,37.98972702026367 L85.4793701171875,38.83871841430664 L84.2960205078125,39.9308967590332 L83.5792236328125,41.18455505371094 L83.4052734375,42.49563980102539 L83.77915954589844,43.71912384033203 L84.69650268554688,44.72443389892578 L86.08537292480469,45.39006423950195 L87.83287048339844,45.63915252685547 L89.794677734375,45.452274322509766 L91.81135559082031,44.864105224609375 L93.73004150390625,43.93608856201172 L95.43255615234375,42.76674270629883 L96.80271911621094,41.462406158447266 L97.78514099121094,40.16654586791992 L98.38652038574219,39.01327896118164 L98.66311645507812,38.10452651977539 L98.69384765625,37.514827728271484 L98.57368469238281,37.29004669189453 L98.37351989746094,37.446170806884766 L98.15507507324219,38.010169982910156 L97.99996948242188,38.949684143066406 L97.9664306640625,40.161590576171875 L98.11880493164062,41.52290344238281 L98.50186157226562,42.86619567871094 L99.1024169921875,44.038082122802734 L99.69474792480469,44.86767578125 L100.12809753417969,45.32110595703125 M107.95945739746094,22.525146484375 L108.00776672363281,22.5 L108.10401916503906,22.64137077331543 L108.24310302734375,23.120023727416992 L108.39468383789062,24.071088790893555 L108.52757263183594,25.49202537536621 L108.60285949707031,27.31528663635254 L108.63038635253906,29.445831298828125 L108.64456176757812,31.770687103271484 L108.67134094238281,34.16790008544922 L108.71603393554688,36.50556182861328 L108.73062133789062,38.64086151123047 L108.65052795410156,40.44139862060547 L108.46328735351562,41.81446075439453 L108.21139526367188,42.71881866455078 L107.98487854003906,43.19379806518555 L107.84735107421875,43.36697006225586 M103.89532470703125,37.15256881713867 L103.73956298828125,36.91361999511719 L103.67121887207031,36.57289505004883 L103.87576293945312,36.208351135253906 L104.54789733886719,35.93157958984375 L105.71665954589844,35.7728385925293 L107.31832885742188,35.72065353393555 L109.21340942382812,35.75947189331055 L111.30184936523438,35.888458251953125 L113.48246765136719,36.09646224975586 L115.68539428710938,36.36516571044922 L117.83183288574219,36.69460678100586 L119.82170104980469,37.05978012084961 L121.55424499511719,37.444419860839844 L122.97286987304688,37.82088088989258 L124.05955505371094,38.164306640625 L124.81314086914062,38.45013427734375 L125.22645568847656,38.67864990234375 L125.27560424804688,38.84894943237305 L124.94992065429688,38.97458267211914 L124.23182678222656,39.061378479003906 L123.16278076171875,39.11616516113281 L121.81794738769531,39.13969039916992 L120.34521484375,39.14022445678711 L118.92231750488281,39.132991790771484 L117.7276611328125,39.13581848144531 L116.85223388671875,39.1606330871582 L116.36334228515625,39.2166633605957 L116.26423645019531,39.31740188598633 L116.57536315917969,39.47370910644531 L117.320556640625,39.71521759033203 L118.50569152832031,40.061798095703125 L120.08755493164062,40.5285758972168 L121.98529052734375,41.11533737182617 L124.0419921875,41.810848236083984 L126.09075927734375,42.5855827331543 L127.94970703125,43.40619659423828 L129.46058654785156,44.23060989379883 L130.5165557861328,45.01899719238281 L131.06996154785156,45.73382568359375 L131.1074981689453,46.34251403808594 L130.6675262451172,46.82353591918945 L129.7762451171875,47.153350830078125 L128.48626708984375,47.326534271240234 L126.8602294921875,47.345829010009766 L124.97128295898438,47.22291564941406 L122.88372802734375,46.98923873901367 L120.65631103515625,46.672828674316406 L118.32676696777344,46.29522705078125 L115.95014953613281,45.88155746459961 L113.59205627441406,45.453731536865234 L111.32524108886719,45.0281867980957 L109.21063232421875,44.62810516357422 L107.27629089355469,44.25132369995117 L105.81153869628906,43.959007263183594 L104.92124938964844,43.77545166015625 " fill="none" stroke="black" stroke-linecap="round" stroke-width="2" /></svg>