<?xml version="1.0" encoding="utf-8" ?>
<svg baseProfile="full" height="100%" version="1.1" viewBox="0,0,240,60" width="100%" xmlns="http://www.w3.org/2000/svg" xmlns:ev="http://www.w3.org/2001/xml-events" xmlns:xlink="http://www.w3.org/1999/xlink"><defs /><path d="M0,0 M75.64077758789062,41.05078125 L75.58012390136719,40.73379898071289 L75.40782165527344,40.24391555786133 L75.03216552734375,39.6706657409668 L74.40682983398438,39.18405532836914 L73.48487854003906,38.85469055175781 L72.23374938964844,38.737911224365234 L70.70864868164062,38.8709716796875 L69.00369262695312,39.284236907958984 L67.2463150024414,39.99540710449219 L65.62032318115234,41.001060485839844 L64.26226806640625,42.26667022705078 L63.27854919433594,43.731929779052734 L62.77171325683594,45.31019592285156 L62.795684814453125,46.886802673339844 L63.39204406738281,48.345794677734375 L64.55998992919922,49.56732177734375 L66.24712371826172,50.45701217651367 L68.36320495605469,50.96428680419922 L70.77464294433594,51.0894660949707 L73.37484741210938,50.78953170776367 L76.0052490234375,50.07879638671875 L78.48406982421875,49.018470764160156 L80.36917114257812,47.98374938964844 L81.49128723144531,47.24009704589844 M83.48838806152344,23.80656623840332 L83.49479675292969,23.804344177246094 L83.51969909667969,24.05504035949707 L83.54678344726562,24.754667282104492 L83.5508041381836,26.024219512939453 L83.50297546386719,27.80873680114746 L83.40839385986328,29.994426727294922 L83.29619598388672,32.4596061706543 L83.20477294921875,35.11151123046875 L83.1418228149414,37.846397399902344 L83.09510803222656,40.53596878051758 L83.02979278564453,43.01591491699219 L82.9243392944336,45.12437438964844 L82.798095703125,46.73610305786133 L82.68620300292969,47.77063751220703 L82.64920043945312,48.19557189941406 L82.7508773803711,48.03754425048828 L83.05132293701172,47.34839630126953 L83.58822631835938,46.22873306274414 L84.37433624267578,44.811038970947266 L85.36640930175781,43.236942291259766 L86.52757263183594,41.64067840576172 L87.80146026611328,40.160301208496094 L89.16792297363281,38.91871643066406 L90.58783721923828,38.01997375488281 L91.99765014648438,37.53507995605469 L93.31893157958984,37.49095153808594 L94.48379516601562,37.87689208984375 L95.42176055908203,38.660030364990234 L96.1201171875,39.79856491088867 L96.57625579833984,41.206756591796875 L96.81791687011719,42.76723861694336 L96.94571685791016,44.338871002197266 L97.05081939697266,45.76692581176758 L97.21673583984375,46.927833557128906 L97.41108703613281,47.70270919799805 L97.57416534423828,48.10088348388672 M110.90499114990234,43.034767150878906 L111.01911163330078,42.559112548828125 L111.08661651611328,41.779762268066406 L110.977783203125,40.79039764404297 L110.57282257080078,39.80616760253906 L109.8468017578125,38.92963790893555 L108.81407165527344,38.23362350463867 L107.53224182128906,37.7615852355957 L106.06011199951172,37.580204010009766 L104.473388671875,37.72674560546875 L102.89942169189453,38.229122161865234 L101.46883392333984,39.084224700927734 L100.30509185791016,40.21535110473633 L99.53892517089844,41.52273941040039 L99.2597427368164,42.87489700317383 L99.50502014160156,44.124507904052734 L100.2840805053711,45.15299987792969 L101.52969360351562,45.86471939086914 L103.11555480957031,46.17688751220703 L104.89414978027344,46.07160186767578 L106.71192932128906,45.57578659057617 L108.42667388916016,44.759971618652344 L109.94364166259766,43.73779296875 L111.17426300048828,42.64468765258789 L112.06460571289062,41.60288619995117 L112.61407470703125,40.72602462768555 L112.87091064453125,40.09770584106445 L112.91168975830078,39.78776168823242 L112.82623291015625,39.8367805480957 L112.6884765625,40.28340530395508 L112.56533813476562,41.1102409362793 L112.52433776855469,42.242279052734375 L112.65106201171875,43.54880905151367 L112.98088836669922,44.86516189575195 L113.48677825927734,46.02149963378906 L113.98310852050781,46.83784103393555 L114.33504486083984,47.27928924560547 M123.01402282714844,25.0378360748291 L123.1419906616211,24.361351013183594 L123.27836608886719,23.487140655517578 L123.36168670654297,22.730066299438477 L123.331298828125,22.5 L123.2215805053711,22.901824951171875 L123.06541442871094,23.958158493041992 L122.89057922363281,25.57379913330078 L122.703125,27.666622161865234 L122.51658630371094,30.090404510498047 L122.3276138305664,32.67344284057617 L122.1391372680664,35.27939224243164 L121.92411041259766,37.78712463378906 L121.6494140625,40.0764045715332 L121.3143081665039,42.03974151611328 L120.94579315185547,43.59042739868164 L120.57244110107422,44.61886978149414 L120.24602508544922,45.08737564086914 L119.98468017578125,45.03355407714844 L119.80807495117188,44.72158432006836 L119.71536254882812,44.394874572753906 M117.73738861083984,38.29527282714844 L117.9388427734375,38.16883850097656 L118.40540313720703,37.9804573059082 L119.22230529785156,37.76839065551758 L120.39965057373047,37.60348129272461 L121.89710235595703,37.50599670410156 L123.62604522705078,37.45753479003906 L125.50106048583984,37.437828063964844 L127.36661529541016,37.431129455566406 L129.07412719726562,37.424949645996094 L130.33807373046875,37.42240524291992 L131.06130981445312,37.42577362060547 M130.7374725341797,42.550045013427734 L131.03326416015625,42.69599151611328 L131.6327667236328,42.86821365356445 L132.57687377929688,42.97456359863281 L133.81610107421875,42.89832305908203 L135.29818725585938,42.60819625854492 L136.94570922851562,42.0964469909668 L138.63812255859375,41.38056564331055 L140.23715209960938,40.50735092163086 L141.58995056152344,39.53873062133789 L142.5642547607422,38.54410934448242 L143.04873657226562,37.59775161743164 L142.97183227539062,36.76690673828125 L142.30035400390625,36.129695892333984 L141.05856323242188,35.798065185546875 L139.3354949951172,35.86891174316406 L137.2987823486328,36.377716064453125 L135.16397094726562,37.28927230834961 L133.18536376953125,38.50433349609375 L131.59707641601562,39.89957809448242 L130.58642578125,41.3638801574707 L130.28594970703125,42.793251037597656 L130.75840759277344,44.07916259765625 L131.98391723632812,45.132869720458984 L133.94247436523438,45.886165618896484 L136.42678833007812,46.32307815551758 L139.128662109375,46.48400115966797 L141.35324096679688,46.48260498046875 L142.7425537109375,46.42356491088867 M155.23446655273438,42.85860824584961 L155.29312133789062,42.48683547973633 L155.32699584960938,41.87232971191406 L155.25242614746094,41.08755111694336 L154.96524047851562,40.29117965698242 L154.40658569335938,39.562171936035156 L153.54896545410156,38.9731559753418 L152.4150390625,38.58994674682617 L151.03497314453125,38.48539352416992 L149.47413635253906,38.71202850341797 L147.8310546875,39.263729095458984 L146.26754760742188,40.104732513427734 L144.96095275878906,41.1522216796875 L144.11798095703125,42.31610107421875 L143.8587646484375,43.46255874633789 L144.2439727783203,44.4690055847168 L145.24720764160156,45.199851989746094 L146.7915496826172,45.578887939453125 L148.71337890625,45.57928466796875 L150.81866455078125,45.23686599731445 L152.87240600585938,44.5969352722168 L154.6754150390625,43.73966598510742 L156.08822631835938,42.7529296875 L157.05496215820312,41.7695198059082 L157.60020446777344,40.923614501953125 L157.81912231445312,40.309627532958984 L157.81600952148438,39.9623908996582 L157.70404052734375,39.88243865966797 L157.56781005859375,40.07255172729492 L157.45602416992188,40.56332015991211 L157.41917419433594,41.35051345825195 L157.51248168945312,42.362911224365234 L157.81581115722656,43.47785949707031 L158.3750457763672,44.5285530090332 L159.17138671875,45.3887825012207 L159.935791015625,45.95981216430664 L160.47711181640625,46.248756408691406 M165.59011840820312,39.18213653564453 L165.46163940429688,38.82398223876953 L165.26878356933594,38.394386291503906 L165.0269012451172,38.09785079956055 L164.754150390625,38.17158126831055 L164.4266815185547,38.66489028930664 L164.06614685058594,39.53550720214844 L163.74090576171875,40.66230010986328 L163.59434509277344,41.91655731201172 L163.746826171875,43.14474105834961 L164.2393798828125,44.177764892578125 L165.06283569335938,44.89508819580078 L166.17864990234375,45.19879913330078 L167.52178955078125,45.047733306884766 L169.03402709960938,44.46137619018555 L170.61326599121094,43.512672424316406 L172.11073303222656,42.317413330078125 L173.40878295898438,41.03502655029297 L174.44525146484375,39.833805084228516 L175.19808959960938,38.846473693847656 L175.6819610595703,38.148860931396484 L175.93368530273438,37.772003173828125 L175.99737548828125,37.72359848022461 L175.9242401123047,38.011661529541016 L175.77503967285156,38.65867233276367 L175.5983428955078,39.62955856323242 L175.4187469482422,40.822959899902344 L175.2825927734375,42.10502624511719 L175.26934814453125,43.31767272949219 L175.4160919189453,44.31605911254883 L175.7210693359375,45.02464294433594 L176.0535125732422,45.425960540771484 L176.29908752441406,45.58523941040039 M182.06118774414062,37.69228744506836 L182.06915283203125,37.6565055847168 L182.06529235839844,37.64082336425781 L182.05291748046875,37.70085906982422 L182.0438995361328,37.915748596191406 L182.07998657226562,38.33518981933594 L182.18641662597656,38.96369552612305 L182.38357543945312,39.75203323364258 L182.69329833984375,40.6347541809082 L183.11692810058594,41.516151428222656 L183.61732482910156,42.322669982910156 L184.05844116210938,42.92124938964844 L184.35067749023438,43.26951217651367 M183.78466796875,37.52442932128906 L183.7429656982422,37.43137741088867 L183.67933654785156,37.31358337402344 L183.57711791992188,37.24290084838867 L183.3938751220703,37.320289611816406 L183.0315704345703,37.628082275390625 L182.40567016601562,38.201480865478516 L181.479248046875,39.0122184753418 L180.24595642089844,40.00785827636719 L178.7980499267578,41.08367919921875 L177.2846221923828,42.112056732177734 L176.0595703125,42.89433670043945 L175.29653930664062,43.353763580322266 M193.47320556640625,41.18638610839844 L193.42007446289062,41.193115234375 L193.28277587890625,41.20259475708008 L193.04293823242188,41.23209762573242 L192.7189178466797,41.32536697387695 L192.36878967285156,41.53911590576172 L192.0499725341797,41.92005920410156 L191.820068359375,42.48194122314453 L191.73355102539062,43.189491271972656 L191.85618591308594,43.97688674926758 L192.26547241210938,44.77354431152344 L193.03070068359375,45.492149353027344 L194.16720581054688,46.043643951416016 L195.62371826171875,46.35295867919922 L197.29379272460938,46.3596305847168 L199.03250122070312,46.038394927978516 L200.6867218017578,45.4133186340332 L202.09226989746094,44.52537155151367 L203.1122589111328,43.43460464477539 L203.6477508544922,42.21228790283203 L203.6552276611328,40.92007064819336 L203.13778686523438,39.62800598144531 L202.13580322265625,38.41669845581055 L200.71063232421875,37.37635803222656 L198.91627502441406,36.608642578125 L196.79345703125,36.183502197265625 L194.9158172607422,36.035194396972656 L193.62496948242188,36.048980712890625 " fill="none" stroke="black" stroke-linecap="round" stroke-width="2" /></svg>