<?xml version="1.0" encoding="utf-8" ?>
<svg baseProfile="full" height="100%" version="1.1" viewBox="0,0,300,90" width="100%" xmlns="http://www.w3.org/2000/svg" xmlns:ev="http://www.w3.org/2001/xml-events" xmlns:xlink="http://www.w3.org/1999/xlink"><defs /><path d="M0,0 M130.56832885742188,27.419431686401367 L130.55245971679688,27.107606887817383 L130.42173767089844,26.607511520385742 L130.08538818359375,25.99482536315918 L129.45144653320312,25.425989151000977 L128.46661376953125,24.98508071899414 L127.11727905273438,24.75025177001953 L125.4263916015625,24.76919174194336 L123.44063568115234,25.103166580200195 L121.27223205566406,25.7747859954834 L119.07505798339844,26.769277572631836 L117.07181549072266,28.036846160888672 L115.50373840332031,29.494138717651367 L114.59706115722656,31.035987854003906 L114.48455047607422,32.54172134399414 L115.18743896484375,33.87174987792969 L116.64812469482422,34.90578842163086 L118.7611083984375,35.570247650146484 L121.3773422241211,35.86878204345703 L124.31360626220703,35.882869720458984 L127.36209869384766,35.679901123046875 L130.25259399414062,35.324337005615234 L132.7711944580078,34.8669548034668 L134.55906677246094,34.447105407714844 L135.55230712890625,34.153438568115234 M137.83482360839844,26.17557144165039 L137.85543823242188,26.213363647460938 L137.89080810546875,26.40334701538086 L137.93226623535156,26.851816177368164 L137.96725463867188,27.633159637451172 L137.97317504882812,28.741256713867188 L137.93646240234375,30.09099006652832 L137.84303283691406,31.54607391357422 L137.7184600830078,32.9489860534668 L137.5825653076172,34.14128112792969 L137.462158203125,34.99229049682617 L137.36184692382812,35.41450500488281 L137.2786407470703,35.36116409301758 L137.1819305419922,34.817420959472656 L137.09397888183594,33.82368087768555 L137.0374755859375,32.47340774536133 L137.03684997558594,30.882171630859375 L137.13905334472656,29.1860408782959 L137.36988830566406,27.503620147705078 L137.73623657226562,25.928226470947266 L138.28872680664062,24.563018798828125 L139.08306884765625,23.504562377929688 L140.12806701660156,22.813282012939453 L141.425537109375,22.5 L142.98057556152344,22.53722381591797 L144.70945739746094,22.842147827148438 L146.51016235351562,23.31774139404297 L147.98861694335938,23.768712997436523 L148.92337036132812,24.079559326171875 M154.8649444580078,24.603073120117188 L154.64608764648438,24.382474899291992 L154.3058319091797,24.126976013183594 L153.87850952148438,23.984647750854492 L153.43113708496094,24.146709442138672 L152.97740173339844,24.693347930908203 L152.55043029785156,25.643814086914062 L152.1888885498047,26.936492919921875 L151.98605346679688,28.49178695678711 L152.01284790039062,30.176403045654297 L152.32022094726562,31.832901000976562 L152.9623260498047,33.30072021484375 L153.94166564941406,34.43524169921875 L155.2112274169922,35.118797302246094 L156.71551513671875,35.29155349731445 L158.3584747314453,34.94005584716797 L160.0390625,34.09942626953125 L161.6754608154297,32.84056854248047 L163.150390625,31.268213272094727 L164.37210083007812,29.525371551513672 L165.29539489746094,27.788930892944336 L165.90924072265625,26.254459381103516 L166.2611541748047,25.070253372192383 L166.4161834716797,24.322040557861328 L166.42324829101562,24.041698455810547 L166.34738159179688,24.23583221435547 L166.2267303466797,24.910045623779297 L166.09329223632812,26.049211502075195 L166.00003051757812,27.549612045288086 L165.99209594726562,29.243967056274414 L166.13760375976562,30.946399688720703 L166.50282287597656,32.48450469970703 L167.13040161132812,33.71572494506836 L167.9897918701172,34.553585052490234 L168.99034118652344,34.96792984008789 L169.8441619873047,35.07110595703125 L170.39620971679688,35.02114486694336 M172.94168090820312,32.82933807373047 L173.29544067382812,32.70866012573242 L173.9998016357422,32.419837951660156 L175.06536865234375,31.9132022857666 L176.3952178955078,31.190351486206055 L177.8935546875,30.28108787536621 L179.40834045410156,29.229206085205078 L180.7924041748047,28.1065673828125 L181.89990234375,26.995859146118164 L182.57376098632812,25.972177505493164 L182.72250366210938,25.115625381469727 L182.30410766601562,24.497190475463867 L181.31459045410156,24.192873001098633 L179.84909057617188,24.28537940979004 L178.06764221191406,24.814571380615234 L176.17153930664062,25.754003524780273 L174.4100341796875,27.02781105041504 L173.01895141601562,28.510814666748047 L172.1778106689453,30.06549644470215 L172.02053833007812,31.558544158935547 L172.59298706054688,32.851715087890625 L173.86338806152344,33.83613586425781 L175.72708129882812,34.44784927368164 L177.98382568359375,34.67551040649414 L180.4488525390625,34.51729202270508 L182.9034423828125,34.032047271728516 L185.15054321289062,33.30611801147461 L186.81982421875,32.613525390625 L187.79725646972656,32.12969207763672 M198.06430053710938,26.173858642578125 L198.04345703125,25.75095558166504 L197.81085205078125,25.11101722717285 L197.22840881347656,24.399776458740234 L196.20028686523438,23.837642669677734 L194.7855224609375,23.500253677368164 L193.12808227539062,23.408891677856445 L191.44601440429688,23.522661209106445 L189.95431518554688,23.83435821533203 L188.8755340576172,24.335405349731445 L188.3475799560547,24.997940063476562 L188.462890625,25.785409927368164 L189.25128173828125,26.64020538330078 L190.70172119140625,27.500778198242188 L192.726806640625,28.34750747680664 L195.17684936523438,29.179046630859375 L197.7757568359375,30.005041122436523 L200.21640014648438,30.815265655517578 L202.2001953125,31.576261520385742 L203.51708984375,32.24720001220703 L204.04556274414062,32.808677673339844 L203.80577087402344,33.26401901245117 L202.8330078125,33.62502670288086 L201.23190307617188,33.88633728027344 L199.1197967529297,34.03497314453125 L196.64935302734375,34.04938507080078 L193.9989013671875,33.9204216003418 L191.40560913085938,33.667327880859375 L189.03924560546875,33.33176040649414 L187.06491088867188,32.979522705078125 L185.55563354492188,32.689327239990234 L184.59048461914062,32.5062141418457 L184.10330200195312,32.426612854003906 " fill="none" stroke="black" stroke-linecap="round" stroke-width="2" /><path d="M0,0 M102.2379150390625,59.70769119262695 L102.34629821777344,59.18128204345703 L102.3758544921875,58.34902572631836 L102.17579650878906,57.330902099609375 L101.62421417236328,56.36240005493164 L100.71890258789062,55.53300857543945 L99.5054702758789,54.91078186035156 L98.06832122802734,54.53426742553711 L96.48594665527344,54.471275329589844 L94.85298156738281,54.76985549926758 L93.31285095214844,55.4427490234375 L91.98258972167969,56.46770095825195 L90.96321105957031,57.7624626159668 L90.34923553466797,59.2054557800293 L90.20882415771484,60.63774108886719 L90.60235595703125,61.903507232666016 L91.57662200927734,62.847373962402344 L93.07391357421875,63.363075256347656 L94.97211456298828,63.40403366088867 L97.08463287353516,62.995113372802734 L99.19637298583984,62.192935943603516 L101.12461853027344,61.10139083862305 L102.71381378173828,59.83135986328125 L103.84291076660156,58.52195739746094 L104.49627685546875,57.321895599365234 L104.73902893066406,56.36697769165039 L104.69977569580078,55.74614334106445 L104.54536437988281,55.53276824951172 L104.36978149414062,55.762306213378906 L104.22457122802734,56.46955871582031 L104.16854858398438,57.66277313232422 L104.23570251464844,59.29588317871094 L104.44532012939453,61.284549713134766 L104.80703735351562,63.5370979309082 L105.23397064208984,65.93780517578125 L105.6207275390625,68.37920379638672 L105.86676025390625,70.74417877197266 L105.86940002441406,72.88854217529297 L105.55912017822266,74.68582916259766 L104.92518615722656,76.03605651855469 L103.96007537841797,76.86943817138672 L102.73300170898438,77.1683120727539 L101.34041595458984,76.96701049804688 L99.90707397460938,76.33796691894531 L98.5327377319336,75.37591552734375 L97.30169677734375,74.16519927978516 L96.27180480957031,72.78746795654297 L95.49462890625,71.31893157958984 L95.07971954345703,69.81520080566406 L95.12037658691406,68.3739242553711 L95.61981201171875,67.08355712890625 L96.27037048339844,66.13663482666016 L96.81398010253906,65.59464263916016 M110.17224884033203,62.54819869995117 L110.53202819824219,62.429561614990234 L111.20758056640625,62.16813278198242 L112.20336151123047,61.73591613769531 L113.41437530517578,61.14661407470703 L114.74739074707031,60.407379150390625 L116.09758758544922,59.54315185546875 L117.33184051513672,58.583770751953125 L118.32208251953125,57.566993713378906 L118.96417236328125,56.547035217285156 L119.18968200683594,55.589637756347656 L118.94991302490234,54.7567138671875 L118.25094604492188,54.11601638793945 L117.14220428466797,53.754764556884766 L115.71470642089844,53.72828674316406 L114.10823059082031,54.066898345947266 L112.50202941894531,54.75364685058594 L111.08037567138672,55.739749908447266 L110.00621032714844,56.941287994384766 L109.4106216430664,58.283687591552734 L109.35516357421875,59.66180419921875 L109.87128448486328,60.967769622802734 L110.94743347167969,62.0762939453125 L112.53927612304688,62.90137481689453 L114.59028625488281,63.35249328613281 L116.92221069335938,63.41783142089844 L119.29707336425781,63.146244049072266 L121.18510437011719,62.764503479003906 L122.33403015136719,62.444740295410156 M124.86536407470703,55.2857551574707 L124.92924499511719,55.16546630859375 L125.01704406738281,55.06065368652344 L125.10306549072266,55.0765380859375 L125.1368179321289,55.35093307495117 L125.09449768066406,55.93696975708008 L124.97256469726562,56.83534240722656 L124.81924438476562,57.97678756713867 L124.6854476928711,59.26557540893555 L124.62483978271484,60.5560188293457 L124.61876678466797,61.71004867553711 L124.63468170166016,62.6035041809082 L124.62257385253906,63.13120651245117 L124.58465576171875,63.23422622680664 L124.54759216308594,62.90754318237305 L124.56846618652344,62.17790222167969 L124.66484069824219,61.12409591674805 L124.89164733886719,59.854331970214844 L125.26509094238281,58.47547149658203 L125.83230590820312,57.0966682434082 L126.61813354492188,55.828826904296875 L127.6385269165039,54.74686813354492 L128.8555908203125,53.92592239379883 L130.22683715820312,53.42473220825195 L131.6470489501953,53.281620025634766 L133.0193634033203,53.50495529174805 L134.25006103515625,54.08767318725586 L135.27496337890625,54.97760009765625 L136.0440673828125,56.1186637878418 L136.56629943847656,57.44010925292969 L136.85455322265625,58.856468200683594 L136.98394775390625,60.2860221862793 L137.0579833984375,61.630428314208984 L137.1663818359375,62.79038619995117 L137.29261779785156,63.611671447753906 L137.41114807128906,64.06706237792969 M141.78469848632812,61.57841873168945 L142.01739501953125,61.533809661865234 L142.54498291015625,61.41487121582031 L143.42095947265625,61.18403244018555 L144.60934448242188,60.822288513183594 L146.00604248046875,60.33183670043945 L147.45840454101562,59.710777282714844 L148.80899047851562,58.981117248535156 L149.9097900390625,58.17641830444336 L150.62832641601562,57.34074401855469 L150.88490295410156,56.5263786315918 L150.63204956054688,55.8070068359375 L149.86647033691406,55.246734619140625 L148.633056640625,54.916080474853516 L147.03892517089844,54.86049270629883 L145.24903869628906,55.11091613769531 L143.45692443847656,55.657039642333984 L141.87306213378906,56.48671340942383 L140.6552734375,57.55015182495117 L139.9100341796875,58.78081130981445 L139.70529174804688,60.08820343017578 L140.08001708984375,61.36764907836914 L141.02688598632812,62.51084899902344 L142.4967498779297,63.44534683227539 L144.4438018798828,64.1037368774414 L146.71371459960938,64.46979522705078 L149.09408569335938,64.57516479492188 L151.03024291992188,64.52928924560547 L152.24148559570312,64.43959045410156 M155.5465087890625,55.71916961669922 L155.4951629638672,55.41215515136719 L155.47308349609375,55.00310516357422 L155.5100555419922,54.638004302978516 L155.62283325195312,54.53098678588867 L155.77053833007812,54.77754592895508 L155.92184448242188,55.428260803222656 L156.08175659179688,56.46746063232422 L156.31008911132812,57.84130096435547 L156.6587371826172,59.43559646606445 L157.18096923828125,61.11619567871094 L157.87010192871094,62.7463493347168 L158.70147705078125,64.20194244384766 L159.6287841796875,65.37532043457031 L160.602783203125,66.16033935546875 L161.57899475097656,66.47978973388672 L162.529541015625,66.29816436767578 L163.4031982421875,65.63037872314453 L164.1730194091797,64.54216766357422 L164.813720703125,63.1338996887207 L165.3117218017578,61.509681701660156 L165.66775512695312,59.78635025024414 L165.88323974609375,58.07695388793945 L165.96487426757812,56.5010871887207 L165.935546875,55.19589614868164 L165.83334350585938,54.27433776855469 L165.70877075195312,53.78117752075195 L165.61105346679688,53.62081527709961 L165.55638122558594,53.64105224609375 M179.0362548828125,61.8639030456543 L179.09698486328125,61.37465286254883 L179.0555419921875,60.560791015625 L178.78785705566406,59.52986526489258 L178.20147705078125,58.513301849365234 L177.29949951171875,57.62599563598633 L176.10006713867188,56.948123931884766 L174.66127014160156,56.51799774169922 L173.0395965576172,56.37387466430664 L171.32867431640625,56.54289627075195 L169.68426513671875,57.02863693237305 L168.25839233398438,57.801753997802734 L167.19577026367188,58.79124069213867 L166.65777587890625,59.91281509399414 L166.74545288085938,61.05139923095703 L167.50399780273438,62.09126281738281 L168.918701171875,62.92280197143555 L170.86343383789062,63.457088470458984 L173.125244140625,63.63724899291992 L175.46009826660156,63.47096252441406 L177.60641479492188,62.993873596191406 L179.36154174804688,62.271785736083984 L180.61846923828125,61.38423538208008 L181.36032104492188,60.41775131225586 L181.6423797607422,59.460205078125 L181.57080078125,58.61632537841797 L181.26101684570312,57.957950592041016 L180.85720825195312,57.538238525390625 L180.50389099121094,57.405757904052734 L180.30743408203125,57.59345245361328 L180.33343505859375,58.117942810058594 L180.59259033203125,58.971824645996094 L181.0201416015625,60.071258544921875 L181.55235290527344,61.28923797607422 L182.14260864257812,62.49492263793945 L182.72171020507812,63.57185363769531 L183.24533081054688,64.38739013671875 L183.68043518066406,64.85765075683594 L183.991943359375,64.9482421875 L184.17178344726562,64.8092269897461 L184.25619506835938,64.61033630371094 M183.94654846191406,52.74983596801758 L183.9423828125,52.655330657958984 L183.97750854492188,52.56591796875 L184.03500366210938,52.506004333496094 L184.09786987304688,52.5 M196.15704345703125,59.41407012939453 L196.01718139648438,59.04763412475586 L195.66226196289062,58.44105529785156 L195.00909423828125,57.690921783447266 L194.02630615234375,56.97909927368164 L192.74288940429688,56.385807037353516 L191.26510620117188,55.95257568359375 L189.75360107421875,55.68357849121094 L188.3975830078125,55.589107513427734 L187.38388061523438,55.69507598876953 L186.85401916503906,56.009796142578125 L186.91647338867188,56.51853561401367 L187.62049865722656,57.17934799194336 L188.95396423339844,57.9470329284668 L190.83450317382812,58.77980422973633 L193.07479858398438,59.653045654296875 L195.43008422851562,60.54664611816406 L197.63040161132812,61.43602752685547 L199.42678833007812,62.28251647949219 L200.66128540039062,63.041786193847656 L201.26788330078125,63.67769241333008 L201.22747802734375,64.17756652832031 L200.56936645507812,64.5351333618164 L199.33584594726562,64.75912475585938 L197.58572387695312,64.84967803955078 L195.45736694335938,64.80219268798828 L193.13397216796875,64.61824035644531 L190.81182861328125,64.31233215332031 L188.65362548828125,63.89365768432617 L186.80581665039062,63.39394760131836 L185.34654235839844,62.86910629272461 L184.31069946289062,62.380069732666016 L183.78207397460938,61.976165771484375 L183.7889404296875,61.68108367919922 L184.28814697265625,61.474483489990234 L184.95657348632812,61.34244918823242 L185.517822265625,61.27304458618164 M203.28369140625,65.13322448730469 L203.7662353515625,65.03030395507812 L204.65994262695312,64.79103088378906 L205.94638061523438,64.37731170654297 L207.45159912109375,63.792335510253906 L209.05731201171875,63.0684928894043 L210.60989379882812,62.23930740356445 L211.96737670898438,61.35010528564453 L212.97695922851562,60.450897216796875 L213.51370239257812,59.581260681152344 L213.492919921875,58.79364776611328 L212.917236328125,58.160614013671875 L211.84298706054688,57.74266815185547 L210.39877319335938,57.60435104370117 L208.76803588867188,57.783905029296875 L207.14608764648438,58.2799072265625 L205.71343994140625,59.06620788574219 L204.63140869140625,60.09642028808594 L204.01361083984375,61.287559509277344 L203.94558715820312,62.54689025878906 L204.5018310546875,63.77529525756836 L205.701904296875,64.8777084350586 L207.51675415039062,65.77458953857422 L209.82131958007812,66.41832733154297 L212.5157470703125,66.75843811035156 L215.3955078125,66.79566192626953 L218.238525390625,66.5794906616211 L220.4666748046875,66.2830810546875 L221.83181762695312,66.0404052734375 M230.0361328125,60.16849899291992 L230.0672607421875,59.691593170166016 L229.92770385742188,58.96775436401367 L229.42645263671875,58.13264846801758 L228.41998291015625,57.42633819580078 L226.89559936523438,56.91119384765625 L225.00341796875,56.613433837890625 L223.02456665039062,56.50107955932617 L221.269775390625,56.57745361328125 L220.02377319335938,56.83290100097656 L219.489990234375,57.26706314086914 L219.72244262695312,57.85261917114258 L220.72113037109375,58.56039047241211 L222.40899658203125,59.346351623535156 L224.62069702148438,60.19594955444336 L227.13824462890625,61.10809326171875 L229.68753051757812,62.0756950378418 L231.98410034179688,63.05690002441406 L233.8216552734375,63.98728561401367 L235.05914306640625,64.7923583984375 L235.63885498046875,65.43130493164062 L235.57513427734375,65.90510559082031 L234.89810180664062,66.22697448730469 L233.67111206054688,66.40181732177734 L231.98220825195312,66.42520904541016 L229.94570922851562,66.29707336425781 L227.70660400390625,66.03080749511719 L225.39407348632812,65.65939331054688 L223.16522216796875,65.23604583740234 L221.19061279296875,64.81843566894531 L219.76199340820312,64.49774169921875 L218.95980834960938,64.31073760986328 M233.13607788085938,53.674129486083984 L233.15963745117188,53.665767669677734 L233.15625,53.744720458984375 L233.06967163085938,54.005706787109375 L232.87371826171875,54.52052307128906 L232.60488891601562,55.30461883544922 L232.3172607421875,56.32427215576172 L232.08480834960938,57.53392028808594 L231.96353149414062,58.85823440551758 L231.9696044921875,60.22953796386719 L232.11465454101562,61.55792999267578 L232.39215087890625,62.77701187133789 L232.81796264648438,63.79439163208008 L233.3961181640625,64.5429916381836 L234.0965576171875,64.9722671508789 L234.72528076171875,65.14237976074219 L235.15615844726562,65.15087890625 " fill="none" stroke="black" stroke-linecap="round" stroke-width="2" /></svg>