<?xml version="1.0" encoding="utf-8" ?>
<svg baseProfile="full" height="100%" version="1.1" viewBox="0,0,240,60" width="100%" xmlns="http://www.w3.org/2000/svg" xmlns:ev="http://www.w3.org/2001/xml-events" xmlns:xlink="http://www.w3.org/1999/xlink"><defs /><path d="M0,0 M72.23625183105469,46.82932662963867 L72.3804931640625,46.84126663208008 L72.73831176757812,46.826171875 L73.3961410522461,46.74369812011719 L74.38015747070312,46.540409088134766 L75.67970275878906,46.18498229980469 L77.24064636230469,45.639530181884766 L78.99259948730469,44.90681838989258 L80.80693817138672,44.00114059448242 L82.54804992675781,42.96723175048828 L84.05609130859375,41.85557174682617 L85.18431091308594,40.731204986572266 L85.81405639648438,39.65303039550781 L85.89566040039062,38.70123291015625 L85.37921142578125,37.95466995239258 L84.27799224853516,37.504634857177734 L82.646484375,37.42129898071289 L80.597412109375,37.732765197753906 L78.29305267333984,38.421112060546875 L75.94618225097656,39.4314079284668 L73.75184631347656,40.70224380493164 L71.89265441894531,42.16844177246094 L70.52843475341797,43.75799560546875 L69.80470275878906,45.36292266845703 L69.82759857177734,46.85976791381836 L70.65703582763672,48.11386489868164 L72.26695251464844,49.03621292114258 L74.53489685058594,49.59974670410156 L77.24374389648438,49.83516311645508 L80.15057373046875,49.8096809387207 L83.01406860351562,49.595882415771484 L85.6427993774414,49.24187469482422 L87.91207122802734,48.75909423828125 L89.75080871582031,48.17704391479492 L91.1180419921875,47.53652572631836 L91.97428131103516,46.999027252197266 L92.39299011230469,46.65392303466797 M95.52266693115234,39.52212142944336 L95.50434875488281,39.55115509033203 L95.46385192871094,39.747276306152344 L95.40025329589844,40.21568298339844 L95.32177734375,41.012081146240234 L95.23367309570312,42.08126449584961 L95.14344787597656,43.32753372192383 L95.04615020751953,44.64158248901367 L94.93153381347656,45.898372650146484 L94.79993438720703,46.96809768676758 L94.65827941894531,47.742347717285156 L94.50469970703125,48.13070297241211 L94.3499755859375,48.093711853027344 L94.20489501953125,47.627723693847656 L94.07945251464844,46.75136947631836 L94.00836181640625,45.5224723815918 L94.0343017578125,44.04132080078125 L94.17111206054688,42.41511535644531 L94.44751739501953,40.77033233642578 L94.87211608886719,39.20637130737305 L95.44512939453125,37.812400817871094 L96.17893981933594,36.67178726196289 L97.07878112792969,35.84099578857422 L98.11296081542969,35.33361053466797 L99.26277160644531,35.151519775390625 L100.47978210449219,35.248939514160156 L101.73797607421875,35.5787467956543 L103.02545928955078,36.08251953125 L104.38623809814453,36.67548370361328 L105.8115234375,37.255401611328125 L107.26678466796875,37.73481369018555 L108.44734191894531,38.04222869873047 L109.19556427001953,38.18712615966797 M113.40357208251953,22.572179794311523 L113.39369201660156,22.5 L113.36550903320312,22.59660530090332 L113.29808044433594,23.05830955505371 L113.15676879882812,24.05525779724121 L112.94730377197266,25.60114097595215 L112.66773986816406,27.63265609741211 L112.35093688964844,30.039915084838867 L112.03392028808594,32.7197265625 L111.73323059082031,35.54938888549805 L111.42794799804688,38.39240646362305 L111.14099884033203,41.11150360107422 L110.87400817871094,43.55482482910156 L110.65516662597656,45.588050842285156 L110.52396392822266,47.12982177734375 L110.50274658203125,48.145267486572266 L110.64125061035156,48.58660125732422 L110.98793029785156,48.489830017089844 L111.55050659179688,47.93400573730469 L112.12332153320312,47.25706100463867 L112.55408477783203,46.72509765625 M127.71465301513672,39.246002197265625 L127.76553344726562,38.91459655761719 L127.72309875488281,38.396324157714844 L127.46723175048828,37.78076934814453 L126.89701080322266,37.2430419921875 L125.98403930664062,36.867835998535156 L124.7754135131836,36.733245849609375 L123.33942413330078,36.86369323730469 L121.75603485107422,37.29826354980469 L120.15316772460938,38.02813720703125 L118.68507385253906,39.01982116699219 L117.50345611572266,40.21001052856445 L116.77035522460938,41.52117919921875 L116.57061004638672,42.820980072021484 L116.94774627685547,43.985069274902344 L117.89057922363281,44.872955322265625 L119.31736755371094,45.381282806396484 L121.0980224609375,45.45878601074219 L123.0787124633789,45.1129150390625 L125.0779800415039,44.3739128112793 L126.95787048339844,43.32167053222656 L128.58059692382812,42.03764343261719 L129.85182189941406,40.64673614501953 L130.70870971679688,39.30018615722656 L131.17088317871094,38.149261474609375 L131.3198699951172,37.31005096435547 L131.28427124023438,36.85944747924805 L131.15830993652344,36.81297302246094 L131.02059936523438,37.16948699951172 L130.8905029296875,37.91642379760742 L130.81248474121094,39.00886535644531 L130.82623291015625,40.361019134521484 L130.94659423828125,41.8422737121582 L131.1956787109375,43.30877685546875 L131.58175659179688,44.6246223449707 L132.08489990234375,45.69692611694336 L132.73495483398438,46.407169342041016 L133.51651000976562,46.69098663330078 L134.36483764648438,46.541255950927734 L135.08084106445312,46.190486907958984 L135.54586791992188,45.85100555419922 M137.87466430664062,37.44282913208008 L137.8779296875,37.40397262573242 L137.9056396484375,37.46992874145508 L137.97494506835938,37.75564193725586 L138.08837890625,38.35800552368164 L138.22335815429688,39.26374816894531 L138.34584045410156,40.41349411010742 L138.4212646484375,41.69273376464844 L138.42149353027344,42.96255874633789 L138.34011840820312,44.078433990478516 L138.19512939453125,44.92229461669922 L138.03207397460938,45.40798568725586 L137.91001892089844,45.491729736328125 L137.89047241210938,45.157859802246094 L138.0198974609375,44.42197036743164 L138.31472778320312,43.33806610107422 L138.78411865234375,42.00690460205078 L139.42681884765625,40.54727554321289 L140.23800659179688,39.08531951904297 L141.19839477539062,37.73335647583008 L142.29037475585938,36.5958251953125 L143.47610473632812,35.75393295288086 L144.72679138183594,35.26654052734375 L145.99795532226562,35.1494255065918 L147.24411010742188,35.41227722167969 L148.40301513671875,36.02622985839844 L149.428955078125,36.955753326416016 L150.2899169921875,38.14206314086914 L150.9792022705078,39.48981475830078 L151.49700927734375,40.873050689697266 L151.86904907226562,42.18649673461914 L152.11572265625,43.32160186767578 L152.3152618408203,44.19963073730469 L152.55068969726562,44.78220748901367 L152.8864288330078,45.06951904296875 L153.2279052734375,45.144981384277344 L153.4950408935547,45.11981201171875 M167.27767944335938,40.71923828125 L167.52529907226562,40.309532165527344 L167.79383850097656,39.615352630615234 L167.92416381835938,38.71570587158203 L167.72991943359375,37.77043151855469 L167.17112731933594,36.85142517089844 L166.27748107910156,36.02335739135742 L165.099853515625,35.36269760131836 L163.66744995117188,34.94178771972656 L162.0357666015625,34.85052490234375 L160.2985382080078,35.1137809753418 L158.60296630859375,35.73349380493164 L157.14048767089844,36.66193771362305 L156.1039276123047,37.84727478027344 L155.63510131835938,39.17131805419922 L155.8166961669922,40.503517150878906 L156.65545654296875,41.6663703918457 L158.09384155273438,42.5117073059082 L159.99957275390625,42.935203552246094 L162.1698760986328,42.92144012451172 L164.3359375,42.50437545776367 L166.23263549804688,41.775230407714844 L167.64022827148438,40.83485794067383 L168.4779052734375,39.81595993041992 L168.80833435058594,38.84978103637695 L168.78216552734375,38.06281280517578 L168.5649871826172,37.55424118041992 L168.29640197753906,37.39262771606445 L168.06072998046875,37.61786651611328 L167.9281768798828,38.25957107543945 L167.96994018554688,39.31472396850586 L168.23089599609375,40.76400375366211 L168.71432495117188,42.56769561767578 L169.36972045898438,44.665184020996094 L170.1077117919922,46.98213195800781 L170.78912353515625,49.424049377441406 L171.28048706054688,51.87333297729492 L171.46929931640625,54.20008850097656 L171.294189453125,56.28079605102539 L170.7371826171875,58.00672912597656 L169.8346710205078,59.302581787109375 L168.62477111816406,60.128814697265625 L167.16317749023438,60.47917938232422 L165.543212890625,60.374412536621094 L163.90798950195312,59.873497009277344 L162.4190216064453,59.04914855957031 L161.25869750976562,57.99482345581055 L160.57321166992188,56.78989791870117 L160.43341064453125,55.48636245727539 L160.87644958496094,54.12540817260742 L161.8875732421875,52.74897003173828 L163.39666748046875,51.390655517578125 L165.3307342529297,50.094486236572266 L167.58709716796875,48.87004470825195 L170.04122924804688,47.70138931274414 L172.579345703125,46.556453704833984 L175.07308959960938,45.396766662597656 L177.3759765625,44.18516540527344 L179.35836791992188,42.914710998535156 L180.89987182617188,41.59867477416992 L181.92889404296875,40.296932220458984 L182.408447265625,39.095645904541016 L182.32717895507812,38.079368591308594 L181.72018432617188,37.32674026489258 L180.66305541992188,36.897029876708984 L179.293701171875,36.82633972167969 L177.81944274902344,37.134613037109375 L176.455322265625,37.81806182861328 L175.36431884765625,38.81319808959961 L174.68324279785156,40.03432846069336 L174.49496459960938,41.35702896118164 L174.86346435546875,42.652984619140625 L175.8045654296875,43.79254913330078 L177.2781982421875,44.66782760620117 L179.16075134277344,45.185821533203125 L181.27935791015625,45.305503845214844 L183.4404296875,45.02293014526367 L185.46865844726562,44.38972473144531 L187.19204711914062,43.48824691772461 L188.51119995117188,42.425697326660156 L189.40811157226562,41.33012390136719 L189.924560546875,40.33721923828125 L190.15463256835938,39.54863739013672 L190.2158203125,39.03473663330078 L190.19357299804688,38.830039978027344 L190.15716552734375,38.94011688232422 L190.15652465820312,39.36262512207031 L190.1947021484375,40.074737548828125 L190.24810791015625,40.9842643737793 L190.30877685546875,41.97079086303711 L190.349609375,42.899200439453125 L190.3663330078125,43.65437698364258 L190.37332153320312,44.16505432128906 L190.38458251953125,44.39823913574219 L190.404296875,44.32207489013672 L190.4671630859375,43.93242645263672 L190.56845092773438,43.23811721801758 L190.7330322265625,42.29481887817383 L190.98345947265625,41.18767166137695 L191.3582763671875,40.0168342590332 L191.89340209960938,38.868247985839844 L192.64703369140625,37.81852340698242 L193.6346435546875,36.915306091308594 L194.87905883789062,36.213199615478516 L196.34405517578125,35.74859619140625 L197.97750854492188,35.55231475830078 L199.68258666992188,35.640987396240234 L201.36761474609375,36.03041458129883 L202.90133666992188,36.706504821777344 L204.18624877929688,37.64073944091797 L205.14443969726562,38.778228759765625 L205.78250122070312,40.051231384277344 L206.17514038085938,41.41780471801758 L206.48187255859375,42.871089935302734 L206.71987915039062,44.08898162841797 L206.896728515625,44.899227142333984 " fill="none" stroke="black" stroke-linecap="round" stroke-width="2" /></svg>