<?xml version="1.0" encoding="utf-8" ?>
<svg baseProfile="full" height="100%" version="1.1" viewBox="0,0,150,60" width="100%" xmlns="http://www.w3.org/2000/svg" xmlns:ev="http://www.w3.org/2001/xml-events" xmlns:xlink="http://www.w3.org/1999/xlink"><defs /><path d="M0,0 M66.99134826660156,31.25040626525879 L66.87774658203125,30.404193878173828 L66.59968566894531,29.075748443603516 L66.0789794921875,27.465042114257812 L65.26998901367188,25.94846534729004 L64.1768798828125,24.645000457763672 L62.83457565307617,23.61634063720703 L61.3226432800293,22.87711524963379 L59.72684860229492,22.5 L58.11067581176758,22.535287857055664 L56.53041458129883,23.041046142578125 L55.054176330566406,24.055419921875 L53.74134063720703,25.588489532470703 L52.665985107421875,27.61835479736328 L51.87450408935547,30.08700180053711 L51.36958694458008,32.897708892822266 L51.149391174316406,35.94445037841797 L51.17098617553711,39.095252990722656 L51.379844665527344,42.22288513183594 L51.724185943603516,45.18973159790039 L52.137611389160156,47.85472106933594 L52.568111419677734,50.10063171386719 L52.99044418334961,51.84369659423828 L53.36637878417969,53.057960510253906 L53.645652770996094,53.722412109375 L53.774925231933594,53.865379333496094 L53.72385025024414,53.56169891357422 L53.58192825317383,53.0990104675293 L53.437889099121094,52.70002365112305 M45.52212905883789,44.55891036987305 L45.66920471191406,44.53899002075195 L46.08061218261719,44.5120735168457 L46.870155334472656,44.49138259887695 L48.07115173339844,44.486846923828125 L49.62778091430664,44.49727249145508 L51.41147994995117,44.49520492553711 L53.285743713378906,44.47492980957031 L55.14700698852539,44.43015670776367 L56.899593353271484,44.373931884765625 L58.46117401123047,44.31271743774414 L59.60825729370117,44.26555633544922 L60.27025604248047,44.23179244995117 M63.989078521728516,42.1054801940918 L63.95102310180664,42.053688049316406 L63.85599899291992,42.0836181640625 L63.679866790771484,42.31074905395508 L63.4200325012207,42.84238052368164 L63.110904693603516,43.695213317871094 L62.82985305786133,44.82328796386719 L62.69089126586914,46.13638687133789 L62.784114837646484,47.5166015625 L63.18367385864258,48.822776794433594 L63.94386672973633,49.908756256103516 L65.05731201171875,50.63359069824219 L66.4883804321289,50.89439392089844 L68.14488220214844,50.64921569824219 L69.87916564941406,49.906959533691406 L71.52887725830078,48.74174499511719 L72.9802474975586,47.274391174316406 L74.12362670898438,45.645172119140625 L74.94119262695312,44.02360153198242 L75.44136047363281,42.59086227416992 L75.70085144042969,41.47138214111328 L75.78245544433594,40.74555206298828 L75.77761840820312,40.437583923339844 L75.75309753417969,40.546077728271484 L75.76887512207031,41.075347900390625 L75.83937072753906,42.022830963134766 L76.00653076171875,43.3070068359375 L76.24143981933594,44.78256607055664 L76.55162048339844,46.26755142211914 L76.93031311035156,47.592933654785156 L77.35162353515625,48.64101028442383 L77.70539855957031,49.32368469238281 L77.94441223144531,49.66796875 M81.08641052246094,40.3163948059082 L81.18827819824219,40.27921676635742 L81.35797119140625,40.35578155517578 L81.55947875976562,40.664005279541016 L81.72346496582031,41.30731201171875 L81.80230712890625,42.29042434692383 L81.76870727539062,43.550071716308594 L81.62628173828125,44.965797424316406 L81.40974426269531,46.38148498535156 L81.170166015625,47.63013458251953 L80.95378112792969,48.5771598815918 L80.78604125976562,49.13135528564453 L80.69868469238281,49.2562255859375 L80.69515991210938,48.93730926513672 L80.7950439453125,48.174076080322266 L81.02638244628906,47.025428771972656 L81.3914794921875,45.602195739746094 L81.88200378417969,44.04585266113281 L82.50166320800781,42.512027740478516 L83.24559020996094,41.12208938598633 L84.12834167480469,39.958736419677734 L85.15840148925781,39.08772277832031 L86.320556640625,38.560089111328125 L87.59024047851562,38.411930084228516 L88.89788818359375,38.65415573120117 L90.15882873535156,39.26512145996094 L91.28207397460938,40.19719314575195 L92.18678283691406,41.378780364990234 L92.825927734375,42.716827392578125 L93.21694946289062,44.115631103515625 L93.39788818359375,45.46466827392578 L93.43540954589844,46.65924072265625 L93.44044494628906,47.592933654785156 L93.51531982421875,48.19953918457031 L93.71182250976562,48.46531295776367 L93.95480346679688,48.50129699707031 L94.15939331054688,48.435829162597656 M97.34539794921875,46.296199798583984 L97.59205627441406,46.22697067260742 L98.08627319335938,46.05032730102539 L98.85354614257812,45.7281379699707 L99.8314208984375,45.24510955810547 L100.95362854003906,44.612579345703125 L102.11343383789062,43.845977783203125 L103.18281555175781,42.979732513427734 L104.03536987304688,42.05005645751953 L104.57656860351562,41.11366653442383 L104.75494384765625,40.228065490722656 L104.56211853027344,39.47228240966797 L104.005859375,38.90736389160156 L103.11454772949219,38.60905456542969 L101.9512939453125,38.63025665283203 L100.63020324707031,39.01154708862305 L99.30638122558594,39.748008728027344 L98.16011047363281,40.79814910888672 L97.34609985351562,42.0609245300293 L96.98381042480469,43.419742584228516 L97.1419677734375,44.73594665527344 L97.85441589355469,45.8878288269043 L99.10218811035156,46.77006149291992 L100.82806396484375,47.31394958496094 L102.948486328125,47.47002029418945 L105.26728820800781,47.26542282104492 L107.53981018066406,46.78639602661133 L109.29582214355469,46.27947235107422 L110.33595275878906,45.91203689575195 M110.76368713378906,38.436397552490234 L110.83686828613281,38.44172668457031 L110.97785949707031,38.586368560791016 L111.17800903320312,38.9804573059082 L111.39248657226562,39.69114303588867 L111.59100341796875,40.686031341552734 L111.77059936523438,41.858089447021484 L111.95640563964844,43.08162307739258 L112.154052734375,44.214820861816406 L112.35316467285156,45.14693069458008 L112.50955200195312,45.78692626953125 L112.59713745117188,46.07631301879883 L112.60833740234375,45.97114181518555 L112.58509826660156,45.46942138671875 L112.56596374511719,44.599220275878906 L112.59710693359375,43.46055221557617 L112.71650695800781,42.16507339477539 L112.96662902832031,40.81749725341797 L113.38533020019531,39.502967834472656 L114.02127075195312,38.27885055541992 L114.90554809570312,37.21186065673828 L116.04391479492188,36.37895965576172 L117.41694641113281,35.8399543762207 L118.95979309082031,35.62376022338867 L120.59762573242188,35.74351119995117 L122.21493530273438,36.165252685546875 L123.71357727050781,36.85465621948242 L125.00592041015625,37.76496505737305 L126.03034973144531,38.83697509765625 L126.74923706054688,39.99628448486328 L127.19648742675781,41.169063568115234 L127.41519165039062,42.26520919799805 L127.51591491699219,43.21571731567383 L127.61521911621094,43.99087142944336 L127.72344970703125,44.518619537353516 L127.82107543945312,44.805641174316406 " fill="none" stroke="black" stroke-linecap="round" stroke-width="2" /></svg>