<?xml version="1.0" encoding="utf-8" ?>
<svg baseProfile="full" height="100%" version="1.1" viewBox="0,0,180,60" width="100%" xmlns="http://www.w3.org/2000/svg" xmlns:ev="http://www.w3.org/2001/xml-events" xmlns:xlink="http://www.w3.org/1999/xlink"><defs /><path d="M0,0 M67.58042907714844,28.71030616760254 L67.63658905029297,28.255878448486328 L67.6136474609375,27.48809242248535 L67.40110778808594,26.498031616210938 L66.86363220214844,25.471698760986328 L65.93460083007812,24.501121520996094 L64.59584045410156,23.669082641601562 L62.880882263183594,23.039958953857422 L60.86304473876953,22.703418731689453 L58.698951721191406,22.75086212158203 L56.568870544433594,23.211973190307617 L54.669734954833984,24.080902099609375 L53.19860076904297,25.306556701660156 L52.280792236328125,26.773324966430664 L52.00822448730469,28.33355712890625 L52.42007064819336,29.803674697875977 L53.494789123535156,30.981990814208984 L55.14221954345703,31.721925735473633 L57.231956481933594,31.967708587646484 L59.548583984375,31.727014541625977 L61.86341857910156,31.07663917541504 L63.95261764526367,30.124032974243164 L65.63955688476562,28.989465713500977 L66.81481170654297,27.825979232788086 L67.49470520019531,26.77754020690918 L67.73802185058594,25.947994232177734 L67.65292358398438,25.422109603881836 L67.369384765625,25.25432777404785 L67.0038070678711,25.493492126464844 L66.63818359375,26.180784225463867 L66.40052032470703,27.308605194091797 L66.3634033203125,28.81437110900879 L66.57846069335938,30.61747169494629 L67.07063293457031,32.614261627197266 L67.78797912597656,34.709957122802734 L68.61687469482422,36.81409454345703 L69.45755004882812,38.85663604736328 L70.16667175292969,40.76716232299805 L70.62783813476562,42.49771499633789 L70.7448501586914,44.001747131347656 L70.42497253417969,45.22620391845703 L69.61337280273438,46.12464141845703 L68.31678771972656,46.674869537353516 L66.59346771240234,46.86100387573242 L64.58853149414062,46.68978500366211 L62.485069274902344,46.19001770019531 L60.48664855957031,45.40959167480469 L58.757598876953125,44.42401123046875 L57.46757125854492,43.25984573364258 L56.71449279785156,41.97230529785156 L56.50330352783203,40.62518310546875 L56.618003845214844,39.51411819458008 L56.837135314941406,38.80118179321289 M75.88825225830078,31.328149795532227 L76.18746948242188,31.369565963745117 L76.81132507324219,31.393285751342773 L77.8008041381836,31.34290313720703 L79.08417510986328,31.140287399291992 L80.59291076660156,30.76075553894043 L82.21517181396484,30.19091033935547 L83.81640625,29.462162017822266 L85.25665283203125,28.623634338378906 L86.39581298828125,27.71982192993164 L87.1133041381836,26.780044555664062 L87.36111450195312,25.86738395690918 L87.10470581054688,25.032806396484375 L86.35617065429688,24.363861083984375 L85.15072631835938,23.96053695678711 L83.57817077636719,23.894710540771484 L81.76791381835938,24.19318389892578 L79.90444946289062,24.858139038085938 L78.16645050048828,25.828147888183594 L76.73236846923828,27.030420303344727 L75.73837280273438,28.379823684692383 L75.29572296142578,29.784873962402344 L75.47441101074219,31.131874084472656 L76.31068420410156,32.316192626953125 L77.78135681152344,33.23768997192383 L79.79220581054688,33.838233947753906 L82.18490600585938,34.09589385986328 L84.74738311767578,34.04705047607422 L87.29246520996094,33.67967224121094 L89.63479614257812,33.026676177978516 L91.62814331054688,32.15682601928711 L93.02643585205078,31.351734161376953 L93.79932403564453,30.792497634887695 M94.06639862060547,25.295358657836914 L94.06265258789062,25.294343948364258 L94.0608901977539,25.431886672973633 L94.0369644165039,25.814434051513672 L93.98937225341797,26.523813247680664 L93.90055084228516,27.530792236328125 L93.78638458251953,28.753026962280273 L93.6601791381836,30.042707443237305 L93.55437469482422,31.270465850830078 L93.4559555053711,32.277435302734375 L93.38304901123047,32.945472717285156 L93.33972930908203,33.18963623046875 L93.35608673095703,32.984535217285156 L93.45310974121094,32.328582763671875 L93.66141510009766,31.2963809967041 L93.98070526123047,29.982046127319336 L94.4110336303711,28.512298583984375 L94.9739761352539,27.020627975463867 L95.68961334228516,25.625717163085938 L96.568115234375,24.405078887939453 L97.62313079833984,23.436485290527344 L98.84178161621094,22.786561965942383 L100.16827392578125,22.5 L101.55000305175781,22.602073669433594 L102.90196990966797,23.09004783630371 L104.13751220703125,23.922245025634766 L105.17115020751953,25.036832809448242 L105.94207763671875,26.354293823242188 L106.40401458740234,27.76613998413086 L106.5748519897461,29.17030906677246 L106.51734924316406,30.481184005737305 L106.34960174560547,31.629304885864258 L106.1698989868164,32.556976318359375 L106.05825805664062,33.236663818359375 L106.01792907714844,33.64625930786133 L106.02264404296875,33.83264923095703 M110.47602081298828,32.184547424316406 L110.9156494140625,32.09458541870117 L111.70476531982422,31.891759872436523 L112.79499053955078,31.552202224731445 L114.02037048339844,31.073657989501953 L115.282470703125,30.47250747680664 L116.48172760009766,29.762630462646484 L117.52185821533203,28.968612670898438 L118.30252838134766,28.116918563842773 L118.70736694335938,27.253440856933594 L118.6669921875,26.426597595214844 L118.15223693847656,25.724445343017578 L117.18616485595703,25.240310668945312 L115.84085845947266,25.050830841064453 L114.26163482666016,25.2015323638916 L112.620361328125,25.692245483398438 L111.11956787109375,26.477306365966797 L109.9346694946289,27.496414184570312 L109.2122573852539,28.68928337097168 L109.04175567626953,29.96462631225586 L109.49012756347656,31.226648330688477 L110.57150268554688,32.37215042114258 L112.21727752685547,33.31000900268555 L114.26803588867188,33.98164367675781 L116.55549621582031,34.34873962402344 L118.84532165527344,34.40864562988281 L120.94634246826172,34.207550048828125 L122.50720977783203,33.917633056640625 L123.41353607177734,33.674957275390625 M125.4058609008789,25.96125602722168 L125.43042755126953,25.96807861328125 L125.48359680175781,26.093780517578125 L125.58399200439453,26.450801849365234 L125.72146606445312,27.127521514892578 L125.8839340209961,28.135007858276367 L126.09818267822266,29.410715103149414 L126.39717864990234,30.858787536621094 L126.8245849609375,32.3620491027832 L127.43304443359375,33.79631042480469 L128.20533752441406,35.04019546508789 L129.08444213867188,35.96928787231445 L130.01666259765625,36.46749496459961 L130.94915771484375,36.46869659423828 L131.84954833984375,35.96603775024414 L132.7071990966797,35.015174865722656 L133.483642578125,33.73052215576172 L134.12574768066406,32.233848571777344 L134.5977783203125,30.645004272460938 L134.88088989257812,29.063133239746094 L134.99778747558594,27.600982666015625 L135.01193237304688,26.378677368164062 L134.98886108398438,25.493450164794922 L134.9682159423828,24.978349685668945 L134.96653747558594,24.767736434936523 M137.59872436523438,34.05628204345703 L137.9338836669922,34.12461471557617 L138.58067321777344,34.166255950927734 L139.54310607910156,34.10795593261719 L140.75448608398438,33.896183013916016 L142.14727783203125,33.52155685424805 L143.63235473632812,32.998870849609375 L145.09075927734375,32.34498596191406 L146.3753662109375,31.587116241455078 L147.31869506835938,30.75091552734375 L147.8233184814453,29.91631507873535 L147.78846740722656,29.15117835998535 L147.17324829101562,28.544343948364258 L145.9987335205078,28.18779945373535 L144.35467529296875,28.162782669067383 L142.416015625,28.49768829345703 L140.43995666503906,29.207992553710938 L138.68817138671875,30.24754524230957 L137.40994262695312,31.548877716064453 L136.80767822265625,33.018592834472656 L137.03277587890625,34.52861785888672 L138.18727111816406,35.93336486816406 L140.27911376953125,37.118194580078125 L143.18789672851562,37.999576568603516 L146.71450805664062,38.55869674682617 L150.66729736328125,38.81507873535156 L154.03125,38.870853424072266 L156.26303100585938,38.83238983154297 " fill="none" stroke="black" stroke-linecap="round" stroke-width="2" /></svg>