<?xml version="1.0" encoding="utf-8" ?>
<svg baseProfile="full" height="100%" version="1.1" viewBox="0,0,150,60" width="100%" xmlns="http://www.w3.org/2000/svg" xmlns:ev="http://www.w3.org/2001/xml-events" xmlns:xlink="http://www.w3.org/1999/xlink"><defs /><path d="M0,0 M34.89154815673828,50.11928176879883 L35.1032600402832,49.843441009521484 L35.356178283691406,49.49714660644531 L35.57057189941406,49.187644958496094 M59.47681427001953,22.52608299255371 L59.48866271972656,22.5 L59.51695251464844,22.60529899597168 L59.536949157714844,22.990365982055664 L59.514678955078125,23.798357009887695 L59.405677795410156,25.079418182373047 L59.2044677734375,26.82736587524414 L58.918212890625,28.973909378051758 L58.59756088256836,31.436874389648438 L58.27650833129883,34.100948333740234 L57.978485107421875,36.83490753173828 L57.69375991821289,39.48519515991211 L57.438621520996094,41.91321563720703 L57.19683837890625,43.96813201904297 L56.9792594909668,45.547264099121094 L56.8073616027832,46.58647155761719 L56.714759826660156,47.06316375732422 L56.74380874633789,46.9822883605957 L56.96659851074219,46.38292694091797 L57.42548751831055,45.304744720458984 L58.148799896240234,43.853458404541016 L59.140113830566406,42.1649284362793 L60.37598419189453,40.406272888183594 L61.8022575378418,38.7392692565918 L63.344573974609375,37.30656051635742 L64.90003204345703,36.202049255371094 L66.38436889648438,35.5040168762207 L67.72636413574219,35.24922561645508 L68.87425231933594,35.463294982910156 L69.791015625,36.13750457763672 L70.45484161376953,37.237796783447266 L70.83078002929688,38.689083099365234 L70.95010375976562,40.398712158203125 L70.85604858398438,42.23982238769531 L70.62263488769531,44.06395721435547 L70.33955383300781,45.72157669067383 L70.13980102539062,47.05143737792969 L70.09565734863281,47.93838119506836 L70.26713562011719,48.3680419921875 L70.52944946289062,48.473121643066406 L70.76239013671875,48.41843795776367 M75.35718536376953,45.7054328918457 L75.74533081054688,45.66157913208008 L76.50946044921875,45.504066467285156 L77.66644287109375,45.172828674316406 L79.09664916992188,44.62607192993164 L80.68928527832031,43.87992477416992 L82.30084228515625,42.964359283447266 L83.7772216796875,41.94459915161133 L84.96755981445312,40.88617706298828 L85.73674011230469,39.867000579833984 L85.98930358886719,38.96122741699219 L85.69383239746094,38.25111770629883 L84.86688232421875,37.8077507019043 L83.58135986328125,37.71044921875 L81.96049499511719,38.00382995605469 L80.17477416992188,38.69366455078125 L78.42544555664062,39.73644256591797 L76.92889404296875,41.041893005371094 L75.8545150756836,42.50187301635742 L75.33912658691406,44.01265335083008 L75.46183776855469,45.47576141357422 L76.27607727050781,46.7894287109375 L77.77510070800781,47.85768127441406 L79.87831115722656,48.60033416748047 L82.4166259765625,48.99543762207031 L85.16227722167969,49.07220458984375 L87.86349487304688,48.90361785888672 L90.3424072265625,48.573699951171875 L92.4722900390625,48.113670349121094 L94.16229248046875,47.543060302734375 L95.39726257324219,46.897281646728516 L96.15267944335938,46.3367919921875 L96.50482177734375,45.96159362792969 M110.99882507324219,29.959007263183594 L111.0538330078125,29.159507751464844 L111.02413940429688,27.959951400756836 L110.79124450683594,26.568784713745117 L110.26918029785156,25.332382202148438 L109.45579528808594,24.316364288330078 L108.35507202148438,23.54094123840332 L107.02006530761719,23.026634216308594 L105.49957275390625,22.845170974731445 L103.85008239746094,23.054046630859375 L102.17889404296875,23.69641876220703 L100.59442138671875,24.798980712890625 L99.18370056152344,26.35567283630371 L98.02560424804688,28.348142623901367 L97.14605712890625,30.708477020263672 L96.51509094238281,33.34545135498047 L96.08889770507812,36.14633560180664 L95.8360595703125,38.99081039428711 L95.74015808105469,41.755088806152344 L95.80361938476562,44.32856369018555 L96.00431823730469,46.5952262878418 L96.28483581542969,48.445579528808594 L96.57614135742188,49.81166458129883 L96.79898071289062,50.64616394042969 L96.92396545410156,51.03294372558594 M89.70248413085938,41.08903503417969 L89.82917785644531,41.15027618408203 L90.22309875488281,41.270965576171875 L91.003662109375,41.46163558959961 L92.23207092285156,41.704132080078125 L93.86557006835938,41.978675842285156 L95.81915283203125,42.25487518310547 L97.99615478515625,42.50032043457031 L100.32377624511719,42.67222595214844 L102.65861511230469,42.76154327392578 L104.84971618652344,42.76679992675781 L106.50247192382812,42.730064392089844 L107.4727783203125,42.68956756591797 M107.32862854003906,45.17771911621094 L107.41734313964844,45.15998077392578 L107.71910095214844,45.10066604614258 L108.34017944335938,44.972713470458984 L109.32252502441406,44.75038146972656 L110.61973571777344,44.42085647583008 L112.12550354003906,43.96586227416992 L113.70574951171875,43.39594268798828 L115.21513366699219,42.72056579589844 L116.5013427734375,41.96992111206055 L117.42509460449219,41.184288024902344 L117.8836669921875,40.41514587402344 L117.8028564453125,39.70740509033203 L117.14811706542969,39.13431167602539 L115.93716430664062,38.76137161254883 L114.23652648925781,38.65553665161133 L112.19662475585938,38.85757064819336 L110.05491638183594,39.37765884399414 L108.06513977050781,40.17339324951172 L106.47401428222656,41.18939971923828 L105.45574951171875,42.34083557128906 L105.09002685546875,43.53331756591797 L105.39382934570312,44.670738220214844 L106.34736633300781,45.673885345458984 L107.86045837402344,46.46213912963867 L109.81600952148438,46.995567321777344 L112.04042053222656,47.26441955566406 L114.3392333984375,47.29310607910156 L116.5589599609375,47.0963134765625 L118.56867980957031,46.71299743652344 L120.26029968261719,46.184444427490234 L121.44480895996094,45.68777847290039 L122.09866333007812,45.339778900146484 M123.51420593261719,40.27473449707031 L123.58535766601562,40.29877471923828 L123.6685791015625,40.43537139892578 L123.713623046875,40.775177001953125 L123.67413330078125,41.37794494628906 L123.55081176757812,42.23872375488281 L123.37168884277344,43.29279708862305 L123.19198608398438,44.441551208496094 L123.05459594726562,45.534751892089844 L122.98956298828125,46.42588424682617 L123.02220153808594,47.00242233276367 L123.10493469238281,47.27385711669922 L123.1878662109375,47.33336639404297 M123.82530212402344,28.867015838623047 L123.81132507324219,28.781768798828125 L123.80023193359375,28.694801330566406 L123.79542541503906,28.633440017700195 " fill="none" stroke="black" stroke-linecap="round" stroke-width="2" /></svg>