<?xml version="1.0" encoding="utf-8" ?>
<svg baseProfile="full" height="100%" version="1.1" viewBox="0,0,270,60" width="100%" xmlns="http://www.w3.org/2000/svg" xmlns:ev="http://www.w3.org/2001/xml-events" xmlns:xlink="http://www.w3.org/1999/xlink"><defs /><path d="M0,0 M88.15806579589844,23.209877014160156 L88.14639282226562,23.106237411499023 L88.13201904296875,23.067127227783203 L88.0940933227539,23.22618293762207 L88.03131103515625,23.742807388305664 L87.93131256103516,24.674985885620117 L87.79180145263672,26.034114837646484 L87.6176986694336,27.78628921508789 L87.41462707519531,29.898128509521484 L87.15739440917969,32.299049377441406 L86.85186767578125,34.91974639892578 L86.49729919433594,37.65492248535156 L86.0985336303711,40.374183654785156 L85.6874008178711,42.93012237548828 L85.32199096679688,45.16279602050781 L85.03238677978516,46.93352508544922 L84.8594741821289,48.16075134277344 L84.80722045898438,48.800445556640625 L84.86671447753906,48.85538101196289 L85.06050109863281,48.36580276489258 L85.43279266357422,47.38233184814453 L86.01043701171875,46.01588439941406 L86.82257080078125,44.41306686401367 L87.83888244628906,42.711795806884766 L89.01907348632812,41.03363800048828 L90.31231689453125,39.47254180908203 L91.67816162109375,38.11270523071289 L93.07093811035156,37.06233215332031 L94.45076751708984,36.413787841796875 L95.7452163696289,36.22203063964844 L96.88485717773438,36.48910903930664 L97.7961196899414,37.17554473876953 L98.43705749511719,38.222049713134766 L98.79825592041016,39.56132888793945 L98.92916107177734,41.104942321777344 L98.88543701171875,42.74282455444336 L98.747802734375,44.345184326171875 L98.56909942626953,45.78232192993164 L98.4011001586914,46.947959899902344 L98.28306579589844,47.79738998413086 L98.28683471679688,48.306358337402344 L98.43505096435547,48.49395751953125 L98.7480697631836,48.412750244140625 L99.08338928222656,48.215885162353516 L99.34014892578125,48.026695251464844 M103.4738998413086,46.54222106933594 L103.82048034667969,46.50818634033203 L104.50028228759766,46.386070251464844 L105.52786254882812,46.12144088745117 L106.81568908691406,45.6846923828125 L108.28645324707031,45.087860107421875 L109.81842803955078,44.336265563964844 L111.2861099243164,43.44990539550781 L112.58007049560547,42.47342300415039 L113.59004974365234,41.45729446411133 L114.23613739013672,40.47338104248047 L114.44709777832031,39.60404968261719 L114.17904663085938,38.92534637451172 L113.42969512939453,38.51589584350586 L112.27963256835938,38.446292877197266 L110.85779571533203,38.757843017578125 L109.32706451416016,39.446693420410156 L107.86334991455078,40.46615219116211 L106.62123107910156,41.74468231201172 L105.72413635253906,43.19120407104492 L105.27713775634766,44.706390380859375 L105.34500885009766,46.195899963378906 L105.94481658935547,47.54814147949219 L107.08583068847656,48.662967681884766 L108.72061157226562,49.466365814208984 L110.76703643798828,49.900489807128906 L113.10560607910156,49.96595764160156 L115.57218170166016,49.71455383300781 L118.01918029785156,49.10451126098633 L120.3059310913086,48.14419174194336 L122.30349731445312,46.88003158569336 L123.74422454833984,45.692081451416016 L124.5660400390625,44.854244232177734 M127.4096450805664,24.4003849029541 L127.50296020507812,23.91227149963379 L127.61144256591797,23.34153175354004 L127.66648864746094,22.960643768310547 L127.58741760253906,23.109973907470703 L127.3562240600586,23.88309097290039 L126.9542007446289,25.26418113708496 L126.40918731689453,27.148258209228516 L125.77734375,29.462068557739258 L125.11344909667969,32.0771484375 L124.48997497558594,34.861671447753906 L123.95794677734375,37.68540573120117 L123.53813934326172,40.40190887451172 L123.24739837646484,42.864707946777344 L123.10416412353516,44.94902801513672 L123.07331848144531,46.570884704589844 L123.17438507080078,47.688201904296875 L123.3966293334961,48.3153076171875 L123.73126983642578,48.53263854980469 L124.06373596191406,48.51448440551758 L124.31855773925781,48.41716003417969 M138.67697143554688,43.79642105102539 L138.84259033203125,43.20960235595703 L138.97622680664062,42.26286697387695 L138.93380737304688,41.08463668823242 L138.5581512451172,39.92516326904297 L137.8360595703125,38.869964599609375 L136.8094482421875,38.00782775878906 L135.53578186035156,37.39897918701172 L134.09104919433594,37.12789535522461 L132.56982421875,37.25916290283203 L131.07884216308594,37.811885833740234 L129.76580810546875,38.76786804199219 L128.77310180664062,40.07192611694336 L128.2104034423828,41.61598205566406 L128.1734161376953,43.238037109375 L128.71112060546875,44.74282455444336 L129.82192993164062,45.944923400878906 L131.45379638671875,46.71435546875 L133.45535278320312,46.99018096923828 L135.62103271484375,46.78752899169922 L137.71463012695312,46.17296600341797 L139.51904296875,45.24666213989258 L140.90487670898438,44.13839340209961 L141.82220458984375,42.9940185546875 L142.30198669433594,41.949615478515625 L142.45616149902344,41.12815475463867 L142.40072631835938,40.61431121826172 L142.2413330078125,40.46746063232422 L142.0640869140625,40.724220275878906 L141.91380310058594,41.40655517578125 L141.84823608398438,42.5080680847168 L141.91305541992188,43.99205780029297 L142.14588928222656,45.785675048828125 L142.54220581054688,47.7911262512207 L143.06642150878906,49.8980712890625 L143.64523315429688,51.995445251464844 L144.19683837890625,53.98465347290039 L144.62161254882812,55.78352355957031 L144.85205078125,57.322540283203125 L144.80752563476562,58.540733337402344 L144.45355224609375,59.400821685791016 L143.76473999023438,59.887691497802734 L142.74234008789062,60.0101318359375 L141.4086456298828,59.79890441894531 L139.82546997070312,59.30642318725586 L138.0645294189453,58.600250244140625 L136.2305908203125,57.755645751953125 L134.43646240234375,56.85497283935547 L132.81301879882812,55.93000793457031 L131.4773406982422,55.01850509643555 L130.51565551757812,54.174068450927734 L129.95355224609375,53.535858154296875 L129.71060180664062,53.157432556152344 M155.8673095703125,42.54217529296875 L155.95220947265625,41.996131896972656 L155.95947265625,41.146392822265625 L155.76431274414062,40.13469696044922 L155.2366943359375,39.2306022644043 L154.3499755859375,38.54377746582031 L153.1178436279297,38.156673431396484 L151.6326446533203,38.10190200805664 L150.01705932617188,38.41539764404297 L148.4400177001953,39.08145523071289 L147.067138671875,40.04926300048828 L146.0487060546875,41.23735809326172 L145.50863647460938,42.54064178466797 L145.55810546875,43.83791732788086 L146.26126098632812,45.01021194458008 L147.59120178222656,45.936973571777344 L149.42752075195312,46.519676208496094 L151.55923461914062,46.69754409790039 L153.7730712890625,46.46400451660156 L155.87551879882812,45.86431121826172 L157.69424438476562,44.97637176513672 L159.08914184570312,43.89107894897461 L159.9782257080078,42.709957122802734 L160.31814575195312,41.53965377807617 L160.17991638183594,40.49369430541992 L159.7256622314453,39.67722702026367 L159.14862060546875,39.140785217285156 L158.67041015625,38.865177154541016 L158.39418029785156,38.77196502685547 M169.48175048828125,22.751008987426758 L169.56002807617188,22.589946746826172 L169.61944580078125,22.5 L169.6033477783203,22.652963638305664 L169.490234375,23.245445251464844 L169.33090209960938,24.32176399230957 L169.14886474609375,25.84430503845215 L168.96817016601562,27.725078582763672 L168.77322387695312,29.91259765625 L168.53506469726562,32.31366729736328 L168.25897216796875,34.84733200073242 L167.95516967773438,37.399906158447266 L167.625732421875,39.8611946105957 L167.3163604736328,42.08075714111328 L167.0606689453125,43.94638442993164 L166.88955688476562,45.238441467285156 L166.80575561523438,45.93856430053711 M181.81436157226562,45.335140228271484 L182.01678466796875,44.84192657470703 L182.20944213867188,44.024810791015625 L182.245361328125,42.964866638183594 L181.96859741210938,41.86796569824219 L181.35153198242188,40.828636169433594 L180.42446899414062,39.932308197021484 L179.259521484375,39.258705139160156 L177.9024658203125,38.88966369628906 L176.44100952148438,38.87858200073242 L174.98410034179688,39.2552490234375 L173.6422119140625,40.00539016723633 L172.54425048828125,41.07878875732422 L171.82899475097656,42.37611770629883 L171.59014892578125,43.76179122924805 L171.8958740234375,45.08110046386719 L172.75259399414062,46.19297790527344 L174.09674072265625,46.9815673828125 L175.81231689453125,47.38680648803711 L177.76068115234375,47.372230529785156 L179.76773071289062,46.955047607421875 L181.66659545898438,46.18150329589844 L183.31866455078125,45.14303207397461 L184.62319946289062,43.982635498046875 L185.53781127929688,42.87331008911133 L186.08740234375,41.95967483520508 L186.33331298828125,41.343116760253906 L186.36837768554688,41.06527328491211 L186.29318237304688,41.11961364746094 L186.19186401367188,41.50153350830078 L186.1329345703125,42.1932487487793 L186.1759033203125,43.14541244506836 L186.34872436523438,44.25864028930664 L186.64593505859375,45.387046813964844 L187.02090454101562,46.37109375 L187.35061645507812,47.05268478393555 L187.56216430664062,47.40904235839844 M192.32089233398438,39.8472900390625 L192.3697509765625,39.84378433227539 L192.42465209960938,39.94124221801758 L192.46151733398438,40.23258590698242 L192.44271850585938,40.794185638427734 L192.35714721679688,41.62002944946289 L192.21990966796875,42.654197692871094 L192.05267333984375,43.81534957885742 L191.86416625976562,44.960227966308594 L191.679931640625,45.96141815185547 L191.50711059570312,46.71616744995117 L191.36129760742188,47.150779724121094 L191.252685546875,47.21662521362305 L191.21719360351562,46.90846633911133 L191.29794311523438,46.218040466308594 L191.55075073242188,45.197174072265625 L192.02645874023438,43.94389724731445 L192.750732421875,42.585182189941406 L193.71200561523438,41.24290466308594 L194.87680053710938,40.03390884399414 L196.18560791015625,39.053802490234375 L197.56402587890625,38.37987518310547 L198.93362426757812,38.0616569519043 L200.21160888671875,38.11945343017578 L201.3427734375,38.538089752197266 L202.27871704101562,39.27921676635742 L203.00845336914062,40.30389404296875 L203.5380859375,41.52433776855469 L203.89035034179688,42.87812042236328 L204.11236572265625,44.273704528808594 L204.268310546875,45.61627960205078 L204.37185668945312,46.65328598022461 L204.44015502929688,47.28890609741211 M216.73184204101562,46.75395965576172 L216.861572265625,46.19940948486328 L216.91561889648438,45.31984329223633 L216.73623657226562,44.248104095458984 L216.19439697265625,43.2408332824707 L215.31085205078125,42.389556884765625 L214.1370849609375,41.74195098876953 L212.77963256835938,41.345123291015625 L211.32833862304688,41.26107406616211 L209.87118530273438,41.525169372558594 L208.51846313476562,42.1401481628418 L207.38973999023438,43.03855895996094 L206.60894775390625,44.104461669921875 L206.29522705078125,45.21385192871094 L206.53753662109375,46.206581115722656 L207.36203002929688,46.929935455322266 L208.71112060546875,47.26228332519531 L210.46957397460938,47.1203498840332 L212.48492431640625,46.472591400146484 L214.57763671875,45.329044342041016 L216.5986328125,43.72555160522461 L218.44610595703125,41.72968292236328 L220.03170776367188,39.437808990478516 L221.32272338867188,36.98639678955078 L222.31893920898438,34.52946853637695 L223.01089477539062,32.21747589111328 L223.4305419921875,30.197093963623047 L223.63735961914062,28.591291427612305 L223.65545654296875,27.476533889770508 L223.54617309570312,26.91309356689453 L223.35382080078125,26.945032119750977 L223.091064453125,27.582576751708984 L222.80224609375,28.823287963867188 L222.5323486328125,30.624828338623047 L222.30099487304688,32.88422775268555 L222.14666748046875,35.47500991821289 L222.07330322265625,38.253395080566406 L222.06155395507812,41.04376220703125 L222.10971069335938,43.69590759277344 L222.21926879882812,46.07041931152344 L222.38778686523438,48.06138229370117 L222.60226440429688,49.62498474121094 L222.79702758789062,50.660850524902344 L222.92568969726562,51.20246887207031 " fill="none" stroke="black" stroke-linecap="round" stroke-width="2" /></svg>