<?xml version="1.0" encoding="utf-8" ?>
<svg baseProfile="full" height="100%" version="1.1" viewBox="0,0,210,60" width="100%" xmlns="http://www.w3.org/2000/svg" xmlns:ev="http://www.w3.org/2001/xml-events" xmlns:xlink="http://www.w3.org/1999/xlink"><defs /><path d="M0,0 M74.91993713378906,37.7490234375 L74.94374084472656,37.67399978637695 L74.9613265991211,37.57160568237305 L74.97745513916016,37.50754928588867 L74.98519897460938,37.58756637573242 L75.0086898803711,37.91830062866211 L75.03620147705078,38.5687370300293 L75.04666137695312,39.5461540222168 L75.01638793945312,40.81492233276367 L74.95561218261719,42.28715896606445 L74.87077331542969,43.84760284423828 L74.78961181640625,45.36994934082031 L74.73429107666016,46.708431243896484 L74.72032165527344,47.74040222167969 L74.73893737792969,48.42650604248047 L74.78174591064453,48.789344787597656 L74.85336303710938,48.84457015991211 L74.96540069580078,48.626121520996094 L75.14305114746094,48.14765167236328 L75.33280944824219,47.61518478393555 L75.4809341430664,47.20024871826172 M76.20681762695312,22.75457191467285 L76.18069458007812,22.651535034179688 L76.17525482177734,22.551443099975586 L76.1895523071289,22.5 L76.25048065185547,22.556411743164062 L76.32951354980469,22.691524505615234 L76.45146179199219,22.86825942993164 L76.57704162597656,23.024436950683594 L76.68158721923828,23.130704879760742 M86.05326843261719,25.666099548339844 L86.0,25.475513458251953 L85.93299102783203,25.294246673583984 L85.87235260009766,25.276424407958984 L85.8454818725586,25.622211456298828 L85.81752014160156,26.414756774902344 L85.786865234375,27.681283950805664 L85.7229995727539,29.40041160583496 L85.59575653076172,31.522180557250977 L85.39114379882812,33.94924545288086 L85.10385131835938,36.574893951416016 L84.71824645996094,39.27397155761719 L84.27586364746094,41.9095573425293 L83.80933380126953,44.32501220703125 L83.36595916748047,46.36497497558594 L82.99395751953125,47.8988151550293 L82.7335433959961,48.84315490722656 L82.60870361328125,49.16536331176758 L82.6640625,48.88277053833008 L82.93636322021484,48.02644348144531 L83.45954895019531,46.68803787231445 L84.23731994628906,45.00524139404297 L85.26611328125,43.131107330322266 L86.50357818603516,41.21337127685547 L87.88468933105469,39.37106704711914 L89.33914184570312,37.69393539428711 L90.75553894042969,36.27055740356445 L92.01741027832031,35.16848373413086 L93.03790283203125,34.419349670410156 L93.71885681152344,34.01930618286133 L93.9760971069336,33.94310760498047 L93.7914810180664,34.17832946777344 L93.15182495117188,34.72640609741211 L92.11443328857422,35.58793640136719 L90.79550170898438,36.74734878540039 L89.31980895996094,38.15203094482422 L87.82536315917969,39.715728759765625 L86.47581481933594,41.32631301879883 L85.4296875,42.870513916015625 L84.84162902832031,44.24357986450195 L84.83373260498047,45.36283874511719 L85.46017456054688,46.17177963256836 L86.69629669189453,46.63920593261719 L88.44171905517578,46.7624397277832 L90.54554748535156,46.591094970703125 L92.81306457519531,46.19281768798828 L95.06324005126953,45.64699172973633 L97.15341186523438,45.01634979248047 L98.99456787109375,44.331905364990234 L100.55418395996094,43.59741973876953 L101.82916259765625,42.82270050048828 L102.81129455566406,42.00779342651367 L103.50909423828125,41.169532775878906 L103.92298889160156,40.32647705078125 L104.05268096923828,39.50432205200195 L103.90655517578125,38.735626220703125 L103.474853515625,38.06283187866211 L102.74497985839844,37.53102493286133 L101.74147033691406,37.18965148925781 L100.52496337890625,37.08223342895508 L99.20511627197266,37.23956298828125 L97.91813659667969,37.677486419677734 L96.80247497558594,38.39384078979492 L95.96337127685547,39.35895538330078 L95.47198486328125,40.515106201171875 L95.38485717773438,41.790035247802734 L95.74734497070312,43.08631896972656 L96.5608901977539,44.297237396240234 L97.94540405273438,45.328758239746094 L99.8778076171875,46.09674835205078 L102.21293640136719,46.56422424316406 L104.28810119628906,46.77978515625 L105.68548583984375,46.83395004272461 M118.25119018554688,40.515621185302734 L118.32948303222656,39.9845085144043 L118.34135437011719,39.132232666015625 L118.16897583007812,38.06874084472656 L117.70915222167969,37.02153778076172 L116.95758056640625,36.07915496826172 L115.94322204589844,35.31875991821289 L114.70494079589844,34.81072235107422 L113.2862777709961,34.637847900390625 L111.74889373779297,34.85003662109375 L110.21272277832031,35.46137619018555 L108.83830261230469,36.4364128112793 L107.78518676757812,37.69329833984375 L107.19722747802734,39.118431091308594 L107.15351104736328,40.54159164428711 L107.69392395019531,41.78656005859375 L108.79503631591797,42.70564651489258 L110.35321044921875,43.200157165527344 L112.21012878417969,43.24423599243164 L114.15467834472656,42.867130279541016 L115.9879379272461,42.12500762939453 L117.57887268066406,41.10690689086914 L118.8363265991211,39.9428825378418 L119.71307373046875,38.78303146362305 L120.22427368164062,37.76589584350586 L120.39900970458984,37.003543853759766 L120.34016418457031,36.57255554199219 L120.16017150878906,36.51514434814453 L119.96768951416016,36.874778747558594 L119.84769439697266,37.6668586730957 L119.87371826171875,38.85980987548828 L120.07610321044922,40.39365005493164 L120.47898864746094,42.1951789855957 L121.06034088134766,44.186336517333984 L121.75532531738281,46.30295944213867 L122.47099304199219,48.47136688232422 L123.11568450927734,50.599632263183594 L123.59551239013672,52.58495330810547 L123.86198425292969,54.33256530761719 L123.90084075927734,55.7701301574707 L123.68584442138672,56.852821350097656 L123.20413208007812,57.55302429199219 L122.44627380371094,57.85957336425781 L121.42430877685547,57.78961944580078 L120.18110656738281,57.36966323852539 L118.80065155029297,56.655845642089844 L117.36305236816406,55.72380065917969 L115.95323181152344,54.64160919189453 L114.65882110595703,53.48999786376953 L113.5755615234375,52.3585319519043 L112.77430725097656,51.288490295410156 L112.3013916015625,50.308597564697266 L112.2550048828125,49.40109634399414 L112.66291809082031,48.54273223876953 L113.49968719482422,47.74835205078125 L114.40380859375,47.145774841308594 L115.09342956542969,46.782196044921875 M135.3677978515625,41.479827880859375 L135.4556884765625,41.08146286010742 L135.48341369628906,40.428096771240234 L135.32376098632812,39.589942932128906 L134.8501739501953,38.726478576660156 L134.0116729736328,37.89874267578125 L132.82640075683594,37.17033004760742 L131.34100341796875,36.602474212646484 L129.66079711914062,36.27427291870117 L127.90486145019531,36.24190902709961 L126.22018432617188,36.53307342529297 L124.7352523803711,37.15073013305664 L123.57437133789062,38.06377410888672 L122.82354736328125,39.20003128051758 L122.56963348388672,40.44337844848633 L122.84965515136719,41.64717102050781 L123.67794036865234,42.667320251464844 L125.01834106445312,43.396854400634766 L126.771728515625,43.77546691894531 L128.7745361328125,43.786834716796875 L130.84002685546875,43.451759338378906 L132.78001403808594,42.8170280456543 L134.43283081054688,41.93922805786133 L135.68649291992188,40.87496566772461 L136.5155487060547,39.721588134765625 L136.96066284179688,38.6070671081543 L137.11700439453125,37.660797119140625 L137.12765502929688,36.97929382324219 L137.07781982421875,36.60214614868164 L137.02670288085938,36.52396774291992 L137.03146362304688,36.7537841796875 L137.13290405273438,37.30845260620117 L137.35488891601562,38.17853927612305 L137.74160766601562,39.284446716308594 L138.26837158203125,40.503135681152344 L138.90567016601562,41.702415466308594 L139.63815307617188,42.75902557373047 L140.4256134033203,43.58821105957031 L141.21560668945312,44.152565002441406 L141.85263061523438,44.4561653137207 L142.24948120117188,44.568294525146484 M143.73960876464844,35.99040222167969 L143.75277709960938,35.868568420410156 L143.82505798339844,35.77197265625 L143.9512176513672,35.81513977050781 L144.10592651367188,36.136451721191406 L144.2387237548828,36.78606414794922 L144.29962158203125,37.75418472290039 L144.28952026367188,38.97834014892578 L144.24459838867188,40.33850860595703 L144.18069458007812,41.676246643066406 L144.11843872070312,42.84238815307617 L144.08946228027344,43.714073181152344 L144.1001434326172,44.19819641113281 L144.17697143554688,44.23832702636719 L144.36073303222656,43.808414459228516 L144.67013549804688,42.938236236572266 L145.09498596191406,41.71674346923828 L145.63209533691406,40.27350997924805 L146.26004028320312,38.75325012207031 L146.97137451171875,37.2760124206543 L147.77224731445312,35.955963134765625 L148.65188598632812,34.88496780395508 L149.56353759765625,34.12874984741211 L150.4573974609375,33.73838424682617 L151.2828369140625,33.747596740722656 L151.9939727783203,34.149803161621094 L152.56222534179688,34.923484802246094 L152.95388793945312,36.001617431640625 L153.14674377441406,37.27960205078125 L153.1554412841797,38.62551498413086 L153.03134155273438,39.89052200317383 L152.85440063476562,40.931549072265625 L152.72084045410156,41.625980377197266 L152.7039794921875,41.8920783996582 L152.8713836669922,41.70207595825195 L153.27407836914062,41.0699348449707 L153.94773864746094,40.05858612060547 L154.89675903320312,38.7822380065918 L156.0776824951172,37.37670135498047 L157.403564453125,35.99586868286133 L158.77484130859375,34.78001403808594 L160.07147216796875,33.84129333496094 L161.20974731445312,33.24492645263672 L162.14215087890625,33.02329635620117 L162.8445281982422,33.187740325927734 L163.33401489257812,33.724552154541016 L163.66693115234375,34.61052322387695 L163.85919189453125,35.784053802490234 L163.9638214111328,37.15793228149414 L164.04470825195312,38.59978485107422 L164.1470184326172,39.97401809692383 L164.25543212890625,41.01292419433594 L164.35772705078125,41.6273078918457 M170.9978485107422,36.03028106689453 L170.99627685546875,35.9732666015625 L170.98995971679688,35.98215103149414 L170.97769165039062,36.161067962646484 L170.96200561523438,36.606693267822266 L170.9453125,37.3271369934082 L170.95391845703125,38.267486572265625 L171.00601196289062,39.32523727416992 L171.10775756835938,40.38310623168945 L171.2393798828125,41.3157844543457 L171.3566436767578,41.975345611572266 L171.42730712890625,42.33268356323242 " fill="none" stroke="black" stroke-linecap="round" stroke-width="2" /></svg>