<?xml version="1.0" encoding="utf-8" ?>
<svg baseProfile="full" height="100%" version="1.1" viewBox="0,0,240,60" width="100%" xmlns="http://www.w3.org/2000/svg" xmlns:ev="http://www.w3.org/2001/xml-events" xmlns:xlink="http://www.w3.org/1999/xlink"><defs /><path d="M0,0 M79.71908569335938,35.25209045410156 L79.74329376220703,35.26149368286133 L79.75752258300781,35.32255935668945 L79.75005340576172,35.50524139404297 L79.71754455566406,35.89781188964844 L79.67388916015625,36.593196868896484 L79.60140991210938,37.60727310180664 L79.46627807617188,38.9323844909668 L79.24215698242188,40.499122619628906 L78.949951171875,42.20341873168945 L78.64759826660156,43.91584014892578 L78.3978500366211,45.51298141479492 L78.23321533203125,46.7803955078125 L78.1650619506836,47.570579528808594 L78.17413330078125,47.809635162353516 L78.22015380859375,47.69232940673828 L78.26849365234375,47.45255661010742 M80.94844818115234,26.287429809570312 L80.92676544189453,26.17534637451172 L80.9031753540039,26.07058334350586 L80.87489318847656,26.034767150878906 L80.86134338378906,26.158885955810547 L80.86134338378906,26.434818267822266 L80.8817138671875,26.835092544555664 L80.90818786621094,27.20730209350586 L80.93608093261719,27.47223663330078 M86.18695068359375,36.6787223815918 L86.1973648071289,36.86156463623047 L86.19589233398438,37.281288146972656 L86.17073822021484,38.00311279296875 L86.10580444335938,39.029273986816406 L85.97906494140625,40.327640533447266 L85.79570007324219,41.81893539428711 L85.57698059082031,43.38813781738281 L85.33863067626953,44.87773132324219 L85.12361907958984,46.13414001464844 L84.9608154296875,47.028839111328125 L84.86137390136719,47.47458267211914 L84.83981323242188,47.427242279052734 L84.92312622070312,46.86809158325195 L85.15169525146484,45.82982635498047 L85.56269836425781,44.41539001464844 L86.16590881347656,42.76213455200195 L86.94718933105469,41.01768112182617 L87.8734359741211,39.30965805053711 L88.9289779663086,37.72340774536133 L90.0882568359375,36.3597297668457 L91.32295989990234,35.31765365600586 L92.60204315185547,34.68825149536133 L93.89437103271484,34.529205322265625 L95.17259979248047,34.84925842285156 L96.41607666015625,35.60926818847656 L97.57536315917969,36.74365234375 L98.57294464111328,38.150081634521484 L99.3274154663086,39.71974563598633 L99.77898406982422,41.33804702758789 L99.9388198852539,42.89735794067383 L99.87235260009766,44.30825424194336 L99.72032165527344,45.48131561279297 L99.60342407226562,46.342037200927734 L99.60163879394531,46.86015701293945 L99.677734375,47.0909423828125 L99.77467346191406,47.14046096801758 M114.37196350097656,37.59681701660156 L114.34376525878906,37.14604187011719 L114.15568542480469,36.46711349487305 L113.68102264404297,35.69966125488281 L112.84202575683594,35.0770149230957 L111.66165924072266,34.67676544189453 L110.22142028808594,34.521453857421875 L108.6670150756836,34.591548919677734 L107.18103790283203,34.8886604309082 L105.9469223022461,35.40064239501953 L105.14279174804688,36.11502456665039 L104.881103515625,36.99259567260742 L105.21281433105469,37.975399017333984 L106.12155151367188,39.001426696777344 L107.53839111328125,40.022220611572266 L109.35839080810547,41.008304595947266 L111.4072265625,41.94904708862305 L113.44029998779297,42.827308654785156 L115.19557189941406,43.6250114440918 L116.44857025146484,44.32378005981445 L117.06956481933594,44.91766357421875 L117.05924987792969,45.4085693359375 L116.44696044921875,45.8016357421875 L115.289306640625,46.111717224121094 L113.65258026123047,46.34423065185547 L111.6375503540039,46.501338958740234 L109.40045928955078,46.58000946044922 L107.16466522216797,46.574363708496094 L105.17594146728516,46.46925735473633 L103.65865325927734,46.28129196166992 L102.74217224121094,46.042198181152344 L102.34707641601562,45.8309326171875 L102.27861785888672,45.693084716796875 M120.2894515991211,43.24950408935547 L120.57962036132812,43.25864028930664 L121.15364074707031,43.21574020385742 L122.04955291748047,43.076194763183594 L123.20561218261719,42.79536056518555 L124.57191467285156,42.38179397583008 L126.04515075683594,41.83700942993164 L127.50215911865234,41.18390655517578 L128.81846618652344,40.44668960571289 L129.88046264648438,39.665855407714844 L130.58192443847656,38.87242126464844 L130.8433837890625,38.117828369140625 L130.6084747314453,37.44070053100586 L129.85647583007812,36.907005310058594 L128.62875366210938,36.5919303894043 L127.00868225097656,36.57040023803711 L125.13668823242188,36.878204345703125 L123.18717193603516,37.50554275512695 L121.36185455322266,38.40845489501953 L119.84740447998047,39.523075103759766 L118.80596923828125,40.777259826660156 L118.33959197998047,42.097190856933594 L118.50934600830078,43.39560317993164 L119.33076477050781,44.56593704223633 L120.77200317382812,45.518890380859375 L122.7379150390625,46.1927490234375 L125.09426879882812,46.56522750854492 L127.64988708496094,46.67520523071289 L130.23760986328125,46.544212341308594 L132.67886352539062,46.20145034790039 L134.81393432617188,45.69457244873047 L136.34402465820312,45.205848693847656 L137.20819091796875,44.852882385253906 M144.8843994140625,38.661155700683594 L144.890380859375,38.45465087890625 L144.81321716308594,38.13087844848633 L144.5496826171875,37.74978256225586 L143.9946746826172,37.42417526245117 L143.11415100097656,37.226402282714844 L141.94686889648438,37.21401596069336 L140.5901336669922,37.41154861450195 L139.18310546875,37.82977294921875 L137.8525390625,38.45026397705078 L136.71160888671875,39.24460220336914 L135.8716278076172,40.18760681152344 L135.43893432617188,41.24063491821289 L135.50167846679688,42.34444808959961 L136.1458740234375,43.4224967956543 L137.37722778320312,44.37114715576172 L139.14364624023438,45.096656799316406 L141.34652709960938,45.53044509887695 L143.83071899414062,45.638362884521484 L146.41372680664062,45.44027328491211 L148.96533203125,44.91571807861328 L151.2969970703125,44.07658767700195 L153.2632293701172,42.98051071166992 L154.63534545898438,41.967281341552734 L155.381103515625,41.25893020629883 M156.9306640625,22.565797805786133 L156.8980712890625,22.5 L156.85040283203125,22.600252151489258 L156.78347778320312,23.042421340942383 L156.70379638671875,23.972915649414062 L156.6114501953125,25.383167266845703 L156.4959716796875,27.202699661254883 L156.36813354492188,29.343713760375977 L156.25872802734375,31.72684097290039 L156.1669158935547,34.240814208984375 L156.0872802734375,36.75843048095703 L155.9970703125,39.12226867675781 L155.87777709960938,41.16770553588867 L155.7320556640625,42.75938415527344 L155.58058166503906,43.83663558959961 L155.45907592773438,44.42156219482422 L155.3853759765625,44.648921966552734 M151.82546997070312,36.50346755981445 L151.65196228027344,36.29365158081055 L151.56314086914062,36.02826690673828 L151.75244140625,35.792633056640625 L152.4335174560547,35.68821334838867 L153.65444946289062,35.708553314208984 L155.3778839111328,35.80508041381836 L157.4721221923828,35.91792297363281 L159.81866455078125,36.018287658691406 L162.2108612060547,36.09433364868164 L164.44598388671875,36.15203857421875 L166.12484741210938,36.1968879699707 L167.10882568359375,36.22928237915039 M163.13006591796875,41.62687683105469 L163.55865478515625,41.75260543823242 L164.40118408203125,41.86237335205078 L165.68186950683594,41.8538703918457 L167.28817749023438,41.61906433105469 L169.1216278076172,41.163482666015625 L171.05545043945312,40.52497100830078 L172.925048828125,39.76539611816406 L174.56167602539062,38.9435920715332 L175.79241943359375,38.11001968383789 L176.48202514648438,37.31151580810547 L176.5653076171875,36.615726470947266 L176.04266357421875,36.09796905517578 L174.94573974609375,35.84654235839844 L173.38180541992188,35.937992095947266 L171.50048828125,36.39940643310547 L169.49642944335938,37.20478057861328 L167.60475158691406,38.293296813964844 L166.04119873046875,39.57475662231445 L164.97509765625,40.94962692260742 L164.52969360351562,42.302894592285156 L164.78631591796875,43.512611389160156 L165.76927185058594,44.468177795410156 L167.42626953125,45.100807189941406 L169.71597290039062,45.35292434692383 L172.45333862304688,45.2305908203125 L175.36483764648438,44.80120849609375 L177.75225830078125,44.30841064453125 L179.25729370117188,43.931068420410156 M189.85772705078125,37.37550735473633 L189.87161254882812,37.00457000732422 L189.697265625,36.45673751831055 L189.16769409179688,35.861045837402344 L188.15377807617188,35.41340637207031 L186.69387817382812,35.1734619140625 L184.95211791992188,35.148067474365234 L183.2103271484375,35.29680633544922 L181.75408935546875,35.60053634643555 L180.85546875,36.046024322509766 L180.66976928710938,36.62196350097656 L181.24880981445312,37.30482482910156 L182.5655517578125,38.05288314819336 L184.53973388671875,38.82434844970703 L186.99179077148438,39.59174728393555 L189.69369506835938,40.35643768310547 L192.35348510742188,41.12251281738281 L194.68157958984375,41.85962677001953 L196.4681396484375,42.522056579589844 L197.61355590820312,43.0706787109375 L198.07864379882812,43.49323654174805 L197.8856201171875,43.8199462890625 L197.0762939453125,44.08284378051758 L195.69244384765625,44.29053497314453 L193.80120849609375,44.424354553222656 L191.53518676757812,44.474239349365234 L189.06756591796875,44.43693923950195 L186.5985107421875,44.330772399902344 L184.29730224609375,44.1654167175293 L182.25582885742188,43.95357894897461 L180.50796508789062,43.70240020751953 L179.08969116210938,43.44828796386719 L178.03659057617188,43.229976654052734 L177.37582397460938,43.085880279541016 L177.05792236328125,43.01495361328125 L176.96591186523438,42.99770736694336 " fill="none" stroke="black" stroke-linecap="round" stroke-width="2" /></svg>