<?xml version="1.0" encoding="utf-8" ?>
<svg baseProfile="full" height="100%" version="1.1" viewBox="0,0,270,60" width="100%" xmlns="http://www.w3.org/2000/svg" xmlns:ev="http://www.w3.org/2001/xml-events" xmlns:xlink="http://www.w3.org/1999/xlink"><defs /><path d="M0,0 M81.9468765258789,23.191476821899414 L81.94327545166016,23.069377899169922 L81.96245574951172,22.935373306274414 L82.01978302001953,22.880849838256836 L82.1130142211914,23.02906608581543 L82.21578216552734,23.450246810913086 L82.30178833007812,24.235557556152344 L82.333740234375,25.41732406616211 L82.30641174316406,27.011995315551758 L82.22770690917969,29.003374099731445 L82.106201171875,31.34132957458496 L81.95361328125,33.95978546142578 L81.78367614746094,36.785579681396484 L81.59561157226562,39.69422149658203 L81.39088439941406,42.536224365234375 L81.19618225097656,45.1408805847168 L81.03623962402344,47.33784103393555 L80.93649291992188,49.00129699707031 L80.90361022949219,50.1011962890625 L80.91363525390625,50.686222076416016 L80.91790771484375,50.87874984741211 L80.90814208984375,50.789791107177734 L80.90980529785156,50.48444747924805 L80.97917938232422,49.95811080932617 L81.20231628417969,49.203773498535156 L81.66746520996094,48.215328216552734 L82.41162109375,47.03361892700195 L83.45454406738281,45.71883773803711 L84.79584503173828,44.34184265136719 L86.37154388427734,42.94446563720703 L88.12598419189453,41.583885192871094 L89.99375915527344,40.29890441894531 L91.86495971679688,39.144813537597656 L93.60357666015625,38.17558288574219 L95.08079528808594,37.43101501464844 L96.17340087890625,36.91400909423828 L96.80486297607422,36.60894012451172 L96.94808197021484,36.496910095214844 L96.61082458496094,36.59883117675781 L95.79074096679688,36.94275665283203 L94.54308319091797,37.5753173828125 L92.96630859375,38.49436950683594 L91.17059326171875,39.63991165161133 L89.3223648071289,40.94672393798828 L87.5866470336914,42.328857421875 L86.10619354248047,43.70554733276367 L85.03974914550781,45.02865982055664 L84.49921417236328,46.24251174926758 L84.54468536376953,47.29304504394531 L85.2209701538086,48.15477752685547 L86.4869613647461,48.78490447998047 L88.23757934570312,49.18144607543945 L90.39888763427734,49.3355712890625 L92.79598999023438,49.27150344848633 L95.21575927734375,49.03089141845703 L97.14584350585938,48.75648880004883 L98.33665466308594,48.54219055175781 M110.47607421875,41.09547805786133 L110.35189056396484,40.717689514160156 L110.05624389648438,40.15623092651367 L109.52308654785156,39.5426025390625 L108.72654724121094,39.083038330078125 L107.66255950927734,38.85808563232422 L106.35803985595703,38.918792724609375 L104.85232543945312,39.27651596069336 L103.23601531982422,39.951786041259766 L101.61080169677734,40.942718505859375 L100.11100769042969,42.21052169799805 L98.90093994140625,43.6827507019043 L98.12854766845703,45.25305938720703 L97.89657592773438,46.77837371826172 L98.27293395996094,48.116024017333984 L99.23489379882812,49.12480926513672 L100.70314025878906,49.702667236328125 L102.57955932617188,49.80322265625 L104.69478607177734,49.43620300292969 L106.87161254882812,48.66307067871094 L108.9312744140625,47.57404327392578 L110.71893310546875,46.260948181152344 L112.11802673339844,44.83417892456055 L113.09500122070312,43.43210983276367 L113.65998840332031,42.197296142578125 L113.8759994506836,41.25309753417969 L113.83222198486328,40.673095703125 L113.6351318359375,40.487361907958984 L113.36631774902344,40.698219299316406 L113.09602355957031,41.30577850341797 L112.8870849609375,42.27491760253906 L112.79182434082031,43.51726531982422 L112.87107849121094,44.908409118652344 L113.1611099243164,46.30137252807617 L113.67308044433594,47.5582389831543 L114.37309265136719,48.575965881347656 L115.23435974121094,49.22602844238281 L116.19911193847656,49.435699462890625 L117.20336151123047,49.219940185546875 L118.01927185058594,48.82097625732422 L118.53652954101562,48.45906066894531 M121.10944366455078,39.46784591674805 L121.0313720703125,39.4227180480957 L120.9280014038086,39.53263854980469 L120.79945373535156,39.943336486816406 L120.67660522460938,40.76530456542969 L120.54841613769531,41.9409065246582 L120.43110656738281,43.33974075317383 L120.35035705566406,44.79237747192383 L120.3265380859375,46.13564682006836 L120.33164978027344,47.218021392822266 L120.36468505859375,47.93665313720703 L120.39463806152344,48.201595306396484 L120.43519592285156,47.961448669433594 L120.53334045410156,47.21333312988281 L120.7152099609375,46.012264251708984 L121.0057373046875,44.486541748046875 L121.43318939208984,42.80282974243164 L121.98675537109375,41.117427825927734 L122.66079711914062,39.55860900878906 L123.44964599609375,38.213905334472656 L124.32029724121094,37.144775390625 L125.2419204711914,36.40398406982422 L126.20039367675781,36.009910583496094 L127.18453979492188,35.95320510864258 L128.20159912109375,36.20716857910156 L129.231201171875,36.69007873535156 L130.21551513671875,37.28757858276367 L130.96969604492188,37.80399703979492 L131.42022705078125,38.131103515625 M136.95924377441406,23.491350173950195 L136.99008178710938,23.12330436706543 L137.012939453125,22.716096878051758 L137.00076293945312,22.5 L136.90591430664062,22.739782333374023 L136.72915649414062,23.504440307617188 L136.49612426757812,24.78908920288086 L136.2137908935547,26.519882202148438 L135.91009521484375,28.67068862915039 L135.5930633544922,31.172149658203125 L135.2356414794922,33.91658401489258 L134.83961486816406,36.78486251831055 L134.44091796875,39.63848114013672 L134.080810546875,42.31926727294922 L133.83807373046875,44.68572235107422 L133.7454376220703,46.6197509765625 L133.83302307128906,48.010009765625 L134.08580017089844,48.816505432128906 L134.47561645507812,49.095115661621094 L134.85330200195312,49.05625915527344 L135.12918090820312,48.91011428833008 M149.92626953125,39.07951736450195 L149.87646484375,38.60425567626953 L149.65255737304688,37.87886428833008 L149.12864685058594,37.04976272583008 L148.21121215820312,36.354881286621094 L146.89146423339844,35.88151550292969 L145.2667694091797,35.661224365234375 L143.50030517578125,35.66687774658203 L141.7972869873047,35.870582580566406 L140.3594970703125,36.24089813232422 L139.34600830078125,36.75175857543945 L138.8482666015625,37.40217590332031 L138.92137145996094,38.17827224731445 L139.56875610351562,39.0524787902832 L140.76766967773438,39.98274612426758 L142.44223022460938,40.92885971069336 L144.45751953125,41.87605285644531 L146.60549926757812,42.82087707519531 L148.68231201171875,43.7615852355957 L150.4913330078125,44.67484664916992 L151.895751953125,45.52422332763672 L152.8309326171875,46.27304458618164 L153.2713623046875,46.90296936035156 L153.2060546875,47.399017333984375 L152.67355346679688,47.771873474121094 L151.7049560546875,48.013153076171875 L150.36627197265625,48.12137222290039 L148.77157592773438,48.105743408203125 L147.0474090576172,47.98703384399414 L145.30935668945312,47.77867126464844 L143.6811065673828,47.5139274597168 L142.21038818359375,47.195682525634766 L140.97157287597656,46.822837829589844 L140.04554748535156,46.40835952758789 L139.49850463867188,45.99128723144531 L139.27078247070312,45.65731430053711 L139.25596618652344,45.45708084106445 M156.50831604003906,38.406044006347656 L156.50027465820312,38.500938415527344 L156.4564208984375,38.80827713012695 L156.35113525390625,39.429317474365234 L156.17144775390625,40.397125244140625 L155.9335479736328,41.664546966552734 L155.67691040039062,43.152374267578125 L155.43533325195312,44.742164611816406 L155.26747131347656,46.321102142333984 L155.19451904296875,47.753334045410156 L155.20010375976562,48.91323471069336 L155.24496459960938,49.688751220703125 L155.2864990234375,50.016319274902344 L155.29620361328125,49.86153793334961 L155.28768920898438,49.2314453125 L155.29505920410156,48.18128204345703 L155.32485961914062,46.826568603515625 L155.3995361328125,45.28012466430664 L155.52655029296875,43.654605865478516 L155.72039794921875,42.038055419921875 L156.02008056640625,40.49219512939453 L156.49630737304688,39.093814849853516 L157.18414306640625,37.92109680175781 L158.13385009765625,37.030155181884766 L159.3406982421875,36.45750427246094 L160.7748565673828,36.219932556152344 L162.395263671875,36.29806137084961 L164.13998413085938,36.64218521118164 L165.92489624023438,37.180137634277344 L167.62069702148438,37.808624267578125 L169.07180786132812,38.41956329345703 L170.07891845703125,38.8814811706543 L170.61630249023438,39.148563385009766 M172.09242248535156,37.885528564453125 L172.11105346679688,37.73267364501953 L172.10797119140625,37.57058334350586 L172.04171752929688,37.52166748046875 L171.87872314453125,37.74787521362305 L171.61837768554688,38.33295822143555 L171.2762451171875,39.29542922973633 L170.91958618164062,40.56916427612305 L170.64016723632812,42.06483840942383 L170.52273559570312,43.641258239746094 L170.66221618652344,45.1611442565918 L171.10546875,46.5024299621582 L171.86676025390625,47.544586181640625 L172.93133544921875,48.184906005859375 L174.25367736816406,48.363346099853516 L175.73883056640625,48.04444122314453 L177.3048553466797,47.26414489746094 L178.8486328125,46.108890533447266 L180.27566528320312,44.682044982910156 L181.5040283203125,43.10555648803711 L182.47244262695312,41.513431549072266 L183.14309692382812,40.04562759399414 L183.539794921875,38.82637023925781 L183.73287963867188,37.95308303833008 L183.77880859375,37.4775505065918 L183.73678588867188,37.42747497558594 L183.6375732421875,37.8284912109375 L183.49351501464844,38.69189453125 L183.32437133789062,39.95021438598633 L183.189208984375,41.484046936035156 L183.1060791015625,43.12965393066406 L183.12179565429688,44.72703170776367 L183.2639923095703,46.14350891113281 L183.51095581054688,47.271728515625 L183.80560302734375,48.05958938598633 L184.0907745361328,48.5145263671875 L184.3302459716797,48.62367248535156 L184.56082153320312,48.41740417480469 L184.8528289794922,47.92717361450195 L185.14419555664062,47.375492095947266 L185.3728485107422,46.94647979736328 M189.7086944580078,24.22337532043457 L189.7587127685547,24.21661376953125 L189.82095336914062,24.38884925842285 L189.8783721923828,24.893802642822266 L189.89501953125,25.839794158935547 L189.857421875,27.215972900390625 L189.78717041015625,28.97452163696289 L189.70858764648438,31.0310001373291 L189.63914489746094,33.29686737060547 L189.60064697265625,35.66363525390625 L189.58270263671875,38.0089225769043 L189.552001953125,40.21324157714844 L189.49093627929688,42.172122955322266 L189.40365600585938,43.77511215209961 L189.3040771484375,44.953453063964844 L189.2192840576172,45.681854248046875 L189.17727661132812,45.96985626220703 L189.19107055664062,45.857364654541016 L189.2863311767578,45.375083923339844 L189.51181030273438,44.53970718383789 L189.91702270507812,43.41606140136719 L190.54071044921875,42.10594177246094 L191.3931884765625,40.71436309814453 L192.43984985351562,39.36137390136719 L193.62738037109375,38.14884567260742 L194.88360595703125,37.15266036987305 L196.14157104492188,36.438079833984375 L197.3467254638672,36.06240463256836 L198.44107055664062,36.05289077758789 L199.37391662597656,36.42211151123047 L200.12020874023438,37.17008972167969 L200.6559295654297,38.251869201660156 L200.9815673828125,39.5762939453125 L201.11935424804688,41.03141784667969 L201.11900329589844,42.49637985229492 L201.0399932861328,43.850006103515625 L200.99195861816406,44.99653625488281 L201.05426025390625,45.857601165771484 L201.26922607421875,46.3985481262207 L201.53228759765625,46.65983581542969 L201.752685546875,46.7381706237793 M204.89920043945312,45.5385627746582 L205.18052673339844,45.33626174926758 L205.73690795898438,44.949859619140625 L206.57693481445312,44.380523681640625 L207.614990234375,43.676090240478516 L208.77003479003906,42.85978317260742 L209.9520263671875,41.94858169555664 L211.03662109375,40.9598274230957 L211.9048614501953,39.937870025634766 L212.43905639648438,38.95097351074219 L212.55352783203125,38.074466705322266 L212.2251739501953,37.393367767333984 L211.4884490966797,37.000709533691406 L210.3893280029297,36.952720642089844 L209.05706787109375,37.291107177734375 L207.647705078125,38.00314712524414 L206.33843994140625,39.03959274291992 L205.32704162597656,40.31884765625 L204.79307556152344,41.75981903076172 L204.8573760986328,43.23784255981445 L205.6387176513672,44.63793182373047 L207.1585693359375,45.83285903930664 L209.3511962890625,46.741878509521484 L212.0575408935547,47.34025192260742 L215.06959533691406,47.654380798339844 L218.20269775390625,47.718441009521484 L220.7610321044922,47.656131744384766 L222.39938354492188,47.55817794799805 " fill="none" stroke="black" stroke-linecap="round" stroke-width="2" /></svg>