<?xml version="1.0" encoding="utf-8" ?>
<svg baseProfile="full" height="100%" version="1.1" viewBox="0,0,180,60" width="100%" xmlns="http://www.w3.org/2000/svg" xmlns:ev="http://www.w3.org/2001/xml-events" xmlns:xlink="http://www.w3.org/1999/xlink"><defs /><path d="M0,0 M51.6602897644043,30.913400650024414 L51.740970611572266,30.940902709960938 L51.833106994628906,31.09379768371582 L51.88706588745117,31.481609344482422 L51.8297119140625,32.196861267089844 L51.63007736206055,33.273284912109375 L51.303707122802734,34.69236373901367 L50.87125015258789,36.39305114746094 L50.370391845703125,38.28807830810547 L49.86621856689453,40.27109146118164 L49.38996887207031,42.17491912841797 L48.97492218017578,43.81654739379883 L48.6519660949707,45.032920837402344 L48.42284393310547,45.70774459838867 L48.291786193847656,45.797664642333984 L48.27734375,45.334503173828125 L48.36878204345703,44.3585319519043 L48.5732307434082,42.959869384765625 L48.897560119628906,41.25629806518555 L49.345130920410156,39.360538482666016 L49.926998138427734,37.38690185546875 L50.651241302490234,35.45296096801758 L51.51702117919922,33.68086242675781 L52.51929473876953,32.204132080078125 L53.641056060791016,31.145540237426758 L54.85400390625,30.562406539916992 L56.13855743408203,30.47116470336914 L57.44273376464844,30.843185424804688 L58.704586029052734,31.651351928710938 L59.82955551147461,32.850608825683594 L60.714908599853516,34.381683349609375 L61.28181457519531,36.130916595458984 L61.51506423950195,37.96989059448242 L61.44417190551758,39.72575378417969 L61.16530990600586,41.2379264831543 L60.780555725097656,42.37162399291992 L60.39601135253906,43.04612731933594 L60.075321197509766,43.225650787353516 L59.860958099365234,42.92904281616211 L59.76983642578125,42.17897415161133 L59.83544921875,41.03160095214844 L60.08345413208008,39.57254409790039 L60.558170318603516,37.9162712097168 L61.27543258666992,36.17890548706055 L62.23845291137695,34.47230529785156 L63.425437927246094,32.887969970703125 L64.81332397460938,31.531845092773438 L66.35066986083984,30.490962982177734 L67.9909896850586,29.844730377197266 L69.66524505615234,29.629606246948242 L71.28421020507812,29.843605041503906 L72.76165771484375,30.463388442993164 L74.01780700683594,31.455551147460938 L74.9913558959961,32.7424201965332 L75.66848754882812,34.24176025390625 L76.06951141357422,35.83961486816406 L76.25128173828125,37.4206657409668 L76.29488372802734,38.89726638793945 L76.25440979003906,40.1917610168457 L76.17698669433594,41.251888275146484 L76.13017272949219,42.04340362548828 L76.16746520996094,42.543182373046875 L76.34085083007812,42.771236419677734 L76.57199096679688,42.82106018066406 L76.76968383789062,42.785125732421875 M92.04359436035156,37.824302673339844 L92.11522674560547,37.305381774902344 L92.14106750488281,36.45756149291992 L92.01522064208984,35.38953399658203 L91.63163757324219,34.33287811279297 L90.9369888305664,33.37387466430664 L89.9329605102539,32.57621383666992 L88.66962432861328,31.99527359008789 L87.18914031982422,31.694292068481445 L85.56259155273438,31.72837257385254 L83.88280487060547,32.126251220703125 L82.2447509765625,32.8638916015625 L80.7938232421875,33.91592788696289 L79.68408203125,35.24857711791992 L79.01412963867188,36.77409362792969 L78.85753631591797,38.377681732177734 L79.229736328125,39.907344818115234 L80.10657501220703,41.191162109375 L81.4415283203125,42.10799789428711 L83.14453125,42.57561111450195 L85.08656311035156,42.56044387817383 L87.10676574707031,42.09254455566406 L89.02957153320312,41.24464416503906 L90.70555114746094,40.10961151123047 L92.02957916259766,38.7975959777832 L92.96713256835938,37.41587448120117 L93.56563568115234,36.08945083618164 L93.88616180419922,34.94630813598633 L94.01349639892578,34.08481216430664 L94.01575469970703,33.560508728027344 L93.94915008544922,33.400672912597656 L93.87257385253906,33.61637878417969 L93.82717895507812,34.21220397949219 L93.82672882080078,35.16971206665039 L93.89456176757812,36.405555725097656 L94.03038024902344,37.79233932495117 L94.26782989501953,39.20146560668945 L94.62598419189453,40.499324798583984 L95.08171081542969,41.575828552246094 L95.4970703125,42.311363220214844 L95.7843246459961,42.698509216308594 M101.26905822753906,32.984622955322266 L101.30682373046875,32.98969650268555 L101.36441802978516,33.130306243896484 L101.41934204101562,33.527015686035156 L101.43121337890625,34.27540588378906 L101.36840057373047,35.37732696533203 L101.24633026123047,36.763362884521484 L101.09256744384766,38.30076599121094 L100.98178100585938,39.82972717285156 L100.96160125732422,41.16410446166992 L101.04154205322266,42.166324615478516 L101.15576934814453,42.765560150146484 L101.2537612915039,43.02589416503906 M101.89897155761719,23.849693298339844 L101.88529205322266,23.5103759765625 L101.87755584716797,23.077133178710938 L101.8768081665039,22.6927490234375 L101.88411712646484,22.5 M116.55938720703125,33.353763580322266 L116.54593658447266,33.11690139770508 L116.3649673461914,32.702178955078125 L115.88226318359375,32.16358184814453 L115.00003814697266,31.633155822753906 L113.7427978515625,31.202404022216797 L112.24482727050781,30.930057525634766 L110.70125579833984,30.830341339111328 L109.36420440673828,30.91946792602539 L108.47038269042969,31.215803146362305 L108.17963409423828,31.726097106933594 L108.54707336425781,32.43638610839844 L109.55488586425781,33.3148193359375 L111.07398986816406,34.30877685546875 L112.94596862792969,35.37451171875 L114.96524047851562,36.47415542602539 L116.9028091430664,37.55951690673828 L118.5296630859375,38.57530975341797 L119.69133758544922,39.476051330566406 L120.2848892211914,40.2181510925293 L120.30545806884766,40.78290939331055 L119.77605438232422,41.17215347290039 L118.73468017578125,41.39583969116211 L117.23091125488281,41.46992874145508 L115.36265563964844,41.414920806884766 L113.25411224365234,41.25151824951172 L111.10612487792969,41.01457977294922 L109.09554290771484,40.73532485961914 L107.44035339355469,40.43545913696289 L106.31596374511719,40.14241409301758 L105.8047103881836,39.87395477294922 L105.72834777832031,39.672550201416016 L105.86558532714844,39.556758880615234 M134.75363159179688,37.598854064941406 L134.6529998779297,37.081363677978516 L134.351318359375,36.29581832885742 L133.77587890625,35.402488708496094 L132.9003448486328,34.668758392333984 L131.74192810058594,34.17793655395508 L130.35357666015625,33.97945785522461 L128.81253051757812,34.06532287597656 L127.23080444335938,34.453514099121094 L125.7741928100586,35.130794525146484 L124.62158203125,36.061279296875 L123.9123306274414,37.16233825683594 L123.75430297851562,38.3266487121582 L124.20889282226562,39.42842102050781 L125.28832244873047,40.34796142578125 L126.94158172607422,40.965171813964844 L129.054443359375,41.215877532958984 L131.43032836914062,41.073673248291016 L133.8373565673828,40.556922912597656 L136.03515625,39.72818374633789 L137.82505798339844,38.67710876464844 L139.07485961914062,37.49946975708008 L139.73883056640625,36.325347900390625 L139.84434509277344,35.26204299926758 L139.46823120117188,34.40721130371094 L138.75234985351562,33.83357620239258 L137.87420654296875,33.55657196044922 L137.1227569580078,33.488792419433594 L136.6493377685547,33.529754638671875 M143.43423461914062,34.28384780883789 L143.43014526367188,34.28071212768555 L143.40792846679688,34.39069366455078 L143.38003540039062,34.7277946472168 L143.34083557128906,35.3846435546875 L143.29470825195312,36.37253952026367 L143.23397827148438,37.61359786987305 L143.1624298095703,38.978641510009766 L143.06301879882812,40.296844482421875 L142.97415161132812,41.41851806640625 L142.88699340820312,42.21654510498047 L142.81396484375,42.62284851074219 L142.75848388671875,42.60246276855469 L142.744873046875,42.162574768066406 L142.78387451171875,41.322967529296875 L142.95010375976562,40.17064666748047 L143.27597045898438,38.80209732055664 L143.81515502929688,37.35259246826172 L144.5902099609375,35.93399429321289 L145.60855102539062,34.63230514526367 L146.86282348632812,33.51239776611328 L148.35037231445312,32.65867614746094 L150.0106964111328,32.12648010253906 L151.77915954589844,31.978755950927734 L153.54595947265625,32.222530364990234 L155.21160888671875,32.82563400268555 L156.69801330566406,33.72000503540039 L157.95079040527344,34.83417510986328 L158.92874145507812,36.074424743652344 L159.64260864257812,37.36919403076172 L160.10923767089844,38.640968322753906 L160.38897705078125,39.82732391357422 L160.54660034179688,40.87946701049805 L160.6533660888672,41.791656494140625 L160.72682189941406,42.451602935791016 L160.7805938720703,42.83970642089844 " fill="none" stroke="black" stroke-linecap="round" stroke-width="2" /></svg>