<?xml version="1.0" encoding="utf-8" ?>
<svg baseProfile="full" height="100%" version="1.1" viewBox="0,0,120,60" width="100%" xmlns="http://www.w3.org/2000/svg" xmlns:ev="http://www.w3.org/2001/xml-events" xmlns:xlink="http://www.w3.org/1999/xlink"><defs /><path d="M0,0 M42.19731521606445,36.806549072265625 L42.293174743652344,36.32990264892578 L42.42292785644531,35.631778717041016 L42.53650665283203,34.85758590698242 L42.58289337158203,34.243736267089844 L42.57910919189453,33.866485595703125 L42.54924011230469,33.80679702758789 L42.520816802978516,34.10731887817383 L42.48491287231445,34.83836364746094 L42.40435028076172,35.99729537963867 L42.249813079833984,37.52294158935547 L42.03248596191406,39.31737518310547 L41.76115036010742,41.270877838134766 L41.49368667602539,43.248451232910156 L41.27880096435547,45.11028289794922 L41.165077209472656,46.70628356933594 L41.18061828613281,47.891597747802734 L41.33203125,48.551231384277344 L41.59716796875,48.62069320678711 L41.97147750854492,48.07966232299805 L42.436065673828125,46.97110366821289 L42.992088317871094,45.41448211669922 L43.63093566894531,43.565948486328125 L44.331214904785156,41.58393096923828 L45.08147430419922,39.59748458862305 L45.88188171386719,37.71171188354492 L46.73316192626953,36.01255416870117 L47.650962829589844,34.595054626464844 L48.613807678222656,33.54399490356445 L49.58592224121094,32.91962432861328 L50.52507781982422,32.741424560546875 L51.38134765625,33.021488189697266 L52.112274169921875,33.732872009277344 L52.695068359375,34.83357238769531 L53.09073257446289,36.24312973022461 L53.28874969482422,37.86310577392578 L53.31330108642578,39.5621337890625 L53.19883728027344,41.191444396972656 L53.012718200683594,42.58656692504883 L52.81731033325195,43.618560791015625 L52.663169860839844,44.19245147705078 L52.57769012451172,44.275794982910156 L52.612281799316406,43.86956787109375 L52.80095672607422,42.9825439453125 L53.19987106323242,41.663883209228516 L53.82177734375,40.02424621582031 L54.66250991821289,38.20981979370117 L55.66327667236328,36.38468933105469 L56.77265167236328,34.70528793334961 L57.93004608154297,33.28547286987305 L59.10591506958008,32.2212028503418 L60.2806282043457,31.595821380615234 L61.43324661254883,31.45809555053711 L62.51915740966797,31.820154190063477 L63.490150451660156,32.66694641113281 L64.27543640136719,33.94028854370117 L64.81185150146484,35.55219650268555 L65.09469604492188,37.38520431518555 L65.15412139892578,39.30244827270508 L65.05331420898438,41.14531707763672 L64.9268798828125,42.72852325439453 L64.87571716308594,43.89598083496094 L64.95831298828125,44.57101821899414 L65.11641693115234,44.83597183227539 L65.27033996582031,44.86122131347656 M71.97504425048828,34.55503463745117 L71.97948455810547,34.523765563964844 L71.97773742675781,34.594417572021484 L71.94737243652344,34.88737487792969 L71.87158203125,35.5213737487793 L71.73892211914062,36.521202087402344 L71.56267547607422,37.8424186706543 L71.37046813964844,39.3701171875 L71.20582580566406,40.96690368652344 L71.10179138183594,42.47029495239258 L71.10182189941406,43.75495910644531 L71.21441650390625,44.72411346435547 L71.4814453125,45.21501159667969 L71.90325927734375,45.1292839050293 L72.4534912109375,44.4584846496582 L72.95889282226562,43.592674255371094 L73.31204223632812,42.87832260131836 M73.84857177734375,23.631359100341797 L73.74925231933594,23.271503448486328 L73.65118408203125,22.84695816040039 L73.58963012695312,22.512771606445312 L73.62269592285156,22.5 L73.73269653320312,22.81800079345703 L73.9149398803711,23.424942016601562 L74.09307861328125,24.038084030151367 L74.23261260986328,24.50021743774414 M88.02018737792969,36.66542053222656 L87.77840423583984,36.39868927001953 L87.2165756225586,36.007301330566406 L86.2378158569336,35.5876579284668 L84.84148406982422,35.27790832519531 L83.12294006347656,35.115509033203125 L81.29634857177734,35.108333587646484 L79.63074493408203,35.229183197021484 L78.39972686767578,35.4585075378418 L77.80890655517578,35.79201126098633 L77.94515228271484,36.221221923828125 L78.82260131835938,36.753971099853516 L80.35965728759766,37.39534378051758 L82.3959732055664,38.12761688232422 L84.73469543457031,38.937931060791016 L87.10946655273438,39.81770706176758 L89.25275421142578,40.721431732177734 L90.94058990478516,41.588462829589844 L92.02710723876953,42.36368942260742 L92.46935272216797,42.99644088745117 L92.29753875732422,43.48008728027344 L91.54633331298828,43.84446334838867 L90.29248046875,44.09822082519531 L88.61801147460938,44.24260330200195 L86.66771697998047,44.29457092285156 L84.61763000488281,44.26206970214844 L82.63719177246094,44.169960021972656 L80.85692596435547,44.046085357666016 L79.43531036376953,43.91069030761719 L78.48053741455078,43.78321838378906 L78.0403823852539,43.68095397949219 L77.96961212158203,43.613075256347656 L78.07390594482422,43.581077575683594 M106.66870880126953,37.85340881347656 L106.63225555419922,37.45237350463867 L106.45748138427734,36.851654052734375 L106.0162124633789,36.16830825805664 L105.22655487060547,35.604705810546875 L104.07268524169922,35.22188186645508 L102.6350326538086,35.074710845947266 L101.0439682006836,35.18232345581055 L99.46146392822266,35.572303771972656 L98.0112533569336,36.234161376953125 L96.83101654052734,37.13821029663086 L96.03650665283203,38.22663497924805 L95.7389907836914,39.43141555786133 L96.04186248779297,40.673789978027344 L97.02942657470703,41.85728073120117 L98.67781829833984,42.88701248168945 L101.02164459228516,43.693599700927734 L104.1226577758789,44.23857879638672 L107.0333023071289,44.534637451171875 L109.1379623413086,44.65082931518555 " fill="none" stroke="black" stroke-linecap="round" stroke-width="2" /></svg>