<?xml version="1.0" encoding="utf-8" ?>
<svg baseProfile="full" height="100%" version="1.1" viewBox="0,0,180,60" width="100%" xmlns="http://www.w3.org/2000/svg" xmlns:ev="http://www.w3.org/2001/xml-events" xmlns:xlink="http://www.w3.org/1999/xlink"><defs /><path d="M0,0 M61.384803771972656,38.355934143066406 L61.37905502319336,38.26610565185547 L61.38209533691406,38.23799133300781 L61.389522552490234,38.41923141479492 L61.39635467529297,38.97787857055664 L61.36677551269531,39.97983169555664 L61.27190399169922,41.416534423828125 L61.076683044433594,43.18120193481445 L60.7911376953125,45.140377044677734 L60.419769287109375,47.136383056640625 L60.015113830566406,48.99802017211914 L59.62388229370117,50.566375732421875 L59.28953552246094,51.717857360839844 L59.0281982421875,52.35560989379883 L58.85961151123047,52.44219970703125 L58.77783966064453,51.9890251159668 L58.80356216430664,51.0305290222168 L58.977638244628906,49.6697998046875 L59.32768249511719,48.03728485107422 L59.861244201660156,46.255802154541016 L60.574703216552734,44.43116760253906 L61.457916259765625,42.646419525146484 L62.48118209838867,40.97200012207031 L63.65324783325195,39.51011657714844 L64.96319580078125,38.3466796875 L66.37731170654297,37.554893493652344 L67.84529113769531,37.17660140991211 L69.31871795654297,37.23072052001953 L70.71792602539062,37.723045349121094 L71.98394775390625,38.633644104003906 L73.05181121826172,39.89656066894531 L73.84138488769531,41.41143798828125 L74.31271362304688,43.06541061401367 L74.48443603515625,44.74717330932617 L74.4220962524414,46.363372802734375 L74.21858215332031,47.817203521728516 L74.0181884765625,49.01878356933594 L73.90718078613281,49.887481689453125 L73.95675659179688,50.41281509399414 L74.09825134277344,50.653926849365234 L74.24805450439453,50.719844818115234 M91.878173828125,46.664276123046875 L92.14793395996094,46.047569274902344 L92.40796661376953,45.05178451538086 L92.50252532958984,43.81137466430664 L92.2541275024414,42.57560729980469 L91.6480941772461,41.41240310668945 L90.71212005615234,40.389869689941406 L89.47017669677734,39.54841613769531 L87.9312744140625,38.98674011230469 L86.18663024902344,38.826717376708984 L84.35617065429688,39.12933349609375 L82.58041381835938,39.89421463012695 L81.04285430908203,41.05647277832031 L79.9006576538086,42.499717712402344 L79.2610855102539,44.069618225097656 L79.18594360351562,45.619422912597656 L79.67756652832031,46.991920471191406 L80.69058227539062,48.05333709716797 L82.16120910644531,48.700408935546875 L83.99988555908203,48.89570617675781 L86.0429458618164,48.63916015625 L88.10746765136719,47.9815788269043 L90.0204849243164,47.02214050292969 L91.64579772949219,45.883426666259766 L92.8951644897461,44.70115280151367 L93.76119995117188,43.626708984375 L94.25938415527344,42.752925872802734 L94.46343994140625,42.137107849121094 L94.46515655517578,41.82796859741211 L94.36367797851562,41.8520393371582 L94.22136688232422,42.245296478271484 L94.10248565673828,43.041019439697266 L94.0529556274414,44.179412841796875 L94.14693450927734,45.54349899291992 L94.42611694335938,46.98885726928711 L94.9126968383789,48.361595153808594 L95.59343719482422,49.48125457763672 L96.41059875488281,50.219600677490234 L97.2791519165039,50.50151443481445 L97.9970474243164,50.467586517333984 L98.44963836669922,50.306793212890625 M106.7591781616211,22.613523483276367 L106.86595916748047,22.5 L107.02448272705078,22.50171661376953 L107.19508361816406,22.804410934448242 L107.31317138671875,23.602861404418945 L107.33786010742188,24.945653915405273 L107.2339096069336,26.784299850463867 L107.01988220214844,29.026123046875 L106.71190643310547,31.575214385986328 L106.34815979003906,34.313873291015625 L105.96426391601562,37.13294219970703 L105.57979583740234,39.90202331542969 L105.20780181884766,42.47121810913086 L104.88846588134766,44.701210021972656 L104.6291275024414,46.4741325378418 L104.4411849975586,47.735836029052734 L104.30448150634766,48.42055892944336 L104.19586944580078,48.53609085083008 L104.1026611328125,48.15851593017578 L104.03675842285156,47.607505798339844 L103.99525451660156,47.13936996459961 M99.15966033935547,39.51311492919922 L98.81950378417969,39.19910430908203 L98.48933410644531,38.8086051940918 L98.40229797363281,38.46165084838867 L98.82197570800781,38.296180725097656 L99.77570343017578,38.286376953125 L101.22959899902344,38.38875198364258 L103.16226196289062,38.555870056152344 L105.44329833984375,38.770938873291016 L107.86766052246094,39.00044631958008 L109.85375213623047,39.18155288696289 L111.09867858886719,39.289695739746094 M114.9879379272461,38.466793060302734 L114.87671661376953,38.41744613647461 L114.67828369140625,38.44560241699219 L114.39676666259766,38.672122955322266 L114.07270050048828,39.21830749511719 L113.73883819580078,40.12852478027344 L113.44039916992188,41.3824577331543 L113.23463439941406,42.90376281738281 L113.20539855957031,44.57955551147461 L113.4474868774414,46.25456619262695 L114.03582000732422,47.76048278808594 L114.99594116210938,48.9453010559082 L116.27102661132812,49.67974090576172 L117.7596664428711,49.89274978637695 L119.34960174560547,49.588539123535156 L120.9364242553711,48.804168701171875 L122.41173553466797,47.613929748535156 L123.7010498046875,46.14175033569336 L124.73494720458984,44.51594924926758 L125.50379180908203,42.912322998046875 L126.04232025146484,41.52154541015625 L126.39163970947266,40.46541976928711 L126.57684326171875,39.8011589050293 L126.63491821289062,39.557979583740234 L126.57415008544922,39.72869110107422 L126.42585754394531,40.337318420410156 L126.21843719482422,41.37470245361328 L125.99275207519531,42.737640380859375 L125.80210876464844,44.27103805541992 L125.69439697265625,45.79131317138672 L125.69929504394531,47.15407943725586 L125.83242797851562,48.277896881103516 L126.10096740722656,49.052677154541016 L126.50279998779297,49.401248931884766 L127.02606964111328,49.316009521484375 L127.5081558227539,49.004066467285156 L127.8458251953125,48.685203552246094 M132.38870239257812,41.35121154785156 L132.367431640625,41.16840744018555 L132.33331298828125,41.00729751586914 L132.27626037597656,41.011863708496094 L132.18734741210938,41.351165771484375 L132.06695556640625,42.06117630004883 L131.90194702148438,43.0977668762207 L131.7000274658203,44.345909118652344 L131.47467041015625,45.676971435546875 L131.24969482421875,46.92110061645508 L131.04307556152344,47.928932189941406 L130.89822387695312,48.623329162597656 L130.8243408203125,48.97352981567383 L130.81309509277344,48.98614501953125 L130.84915161132812,48.664634704589844 L130.95184326171875,48.0128173828125 L131.1333770751953,47.039852142333984 L131.43017578125,45.835899353027344 L131.85870361328125,44.50724792480469 L132.39883422851562,43.155357360839844 L133.03570556640625,41.858909606933594 L133.76995849609375,40.67721176147461 L134.601806640625,39.65443801879883 L135.5203094482422,38.85076904296875 L136.5134735107422,38.30267333984375 L137.5433349609375,38.010982513427734 L138.5907745361328,37.96531677246094 L139.62933349609375,38.125343322753906 L140.67283630371094,38.46924591064453 L141.68780517578125,38.951210021972656 L142.63514709472656,39.51648712158203 L143.35345458984375,40.00217056274414 L143.78265380859375,40.322471618652344 M142.96051025390625,47.294395446777344 L143.26637268066406,47.35536575317383 L143.88958740234375,47.38998794555664 L144.88653564453125,47.32427978515625 L146.23643493652344,47.082916259765625 L147.92294311523438,46.649471282958984 L149.84719848632812,46.02305603027344 L151.85870361328125,45.23163604736328 L153.75515747070312,44.32006072998047 L155.31802368164062,43.33188247680664 L156.37771606445312,42.330299377441406 L156.81640625,41.379844665527344 L156.56228637695312,40.55758285522461 L155.608154296875,39.96779251098633 L154.01144409179688,39.721317291259766 L151.88998413085938,39.88612365722656 L149.45980834960938,40.47993469238281 L147.00106811523438,41.442649841308594 L144.83279418945312,42.68637466430664 L143.25271606445312,44.1131591796875 L142.49464416503906,45.61654281616211 L142.68272399902344,47.08282470703125 L143.84469604492188,48.38902282714844 L145.8800811767578,49.42646408081055 L148.6757354736328,50.14192581176758 L152.1240234375,50.535282135009766 L155.2239990234375,50.688682556152344 L157.37322998046875,50.71057891845703 " fill="none" stroke="black" stroke-linecap="round" stroke-width="2" /></svg>