<?xml version="1.0" encoding="utf-8" ?>
<svg baseProfile="full" height="100%" version="1.1" viewBox="0,0,300,60" width="100%" xmlns="http://www.w3.org/2000/svg" xmlns:ev="http://www.w3.org/2001/xml-events" xmlns:xlink="http://www.w3.org/1999/xlink"><defs /><path d="M0,0 M93.64991760253906,31.769287109375 L93.6624526977539,31.704547882080078 L93.69127655029297,31.7128963470459 L93.72515106201172,31.920562744140625 L93.74542236328125,32.46943664550781 L93.71412658691406,33.40522766113281 L93.60950469970703,34.70188522338867 L93.4061279296875,36.269081115722656 L93.1103744506836,37.974876403808594 L92.74752044677734,39.65512466430664 L92.36363220214844,41.147865295410156 L92.01241302490234,42.33346939086914 L91.74146270751953,43.11391067504883 L91.56732177734375,43.43731689453125 L91.50227355957031,43.28047180175781 L91.54178619384766,42.633628845214844 L91.68257141113281,41.50543212890625 L91.93234252929688,39.99238967895508 L92.29777526855469,38.20405960083008 L92.80091857910156,36.28352355957031 L93.4725341796875,34.36546325683594 L94.32577514648438,32.564735412597656 L95.36227416992188,30.972042083740234 L96.55532836914062,29.68115997314453 L97.87200927734375,28.765859603881836 L99.28134155273438,28.28037452697754 L100.73968505859375,28.243947982788086 L102.18482971191406,28.65171241760254 L103.52515411376953,29.472326278686523 L104.664794921875,30.657617568969727 L105.52865600585938,32.14627456665039 L106.0894775390625,33.842994689941406 L106.35210418701172,35.63530731201172 L106.37184143066406,37.39173889160156 L106.23726654052734,38.99375915527344 L106.04216003417969,40.35420227050781 L105.89872741699219,41.37984085083008 L105.89897155761719,42.01161193847656 L106.06695556640625,42.25059509277344 L106.29818725585938,42.23147201538086 L106.50030517578125,42.113555908203125 M121.99516296386719,35.49640655517578 L122.12506866455078,34.950592041015625 L122.1926040649414,34.07133102416992 L122.04864501953125,32.989585876464844 L121.55580139160156,31.962162017822266 L120.68025970458984,31.093006134033203 L119.45137023925781,30.47096061706543 L117.93565368652344,30.139774322509766 L116.20941162109375,30.16077423095703 L114.37445831298828,30.582645416259766 L112.56544494628906,31.413026809692383 L110.922119140625,32.61764144897461 L109.61575317382812,34.1215705871582 L108.79873657226562,35.80839538574219 L108.5845947265625,37.53546905517578 L109.0224609375,39.146080017089844 L110.07989501953125,40.47252655029297 L111.66360473632812,41.37843322753906 L113.65950012207031,41.791019439697266 L115.88812255859375,41.684417724609375 L118.1595687866211,41.09961700439453 L120.28367614746094,40.1077766418457 L122.06651306152344,38.804283142089844 L123.37893676757812,37.32421875 L124.19245910644531,35.83012390136719 L124.52422332763672,34.46332931518555 L124.4777603149414,33.32997512817383 L124.27479553222656,32.557708740234375 L124.0711441040039,32.14046859741211 M129.9654541015625,31.964107513427734 L129.95851135253906,31.956239700317383 L129.89251708984375,32.05754470825195 L129.7277069091797,32.39187240600586 L129.46151733398438,33.068538665771484 L129.13873291015625,34.1091194152832 L128.85818481445312,35.4554328918457 L128.75296020507812,36.99960708618164 L128.9141845703125,38.58051300048828 L129.41127014160156,40.025699615478516 L130.27713012695312,41.155677795410156 L131.49169921875,41.82902526855469 L133.00103759765625,41.95064926147461 L134.71592712402344,41.509239196777344 L136.49838256835938,40.55663299560547 L138.20143127441406,39.20008850097656 L139.7101287841797,37.572227478027344 L140.96774291992188,35.865116119384766 L141.92959594726562,34.270111083984375 L142.59231567382812,32.94664001464844 L142.98529052734375,32.00411605834961 L143.14071655273438,31.492992401123047 L143.14080810546875,31.42385482788086 L143.08700561523438,31.81342887878418 L143.025390625,32.668697357177734 L143.00335693359375,33.932151794433594 L143.06747436523438,35.47148513793945 L143.22640991210938,37.1077880859375 L143.52935791015625,38.659912109375 L143.98065185546875,39.965084075927734 L144.54147338867188,40.9398193359375 L145.04441833496094,41.537567138671875 L145.388671875,41.81255340576172 M151.225341796875,34.30406951904297 L151.1796417236328,34.24515914916992 L151.11570739746094,34.29377746582031 L151.03213500976562,34.57689666748047 L150.93438720703125,35.20606231689453 L150.80520629882812,36.16415786743164 L150.65615844726562,37.359519958496094 L150.4851531982422,38.62535095214844 L150.3052215576172,39.802146911621094 L150.12118530273438,40.7368049621582 L149.92733764648438,41.31747055053711 L149.73550415039062,41.47869110107422 L149.5621795654297,41.18708801269531 L149.42239379882812,40.43343734741211 L149.33590698242188,39.28086853027344 L149.33258056640625,37.85089111328125 L149.4288787841797,36.29712677001953 L149.66641235351562,34.775333404541016 L150.07586669921875,33.39369201660156 L150.6874542236328,32.219200134277344 L151.50332641601562,31.297409057617188 L152.52993774414062,30.653532028198242 L153.76101684570312,30.295286178588867 L155.16909790039062,30.203420639038086 L156.71578979492188,30.332063674926758 L158.28659057617188,30.60826873779297 L159.72048950195312,30.94613265991211 L160.77017211914062,31.229299545288086 L161.36183166503906,31.402664184570312 M163.24240112304688,32.65923309326172 L163.25079345703125,32.55437469482422 L163.2822723388672,32.489158630371094 L163.32382202148438,32.58417892456055 L163.35595703125,32.985504150390625 L163.35101318359375,33.74443054199219 L163.27685546875,34.835018157958984 L163.1273193359375,36.17121505737305 L162.9167022705078,37.62348175048828 L162.66665649414062,39.0241813659668 L162.4192352294922,40.23381423950195 L162.21791076660156,41.13481903076172 L162.07545471191406,41.628814697265625 L162.00657653808594,41.6693229675293 L161.99966430664062,41.230690002441406 L162.04783630371094,40.33136749267578 L162.13685607910156,39.0637092590332 L162.2495574951172,37.55661392211914 L162.36436462402344,35.94825744628906 L162.49864196777344,34.38259506225586 L162.67532348632812,32.95967483520508 L162.9578857421875,31.76018524169922 L163.41400146484375,30.841596603393555 L164.0919189453125,30.22955322265625 L165.02276611328125,29.928171157836914 L166.21401977539062,29.919673919677734 L167.63442993164062,30.14824676513672 L169.23123168945312,30.54416275024414 L170.91409301757812,31.025367736816406 L172.54379272460938,31.5118408203125 L174.004150390625,31.945127487182617 L175.1957244873047,32.28614044189453 L176.07290649414062,32.5105094909668 L176.6518096923828,32.60970687866211 L176.98886108398438,32.60646057128906 L177.1480712890625,32.5455322265625 L177.21353149414062,32.46544647216797 L177.22491455078125,32.401485443115234 L177.21701049804688,32.388919830322266 L177.2100830078125,32.46547317504883 L177.21328735351562,32.69393539428711 L177.2341766357422,33.14447021484375 L177.26776123046875,33.83505630493164 L177.27162170410156,34.752254486083984 L177.23715209960938,35.856502532958984 L177.1549530029297,37.09090805053711 L177.02951049804688,38.38556671142578 L176.87814331054688,39.66156768798828 L176.72991943359375,40.774024963378906 L176.59536743164062,41.58424758911133 L176.504638671875,42.01069259643555 L176.4591827392578,42.13218688964844 L176.4471435546875,42.087337493896484 M177.78164672851562,22.66162872314453 L177.80343627929688,22.608959197998047 L177.8434600830078,22.553146362304688 L177.88673400878906,22.511165618896484 L177.9182586669922,22.5 M185.52333068847656,23.022642135620117 L185.54995727539062,23.042232513427734 L185.62567138671875,23.193531036376953 L185.75241088867188,23.579017639160156 L185.90139770507812,24.27791976928711 L186.01278686523438,25.29653549194336 L186.01678466796875,26.61406135559082 L185.8942108154297,28.18244743347168 L185.66278076171875,29.95172882080078 L185.36355590820312,31.856769561767578 L185.04580688476562,33.8299674987793 L184.73162841796875,35.77107620239258 L184.42715454101562,37.5903205871582 L184.14117431640625,39.18585968017578 L183.88507080078125,40.492313385009766 L183.68128967285156,41.48070526123047 L183.56454467773438,42.108760833740234 L183.54766845703125,42.34284210205078 L183.62608337402344,42.19952392578125 L183.7355499267578,41.87699890136719 L183.82528686523438,41.56523132324219 M180.62628173828125,33.892822265625 L180.614990234375,33.85380554199219 L180.7065887451172,33.82065963745117 L181.00955200195312,33.81966018676758 L181.63815307617188,33.87096405029297 L182.65335083007812,33.95792770385742 L184.04736328125,34.04070281982422 L185.75506591796875,34.08268356323242 L187.71612548828125,34.06784439086914 L189.78109741210938,33.99949264526367 L191.78659057617188,33.89695358276367 L193.343017578125,33.803932189941406 L194.27874755859375,33.741764068603516 M198.78167724609375,33.34402847290039 L198.6607666015625,33.18547439575195 L198.42041015625,33.02363967895508 L198.04437255859375,32.96932601928711 L197.56591796875,33.16361618041992 L197.0330810546875,33.65251159667969 L196.50933837890625,34.43696975708008 L196.04025268554688,35.47257995605469 L195.68316650390625,36.69496154785156 L195.4781494140625,37.99880599975586 L195.47628784179688,39.28093719482422 L195.72372436523438,40.424766540527344 L196.2474365234375,41.33252716064453 L197.0465087890625,41.912498474121094 L198.11190795898438,42.09874725341797 L199.3984375,41.865509033203125 L200.84881591796875,41.245147705078125 L202.373779296875,40.29371643066406 L203.87191772460938,39.10634231567383 L205.26181030273438,37.78181076049805 L206.49002075195312,36.44704818725586 L207.48294067382812,35.2229118347168 L208.20431518554688,34.2261962890625 L208.644775390625,33.534175872802734 L208.829833984375,33.20016098022461 L208.81719970703125,33.23591995239258 L208.6763916015625,33.65467834472656 L208.43313598632812,34.41623306274414 L208.1375732421875,35.45451354980469 L207.859130859375,36.66175842285156 L207.68197631835938,37.930946350097656 L207.64785766601562,39.14853286743164 L207.79693603515625,40.22179412841797 L208.10592651367188,41.061546325683594 L208.53350830078125,41.626502990722656 L208.9322509765625,41.92500305175781 L209.21591186523438,42.03432083129883 M214.46209716796875,33.4316520690918 L214.478271484375,33.38727951049805 L214.4969482421875,33.42870330810547 L214.50265502929688,33.66154861450195 L214.47808837890625,34.2028923034668 L214.40386962890625,35.08030319213867 L214.27975463867188,36.23148727416992 L214.10299682617188,37.54464340209961 L213.9071044921875,38.87525939941406 L213.71578979492188,40.049198150634766 L213.56158447265625,40.95953369140625 L213.45773315429688,41.526275634765625 L213.43359375,41.700531005859375 L213.5069580078125,41.471961975097656 L213.71890258789062,40.846500396728516 L214.0628662109375,39.845008850097656 L214.52090454101562,38.5584716796875 L215.05401611328125,37.09211730957031 L215.65243530273438,35.5640983581543 L216.30337524414062,34.09872817993164 L216.99725341796875,32.813804626464844 L217.69268798828125,31.80152130126953 L218.3585205078125,31.149160385131836 L218.973876953125,30.903409957885742 L219.57705688476562,31.08074378967285 L220.18930053710938,31.62057876586914 L220.79153442382812,32.386470794677734 L221.26837158203125,33.087337493896484 L221.56134033203125,33.55012130737305 M222.36151123046875,38.84117889404297 L222.52984619140625,38.830501556396484 L222.97488403320312,38.75267791748047 L223.80755615234375,38.55550765991211 L225.05886840820312,38.206016540527344 L226.65792846679688,37.70435333251953 L228.47293090820312,37.05302429199219 L230.32638549804688,36.26868438720703 L232.0357666015625,35.38018798828125 L233.43988037109375,34.42387390136719 L234.42263793945312,33.46367263793945 L234.88174438476562,32.57845687866211 L234.7564697265625,31.853952407836914 L234.02188110351562,31.392139434814453 L232.72219848632812,31.295257568359375 L230.9842529296875,31.615428924560547 L229.03118896484375,32.351844787597656 L227.13613891601562,33.44268798828125 L225.57049560546875,34.78719711303711 L224.56594848632812,36.27427291870117 L224.28585815429688,37.79309844970703 L224.82086181640625,39.23011016845703 L226.1939697265625,40.478782653808594 L228.33932495117188,41.4543571472168 L231.17410278320312,42.10687255859375 L234.62710571289062,42.43275451660156 L237.7181396484375,42.52593994140625 L239.85882568359375,42.50235366821289 " fill="none" stroke="black" stroke-linecap="round" stroke-width="2" /></svg>