<?xml version="1.0" encoding="utf-8" ?>
<svg baseProfile="full" height="100%" version="1.1" viewBox="0,0,210,60" width="100%" xmlns="http://www.w3.org/2000/svg" xmlns:ev="http://www.w3.org/2001/xml-events" xmlns:xlink="http://www.w3.org/1999/xlink"><defs /><path d="M0,0 M77.53794860839844,41.378360748291016 L77.66024017333984,40.8985595703125 L77.7852783203125,40.1047248840332 L77.80995178222656,39.08667755126953 L77.58790588378906,38.03495788574219 L77.02513122558594,37.015499114990234 L76.05083465576172,36.092288970947266 L74.6514663696289,35.33084487915039 L72.858642578125,34.82548904418945 L70.7813949584961,34.67420196533203 L68.57002258300781,34.93769073486328 L66.3989486694336,35.619632720947266 L64.4390869140625,36.676124572753906 L62.87281036376953,38.02713394165039 L61.84699249267578,39.55281066894531 L61.502281188964844,41.12840270996094 L61.926597595214844,42.63158416748047 L63.119056701660156,43.927486419677734 L64.98658752441406,44.894493103027344 L67.35404205322266,45.44736862182617 L69.9554443359375,45.55043411254883 L72.5418472290039,45.2281379699707 L74.89321899414062,44.55741500854492 L76.8416976928711,43.60823059082031 L78.30818939208984,42.445369720458984 L79.28347778320312,41.14482116699219 L79.80433654785156,39.80318069458008 L79.96004486083984,38.53193283081055 L79.87117767333984,37.472076416015625 L79.66867065429688,36.72071075439453 L79.48261260986328,36.313232421875 L79.37272644042969,36.17207336425781 L79.34112548828125,36.17828369140625 M85.75749969482422,37.315311431884766 L85.7535400390625,37.20188522338867 L85.74576568603516,37.0911750793457 L85.73442840576172,37.091163635253906 L85.72728729248047,37.33369064331055 L85.71685791015625,37.87727355957031 L85.6886215209961,38.71762466430664 L85.63313293457031,39.80004119873047 L85.566650390625,41.05113983154297 L85.50629425048828,42.37859344482422 L85.4928207397461,43.67072296142578 L85.53863525390625,44.83058547973633 L85.65471649169922,45.67741394042969 L85.84008026123047,46.071075439453125 L86.08563232421875,45.957855224609375 L86.30866241455078,45.58137130737305 L86.46513366699219,45.18659210205078 M86.06114196777344,24.248676300048828 L85.7806396484375,23.799835205078125 L85.43647003173828,23.235931396484375 L85.14069366455078,22.741233825683594 L85.00534057617188,22.5 M101.22225952148438,35.173667907714844 L100.99396514892578,34.964359283447266 L100.45575714111328,34.62921142578125 L99.53450012207031,34.25495147705078 L98.24475860595703,33.97378158569336 L96.67937469482422,33.8626708984375 L95.0081558227539,33.93416976928711 L93.41329956054688,34.151466369628906 L92.0918197631836,34.490360260009766 L91.2267837524414,34.94469451904297 L90.93207550048828,35.50587844848633 L91.28411102294922,36.17344284057617 L92.30594635009766,36.925498962402344 L93.92611694335938,37.74026870727539 L96.02682495117188,38.621307373046875 L98.41166687011719,39.56156539916992 L100.84464263916016,40.54466247558594 L103.07726287841797,41.53382873535156 L104.91228485107422,42.47156524658203 L106.20851135253906,43.30134201049805 L106.90771484375,43.98994445800781 L106.99286651611328,44.52039337158203 L106.49695587158203,44.89537048339844 L105.45242309570312,45.13071060180664 L103.92901611328125,45.22900390625 L102.04110717773438,45.19889450073242 L99.93307495117188,45.05060577392578 L97.75799560546875,44.81453323364258 L95.67564392089844,44.515140533447266 L93.81584167480469,44.19258499145508 L92.28353881835938,43.86454391479492 L91.12303924560547,43.541900634765625 L90.45660400390625,43.208587646484375 L90.34976196289062,42.86897277832031 L90.81327819824219,42.51625061035156 L91.49917602539062,42.22634506225586 L92.10633850097656,42.04047393798828 M110.6071548461914,42.5624885559082 L110.69629669189453,42.5726318359375 L110.98382568359375,42.52815246582031 L111.5879898071289,42.367889404296875 L112.5701675415039,42.027896881103516 L113.91252899169922,41.49519348144531 L115.5002212524414,40.783939361572266 L117.18052673339844,39.93534469604492 L118.78132629394531,38.99454879760742 L120.1507797241211,38.013648986816406 L121.15715026855469,37.027706146240234 L121.7215805053711,36.09542465209961 L121.7813720703125,35.26860046386719 L121.319091796875,34.61506652832031 L120.3541488647461,34.20541763305664 L118.95403289794922,34.101219177246094 L117.22501373291016,34.322601318359375 L115.33159637451172,34.86455535888672 L113.45342254638672,35.691776275634766 L111.77144622802734,36.74660873413086 L110.45402526855469,37.966514587402344 L109.6502685546875,39.28356170654297 L109.46849060058594,40.605918884277344 L109.96224975585938,41.8275146484375 L111.14313507080078,42.86688995361328 L112.95074462890625,43.65122985839844 L115.24760437011719,44.157386779785156 L117.86369323730469,44.40928268432617 L120.61598205566406,44.434932708740234 L123.25165557861328,44.278587341308594 L125.56938171386719,44.00941848754883 L127.22909545898438,43.74318313598633 L128.14743041992188,43.555999755859375 M136.6791229248047,39.29001235961914 L136.60696411132812,38.86000061035156 L136.45306396484375,38.19179916381836 L136.1557159423828,37.39829635620117 L135.67111206054688,36.68999099731445 L134.92373657226562,36.13238525390625 L133.90072631835938,35.778892517089844 L132.62908935546875,35.666160583496094 L131.19528198242188,35.851139068603516 L129.68338012695312,36.35971450805664 L128.25613403320312,37.197425842285156 L127.049072265625,38.29274368286133 L126.22016906738281,39.54515075683594 L125.8902816772461,40.82099533081055 L126.14366912841797,41.99048614501953 L126.96048736572266,42.921295166015625 L128.3187713623047,43.537872314453125 L130.09115600585938,43.7794189453125 L132.102294921875,43.64003372192383 L134.15762329101562,43.1330680847168 L136.09109497070312,42.31715774536133 L137.74453735351562,41.257511138916016 L139.0577392578125,40.06014633178711 L140.00267028808594,38.83966064453125 L140.5860595703125,37.729820251464844 L140.87974548339844,36.82884979248047 L140.97727966308594,36.20608139038086 L140.9429931640625,35.88999938964844 L140.83456420898438,35.89895248413086 L140.68106079101562,36.25274658203125 L140.48440551757812,36.974037170410156 L140.30364990234375,38.026939392089844 L140.212890625,39.321170806884766 L140.29339599609375,40.71802520751953 L140.614990234375,42.05854797363281 L141.2176971435547,43.20446014404297 L142.12286376953125,44.0067024230957 L143.29495239257812,44.37062072753906 L144.6331787109375,44.29249572753906 L145.78024291992188,43.993961334228516 L146.52615356445312,43.688514709472656 M148.2039031982422,35.740135192871094 L148.17437744140625,35.679237365722656 L148.11813354492188,35.71340560913086 L148.02098083496094,35.9560546875 L147.8844757080078,36.511199951171875 L147.73468017578125,37.36565017700195 L147.65264892578125,38.46763610839844 L147.70281982421875,39.7099609375 L148.00067138671875,40.98204040527344 L148.6077880859375,42.13526153564453 L149.53744506835938,43.02481460571289 L150.763671875,43.526954650878906 L152.2260284423828,43.577545166015625 L153.81163024902344,43.17179489135742 L155.4236602783203,42.364322662353516 L156.92434692382812,41.25071334838867 L158.1854248046875,39.959903717041016 L159.10638427734375,38.63086700439453 L159.66043090820312,37.39970397949219 L159.91064453125,36.38727951049805 L159.97988891601562,35.64970779418945 L159.97219848632812,35.214752197265625 L159.9893341064453,35.10352325439453 L160.05227661132812,35.316680908203125 L160.16102600097656,35.85944366455078 L160.32766723632812,36.73692321777344 L160.5504913330078,37.8686408996582 L160.80914306640625,39.13112258911133 L161.12588500976562,40.40370178222656 L161.47134399414062,41.552284240722656 L161.84512329101562,42.512874603271484 L162.1669921875,43.187225341796875 L162.3848876953125,43.56319808959961 M169.74267578125,36.47541427612305 L169.75997924804688,36.42570877075195 L169.77056884765625,36.41363525390625 L169.74905395507812,36.526432037353516 L169.66323852539062,36.852020263671875 L169.48077392578125,37.425376892089844 L169.16293334960938,38.21245574951172 L168.69564819335938,39.14467239379883 L168.10330200195312,40.150455474853516 L167.44808959960938,41.13325119018555 L166.81924438476562,41.99422073364258 L166.34518432617188,42.606502532958984 L166.07159423828125,42.93754196166992 M165.68063354492188,35.66917419433594 L165.65591430664062,35.61288070678711 L165.71795654296875,35.58123016357422 L165.9412841796875,35.6400260925293 L166.36944580078125,35.85458755493164 L166.9671630859375,36.2462272644043 L167.69955444335938,36.79241180419922 L168.55056762695312,37.46135711669922 L169.52017211914062,38.2165412902832 L170.57684326171875,39.01579666137695 L171.6622314453125,39.818504333496094 L172.69061279296875,40.5919303894043 L173.635009765625,41.30283737182617 L174.530517578125,41.934417724609375 L175.24169921875,42.39950180053711 L175.70489501953125,42.67285919189453 " fill="none" stroke="black" stroke-linecap="round" stroke-width="2" /></svg>