<?xml version="1.0" encoding="utf-8" ?>
<svg baseProfile="full" height="100%" version="1.1" viewBox="0,0,150,60" width="100%" xmlns="http://www.w3.org/2000/svg" xmlns:ev="http://www.w3.org/2001/xml-events" xmlns:xlink="http://www.w3.org/1999/xlink"><defs /><path d="M0,0 M54.545616149902344,30.851524353027344 L54.56068801879883,31.117277145385742 L54.57373809814453,31.696138381958008 L54.57062530517578,32.666263580322266 L54.520179748535156,34.0291633605957 L54.392822265625,35.78258514404297 L54.153106689453125,37.88447570800781 L53.78617858886719,40.26966094970703 L53.27226257324219,42.83955383300781 L52.6216926574707,45.45243835449219 L51.866119384765625,47.94770050048828 L51.084686279296875,50.16545104980469 L50.38290023803711,51.898895263671875 L49.86481475830078,53.00284194946289 L49.571197509765625,53.44411087036133 L49.46218490600586,53.438453674316406 L49.4538688659668,53.25305938720703 M50.90504455566406,29.632038116455078 L50.900028228759766,28.976045608520508 L51.02756881713867,28.02168083190918 L51.407649993896484,26.957942962646484 L52.16701889038086,26.077465057373047 L53.36421585083008,25.43510627746582 L54.998897552490234,25.04296112060547 L56.99905776977539,24.909770965576172 L59.26795196533203,25.093852996826172 L61.66550064086914,25.612470626831055 L64.046142578125,26.44764518737793 L66.25907897949219,27.558521270751953 L68.14921569824219,28.87761688232422 L69.55604553222656,30.333953857421875 L70.37237548828125,31.832008361816406 L70.54582214355469,33.2768440246582 L70.07051849365234,34.56826400756836 L68.99397277832031,35.62467956542969 L67.41085815429688,36.39973068237305 L65.43115234375,36.876731872558594 L63.20726776123047,37.061038970947266 L60.87983703613281,36.986209869384766 L58.58562469482422,36.67755889892578 L56.44987487792969,36.18251419067383 L54.62108612060547,35.55353546142578 L53.231964111328125,34.87373352050781 L52.368324279785156,34.245121002197266 L51.9631462097168,33.791324615478516 L51.862815856933594,33.54092788696289 M84.97555541992188,33.849403381347656 L85.00184631347656,33.333290100097656 L84.91450500488281,32.522483825683594 L84.59114074707031,31.554811477661133 L83.93611145019531,30.674531936645508 L82.95208740234375,29.98169708251953 L81.67361450195312,29.540231704711914 L80.18601989746094,29.386138916015625 L78.57965850830078,29.567123413085938 L76.9761734008789,30.107158660888672 L75.52458190917969,30.971054077148438 L74.36894226074219,32.07695388793945 L73.63285064697266,33.307586669921875 L73.39918518066406,34.54861831665039 L73.68569946289062,35.67271041870117 L74.48898315429688,36.58799362182617 L75.75860595703125,37.20476531982422 L77.4035873413086,37.450809478759766 L79.30500030517578,37.28913116455078 L81.30018615722656,36.739261627197266 L83.2181396484375,35.85523223876953 L84.91935729980469,34.76211929321289 L86.28713989257812,33.61345672607422 L87.26841735839844,32.566715240478516 L87.86228942871094,31.7401123046875 L88.11477661132812,31.21723175048828 L88.1209716796875,31.037593841552734 L87.9813461303711,31.2252197265625 L87.77964782714844,31.79973602294922 L87.59021759033203,32.74637985229492 L87.47969055175781,33.98908233642578 L87.49187469482422,35.394588470458984 L87.66187286376953,36.78645706176758 L87.95768737792969,37.98073196411133 L88.30725860595703,38.869747161865234 L88.61573028564453,39.41831970214844 L88.83313751220703,39.61871337890625 L88.94874572753906,39.50934982299805 L89.01213836669922,39.14750671386719 L89.04821014404297,38.725852966308594 L89.0759506225586,38.397396087646484 M93.43695831298828,32.395809173583984 L93.56959533691406,32.21717071533203 L93.6982192993164,32.036041259765625 L93.75019836425781,31.99054527282715 L93.65513610839844,32.24772262573242 L93.46112060546875,32.87794876098633 L93.2075424194336,33.8558349609375 L92.94860076904297,35.09458923339844 L92.70790100097656,36.47243881225586 L92.51529693603516,37.8278694152832 L92.37506866455078,39.00465393066406 L92.30747985839844,39.89242935180664 L92.29029083251953,40.37861251831055 L92.33732604980469,40.40941619873047 L92.42242431640625,39.9529914855957 L92.54171752929688,39.0180549621582 L92.67440795898438,37.67557907104492 L92.8330307006836,36.057579040527344 L93.0280990600586,34.30051040649414 L93.31585693359375,32.558719635009766 L93.69645690917969,30.954423904418945 L94.18428802490234,29.57782554626465 L94.77721405029297,28.49875259399414 L95.49002075195312,27.766857147216797 L96.33659362792969,27.392303466796875 L97.35979461669922,27.367935180664062 L98.58086395263672,27.651660919189453 L100.01055908203125,28.179882049560547 L101.62554931640625,28.869304656982422 L103.33872985839844,29.621944427490234 L105.01678466796875,30.340576171875 L106.5234146118164,30.95686912536621 L107.74415588378906,31.43680763244629 L108.62838745117188,31.794565200805664 L109.17803955078125,32.081764221191406 L109.392822265625,32.35450744628906 L109.30500793457031,32.69184875488281 L108.9640121459961,33.181766510009766 L108.4220962524414,33.891387939453125 L107.77310943603516,34.84363555908203 L107.12051391601562,36.00605392456055 L106.55120849609375,37.287357330322266 L106.13937377929688,38.58111572265625 L105.92469787597656,39.797767639160156 L105.89202880859375,40.80497741699219 L106.00042724609375,41.481040954589844 L106.19779205322266,41.758304595947266 L106.39030456542969,41.751190185546875 L106.5226058959961,41.61752700805664 M109.89131164550781,22.68866729736328 L109.92756652832031,22.603519439697266 L109.99588775634766,22.525497436523438 L110.09944152832031,22.5 L110.21881866455078,22.55537986755371 L110.342529296875,22.644058227539062 L110.48543548583984,22.737560272216797 L110.61540985107422,22.80263328552246 L110.70770263671875,22.838096618652344 M124.39241027832031,33.51313018798828 L124.14823150634766,33.32131576538086 L123.57866668701172,33.023536682128906 L122.59471893310547,32.686424255371094 L121.21112060546875,32.427249908447266 L119.51021575927734,32.29106903076172 L117.67208099365234,32.291046142578125 L115.9248046875,32.42363357543945 L114.49266052246094,32.68859100341797 L113.59358215332031,33.10128402709961 L113.3814468383789,33.67130661010742 L113.93524169921875,34.38938522338867 L115.25714874267578,35.23078536987305 L117.24314880371094,36.169891357421875 L119.67266845703125,37.1812744140625 L122.27500915527344,38.249359130859375 L124.7387466430664,39.320308685302734 L126.77721405029297,40.329383850097656 L128.19476318359375,41.20460510253906 L128.87884521484375,41.899147033691406 L128.79086303710938,42.39656066894531 L127.97716522216797,42.72759246826172 L126.51204681396484,42.91193771362305 L124.50308990478516,42.970130920410156 L122.12281036376953,42.916446685791016 L119.56848907470703,42.77328109741211 L117.0273666381836,42.56060791015625 L114.66439056396484,42.312862396240234 L112.58223724365234,42.061981201171875 L110.81913757324219,41.83866882324219 L109.56859588623047,41.67901611328125 L108.8588638305664,41.593631744384766 " fill="none" stroke="black" stroke-linecap="round" stroke-width="2" /></svg>