<?xml version="1.0" encoding="utf-8" ?>
<svg baseProfile="full" height="100%" version="1.1" viewBox="0,0,180,60" width="100%" xmlns="http://www.w3.org/2000/svg" xmlns:ev="http://www.w3.org/2001/xml-events" xmlns:xlink="http://www.w3.org/1999/xlink"><defs /><path d="M0,0 M58.11747741699219,26.449966430664062 L58.14291763305664,26.29694175720215 L58.19239044189453,26.133468627929688 L58.25679016113281,26.09437370300293 L58.3089714050293,26.36443519592285 L58.32960510253906,27.074281692504883 L58.2844123840332,28.274456024169922 L58.14451217651367,29.940086364746094 L57.90814208984375,32.032501220703125 L57.58366394042969,34.45923614501953 L57.193660736083984,37.11085510253906 L56.77001953125,39.865135192871094 L56.31890106201172,42.56184387207031 L55.85352325439453,45.02653503417969 L55.38904571533203,47.09592819213867 L54.96286392211914,48.65386199951172 L54.629241943359375,49.61085510253906 L54.425968170166016,49.91432189941406 L54.36463165283203,49.54649353027344 L54.4359245300293,48.52186965942383 L54.59373474121094,46.886959075927734 L54.797821044921875,44.791080474853516 L55.024192810058594,42.37281036376953 L55.25761795043945,39.77505111694336 L55.51258087158203,37.11256408691406 L55.81781768798828,34.467227935791016 L56.216102600097656,31.898937225341797 L56.75941467285156,29.49797821044922 L57.50749206542969,27.343128204345703 L58.48836898803711,25.518985748291016 L59.7195930480957,24.106441497802734 L61.19535827636719,23.16424560546875 L62.89885330200195,22.727819442749023 L64.7918701171875,22.80138397216797 L66.80514526367188,23.350387573242188 L68.81871032714844,24.291746139526367 L70.70510864257812,25.5224609375 L72.32186889648438,26.916135787963867 L73.53968048095703,28.355846405029297 L74.25624084472656,29.737287521362305 L74.39222717285156,30.978981018066406 L73.92204284667969,32.01084518432617 L72.88899993896484,32.7921142578125 L71.36692810058594,33.28786849975586 L69.48284912109375,33.489356994628906 L67.38699340820312,33.414207458496094 L65.25613403320312,33.11439514160156 L63.27172088623047,32.65852737426758 L61.65815353393555,32.109188079833984 L60.57414245605469,31.523508071899414 L60.095863342285156,30.956079483032227 L60.0418701171875,30.516685485839844 L60.18272399902344,30.252473831176758 M79.10763549804688,27.062236785888672 L79.13831329345703,27.018699645996094 L79.16366577148438,27.063051223754883 L79.15919494628906,27.304166793823242 L79.09463500976562,27.844114303588867 L78.97076416015625,28.69731903076172 L78.80101013183594,29.8148193359375 L78.61476135253906,31.107316970825195 L78.43743896484375,32.44173049926758 L78.2772216796875,33.663108825683594 L78.12559509277344,34.62837219238281 L77.97273254394531,35.22308349609375 L77.80641174316406,35.372398376464844 L77.62866973876953,35.04960250854492 L77.46360778808594,34.26008987426758 L77.32916259765625,33.066978454589844 L77.24638366699219,31.574735641479492 L77.23213195800781,29.916812896728516 L77.30381774902344,28.226381301879883 L77.47821044921875,26.623191833496094 L77.78936767578125,25.19501304626465 L78.28958892822266,24.030359268188477 L79.02981567382812,23.17705726623535 L80.04935455322266,22.66665267944336 L81.35798645019531,22.5 L82.93128204345703,22.651926040649414 L84.70897674560547,23.057174682617188 L86.59842681884766,23.632671356201172 L88.53243255615234,24.282028198242188 L90.41004180908203,24.92389488220215 L92.11869049072266,25.49955177307129 L93.39265441894531,25.921314239501953 L94.14038848876953,26.166532516479492 M102.7514419555664,30.665979385375977 L102.79161834716797,30.327320098876953 L102.74933624267578,29.72663116455078 L102.5256118774414,28.905853271484375 L102.0418930053711,28.01471710205078 L101.2843246459961,27.146217346191406 L100.25884246826172,26.388965606689453 L99.00841522216797,25.805133819580078 L97.5807876586914,25.476299285888672 L96.05512237548828,25.474246978759766 L94.53870391845703,25.859718322753906 L93.14354705810547,26.632118225097656 L91.96980285644531,27.733537673950195 L91.13663482666016,29.0548095703125 L90.75685119628906,30.477432250976562 L90.90524291992188,31.86228370666504 L91.60498809814453,33.081581115722656 L92.82157897949219,34.000240325927734 L94.43390655517578,34.51472473144531 L96.3016586303711,34.569671630859375 L98.26929473876953,34.188785552978516 L100.15071868896484,33.42815017700195 L101.78588104248047,32.389976501464844 L103.0634994506836,31.191373825073242 L103.9026870727539,29.982458114624023 L104.33300018310547,28.901212692260742 L104.45716094970703,28.079072952270508 L104.37114715576172,27.590511322021484 L104.1816635131836,27.48586654663086 L103.9776382446289,27.786521911621094 L103.79923248291016,28.501882553100586 L103.70650482177734,29.562910079956055 L103.82698822021484,30.89222526550293 L104.22135162353516,32.32740020751953 L104.90727996826172,33.71418380737305 L105.6266860961914,34.77165603637695 L106.16448211669922,35.40082550048828 M120.70313262939453,32.12821578979492 L120.8944320678711,31.59906768798828 L121.04297637939453,30.72599220275879 L120.97611236572266,29.62176513671875 L120.51702117919922,28.521934509277344 L119.65316009521484,27.536983489990234 L118.4514389038086,26.746315002441406 L117.01105499267578,26.18358612060547 L115.45723724365234,25.920631408691406 L113.90795135498047,26.014394760131836 L112.48235321044922,26.48032569885254 L111.28874969482422,27.292648315429688 L110.45023345947266,28.364334106445312 L110.08234405517578,29.565427780151367 L110.30559539794922,30.757244110107422 L111.16541290283203,31.79383087158203 L112.62189483642578,32.545230865478516 L114.52745819091797,32.93561935424805 L116.66759490966797,32.95309066772461 L118.79808807373047,32.650672912597656 L120.7109603881836,32.14002227783203 L122.2349624633789,31.536212921142578 L123.29297637939453,30.95414161682129 L123.89038848876953,30.497793197631836 L124.10041046142578,30.250572204589844 L124.03630828857422,30.284664154052734 L123.81989288330078,30.672380447387695 L123.51435089111328,31.43488121032715 L123.19681549072266,32.57415771484375 L122.90901947021484,34.049407958984375 L122.68041229248047,35.79319763183594 L122.52054595947266,37.72734069824219 L122.41947174072266,39.77350616455078 L122.31114959716797,41.822967529296875 L122.1499252319336,43.765899658203125 L121.87679290771484,45.4837646484375 L121.4632339477539,46.88390350341797 L120.88973236083984,47.90403366088867 L120.16706085205078,48.528228759765625 L119.3029556274414,48.76783752441406 L118.31243133544922,48.64649200439453 L117.22264862060547,48.203330993652344 L116.08301544189453,47.49925994873047 L114.94965362548828,46.59896469116211 L113.91851043701172,45.57837677001953 L113.09859466552734,44.493865966796875 L112.58966827392578,43.37879180908203 L112.4593276977539,42.254573822021484 L112.82843780517578,41.1132926940918 L113.71712493896484,39.97748947143555 L115.0639419555664,38.897499084472656 L116.38448333740234,38.06120300292969 L117.33515167236328,37.555274963378906 M128.3416748046875,27.335189819335938 L128.34808349609375,26.997289657592773 L128.31149291992188,26.567752838134766 L128.19912719726562,26.224796295166016 L127.98812103271484,26.19464111328125 L127.69364166259766,26.556726455688477 L127.38370513916016,27.313018798828125 L127.11937713623047,28.377845764160156 L126.98856353759766,29.65374755859375 L127.0779800415039,31.00596046447754 L127.4380111694336,32.27762985229492 L128.097900390625,33.34690475463867 L129.08187866210938,34.09415054321289 L130.36907958984375,34.45128631591797 L131.90811157226562,34.38858413696289 L133.60342407226562,33.924320220947266 L135.30929565429688,33.116024017333984 L136.87567138671875,32.05696487426758 L138.19033813476562,30.84932518005371 L139.18222045898438,29.63821029663086 L139.84323120117188,28.561752319335938 L140.21209716796875,27.721847534179688 L140.355224609375,27.188831329345703 L140.33438110351562,26.983495712280273 L140.1973876953125,27.09479331970215 L139.96435546875,27.52396011352539 L139.67486572265625,28.264530181884766 L139.38265991210938,29.25292205810547 L139.20248413085938,30.44011878967285 L139.22607421875,31.713214874267578 L139.48748779296875,32.9444465637207 L139.83084106445312,33.891544342041016 L140.11776733398438,34.461570739746094 M144.35372924804688,34.51620864868164 L144.63088989257812,34.381404876708984 L145.22506713867188,34.12359619140625 L146.18008422851562,33.736541748046875 L147.42434692382812,33.252864837646484 L148.8515625,32.68598175048828 L150.33285522460938,32.03983688354492 L151.72323608398438,31.316219329833984 L152.89898681640625,30.535823822021484 L153.74319458007812,29.715856552124023 L154.15911865234375,28.89780044555664 L154.07705688476562,28.1359806060791 L153.46267700195312,27.494647979736328 L152.33084106445312,27.041133880615234 L150.7681884765625,26.858020782470703 L148.93487548828125,26.983654022216797 L147.06060791015625,27.432037353515625 L145.38812255859375,28.178525924682617 L144.12686157226562,29.168489456176758 L143.46090698242188,30.325786590576172 L143.50628662109375,31.572263717651367 L144.32635498046875,32.81003952026367 L145.91476440429688,33.945369720458984 L148.1451416015625,34.896240234375 L150.83090209960938,35.62349319458008 L153.81765747070312,36.14325714111328 L156.34078979492188,36.46143341064453 L158.00405883789062,36.62173080444336 " fill="none" stroke="black" stroke-linecap="round" stroke-width="2" /></svg>