<?xml version="1.0" encoding="utf-8" ?>
<svg baseProfile="full" height="100%" version="1.1" viewBox="0,0,240,60" width="100%" xmlns="http://www.w3.org/2000/svg" xmlns:ev="http://www.w3.org/2001/xml-events" xmlns:xlink="http://www.w3.org/1999/xlink"><defs /><path d="M0,0 M83.87454223632812,36.00874328613281 L83.69340515136719,35.71901321411133 L83.33186340332031,35.24828338623047 L82.75088500976562,34.67631912231445 L81.93033599853516,34.153038024902344 L80.81166076660156,33.755775451660156 L79.35295104980469,33.52665328979492 L77.59141540527344,33.4691047668457 L75.66145324707031,33.57864761352539 L73.7809829711914,33.84196090698242 L72.1998291015625,34.23898696899414 L71.1185302734375,34.75986099243164 L70.65139770507812,35.39020919799805 L70.85650634765625,36.11653137207031 L71.7286376953125,36.91569900512695 L73.21725463867188,37.759525299072266 L75.21820068359375,38.625423431396484 L77.5665283203125,39.51382064819336 L80.03275299072266,40.42890167236328 L82.38365173339844,41.371498107910156 L84.43250274658203,42.330360412597656 L86.05158996582031,43.27084732055664 L87.15798950195312,44.15591812133789 L87.718017578125,44.9627685546875 L87.68402099609375,45.67670822143555 L87.04885864257812,46.291748046875 L85.83773040771484,46.8173713684082 L84.12360382080078,47.2431640625 L82.00675964355469,47.56675338745117 L79.59864044189453,47.77784729003906 L77.01040649414062,47.86823272705078 L74.40707397460938,47.83397674560547 L71.94886016845703,47.67280197143555 L69.83743286132812,47.403446197509766 L68.219970703125,47.07415771484375 L67.20262145996094,46.78580856323242 L66.71205139160156,46.59980773925781 M91.26364135742188,22.614500045776367 L91.2745590209961,22.5019588470459 L91.30027770996094,22.5 L91.33538055419922,22.789438247680664 L91.37229919433594,23.553693771362305 L91.4156723022461,24.83586883544922 L91.4608383178711,26.61148452758789 L91.50273132324219,28.797443389892578 L91.53512573242188,31.30571174621582 L91.53469848632812,34.001670837402344 L91.48268127441406,36.74042892456055 L91.37626647949219,39.35628128051758 L91.20639038085938,41.69255065917969 L90.98504638671875,43.618953704833984 L90.72708129882812,45.041259765625 L90.4649658203125,45.887916564941406 L90.24800109863281,46.141204833984375 L90.14190673828125,45.8017578125 L90.19044494628906,44.91822052001953 L90.45298767089844,43.607032775878906 L90.94258117675781,42.015724182128906 L91.65987396240234,40.302215576171875 L92.59495544433594,38.62974548339844 L93.72442626953125,37.10468292236328 L94.9924545288086,35.82308578491211 L96.37200927734375,34.873985290527344 L97.80744171142578,34.31336212158203 L99.24272155761719,34.176414489746094 L100.63096618652344,34.482086181640625 L101.90400695800781,35.19658279418945 L102.99015808105469,36.27886962890625 L103.83224487304688,37.659767150878906 L104.3908920288086,39.259010314941406 L104.65702819824219,40.9731330871582 L104.68182373046875,42.69142150878906 L104.54124450683594,44.284454345703125 L104.37882995605469,45.62066650390625 L104.31585693359375,46.59492492675781 L104.43431091308594,47.186012268066406 L104.64395141601562,47.455230712890625 L104.8446044921875,47.52418518066406 M119.43047332763672,40.66794967651367 L119.45853424072266,40.16194534301758 L119.35536193847656,39.383811950683594 L119.00653839111328,38.465675354003906 L118.32833862304688,37.65084457397461 L117.32945251464844,37.03350830078125 L116.04989624023438,36.67021942138672 L114.57328796386719,36.58201599121094 L112.97825622558594,36.82332992553711 L111.39295959472656,37.40270233154297 L109.9593505859375,38.31105422973633 L108.81481170654297,39.50575256347656 L108.06624603271484,40.88984680175781 L107.82940673828125,42.34059143066406 L108.15808868408203,43.714656829833984 L109.06298828125,44.84917449951172 L110.48909759521484,45.606746673583984 L112.31856536865234,45.885520935058594 L114.38722229003906,45.65983200073242 L116.52352905273438,44.98373794555664 L118.53526306152344,43.959815979003906 L120.25049591064453,42.712364196777344 L121.55740356445312,41.381797790527344 L122.41608428955078,40.12116241455078 L122.87946319580078,39.07650375366211 L123.03907012939453,38.354061126708984 L123.01119995117188,38.0059814453125 L122.8807144165039,38.038143157958984 L122.73331451416016,38.45356750488281 L122.62828063964844,39.26087188720703 L122.6300048828125,40.409095764160156 L122.76813507080078,41.78419876098633 L123.06864166259766,43.22339630126953 L123.4928207397461,44.54234313964844 L123.97672271728516,45.60633850097656 L124.42346954345703,46.358238220214844 L124.76128387451172,46.730804443359375 L124.95194244384766,46.72056579589844 L125.03720092773438,46.383907318115234 L125.06101989746094,45.94607925415039 L125.06475830078125,45.58867645263672 M127.78797912597656,36.353885650634766 L127.79756164550781,36.30355453491211 L127.8392105102539,36.35917282104492 L127.91267395019531,36.648983001708984 L128.00950622558594,37.29788589477539 L128.08592224121094,38.31261444091797 L128.11163330078125,39.62477111816406 L128.06655883789062,41.10898971557617 L127.9634017944336,42.61726760864258 L127.80750274658203,43.97709655761719 L127.64873504638672,45.05693817138672 L127.49990844726562,45.742828369140625 L127.39703369140625,45.97661209106445 L127.38330841064453,45.758705139160156 L127.47809600830078,45.110103607177734 L127.69105529785156,44.09334945678711 L128.0621337890625,42.80810546875 L128.58016967773438,41.352020263671875 L129.26730346679688,39.83440017700195 L130.1343994140625,38.36368179321289 L131.14932250976562,37.02644348144531 L132.28244018554688,35.93143844604492 L133.50283813476562,35.164276123046875 L134.74624633789062,34.783546447753906 L135.97366333007812,34.81684875488281 L137.1384735107422,35.256568908691406 L138.17453002929688,36.05811309814453 L139.03329467773438,37.17582321166992 L139.6785888671875,38.5296516418457 L140.09259033203125,40.03458786010742 L140.30361938476562,41.57786178588867 L140.3678741455078,43.04286193847656 L140.38201904296875,44.29030990600586 L140.44781494140625,45.22142028808594 L140.63848876953125,45.7877082824707 L140.87765502929688,46.04758834838867 L141.084228515625,46.11040496826172 M152.51861572265625,41.374053955078125 L152.62167358398438,40.82948303222656 L152.66262817382812,39.95592498779297 L152.5064697265625,38.874244689941406 L152.01229858398438,37.83279037475586 L151.13894653320312,36.94205856323242 L149.90780639648438,36.29197311401367 L148.40618896484375,35.94440841674805 L146.76022338867188,35.980712890625 L145.1421356201172,36.433780670166016 L143.73129272460938,37.282798767089844 L142.67709350585938,38.44608688354492 L142.12527465820312,39.78412628173828 L142.17063903808594,41.12395477294922 L142.8445281982422,42.28456115722656 L144.10317993164062,43.115814208984375 L145.81497192382812,43.52425003051758 L147.77001953125,43.48679733276367 L149.74607849121094,43.04784393310547 L151.51663208007812,42.30597686767578 L152.90643310546875,41.39319610595703 L153.817138671875,40.45364761352539 L154.2626953125,39.615055084228516 L154.35488891601562,38.96132278442383 L154.2542266845703,38.54050827026367 L154.11087036132812,38.39501190185547 L154.02557373046875,38.572265625 L154.0352783203125,39.11587905883789 L154.1607666015625,40.04923629760742 L154.41506958007812,41.336978912353516 L154.80105590820312,42.903377532958984 L155.29983520507812,44.667030334472656 L155.8443145751953,46.536624908447266 L156.3400115966797,48.4246826171875 L156.683837890625,50.24095153808594 L156.7874755859375,51.89287567138672 L156.59912109375,53.299137115478516 L156.10879516601562,54.409454345703125 L155.3278350830078,55.1893310546875 L154.32040405273438,55.63449478149414 L153.1492919921875,55.74778747558594 L151.90582275390625,55.55238342285156 L150.67892456054688,55.076690673828125 L149.5481414794922,54.36669158935547 L148.5706787109375,53.449398040771484 L147.81088256835938,52.40270233154297 L147.28195190429688,51.32892608642578 L146.9837646484375,50.47171401977539 L146.86135864257812,49.94618225097656 M163.18463134765625,23.852922439575195 L163.21542358398438,23.77509117126465 L163.26492309570312,23.800640106201172 L163.32679748535156,24.090913772583008 L163.36233520507812,24.807069778442383 L163.32481384277344,25.996078491210938 L163.20907592773438,27.631881713867188 L163.02239990234375,29.630924224853516 L162.80421447753906,31.889394760131836 L162.611572265625,34.262752532958984 L162.46841430664062,36.589717864990234 L162.38351440429688,38.70900344848633 L162.3519287109375,40.4731330871582 L162.36474609375,41.78707504272461 L162.43630981445312,42.59963607788086 L162.59799194335938,42.8908576965332 L162.902587890625,42.677268981933594 L163.4114990234375,42.00794982910156 L164.14682006835938,40.9580192565918 L165.11419677734375,39.656394958496094 L166.2736358642578,38.2288932800293 L167.567138671875,36.812862396240234 L168.92959594726562,35.53582000732422 L170.30197143554688,34.51552963256836 L171.610107421875,33.83669662475586 L172.8209228515625,33.570457458496094 L173.89292907714844,33.72828674316406 L174.80596923828125,34.29379653930664 L175.54336547851562,35.21139907836914 L176.10604858398438,36.40953063964844 L176.47425842285156,37.77725601196289 L176.68931579589844,39.20149230957031 L176.8141632080078,40.56016159057617 L176.93020629882812,41.74496078491211 L177.1067657470703,42.675357818603516 L177.305908203125,43.27965545654297 L177.46217346191406,43.58127212524414 M190.49642944335938,39.674713134765625 L190.45736694335938,39.158267974853516 L190.25527954101562,38.362335205078125 L189.77667236328125,37.42469024658203 L188.95358276367188,36.58736801147461 L187.81033325195312,35.94477844238281 L186.41317749023438,35.5665283203125 L184.87393188476562,35.49263000488281 L183.31747436523438,35.7882194519043 L181.88558959960938,36.46034240722656 L180.72972106933594,37.45948028564453 L179.98312377929688,38.69783020019531 L179.73025512695312,40.0389518737793 L180.0288543701172,41.33051300048828 L180.88040161132812,42.42818832397461 L182.23095703125,43.19031524658203 L183.96929931640625,43.52086639404297 L185.91802978515625,43.37712097167969 L187.87973022460938,42.77838134765625 L189.68136596679688,41.80132293701172 L191.19668579101562,40.57866287231445 L192.34100341796875,39.27902603149414 L193.10464477539062,38.09203338623047 L193.52084350585938,37.151885986328125 L193.66510009765625,36.55832290649414 L193.639892578125,36.34715270996094 L193.54971313476562,36.51517105102539 L193.46307373046875,37.05084991455078 L193.45001220703125,37.92690658569336 L193.56436157226562,39.03618621826172 L193.85662841796875,40.26009750366211 L194.36273193359375,41.44029998779297 L195.10464477539062,42.42764663696289 L196.06466674804688,43.09724807739258 L197.20074462890625,43.372650146484375 L198.4493408203125,43.20490264892578 L199.73922729492188,42.620662689208984 L200.97335815429688,41.68064880371094 L202.08917236328125,40.493324279785156 L203.04315185546875,39.173805236816406 L203.80178833007812,37.8712043762207 L204.3516845703125,36.717166900634766 L204.70013427734375,35.8311767578125 L204.84866333007812,35.292633056640625 L204.84063720703125,35.15371322631836 L204.72869873046875,35.43650817871094 L204.53375244140625,36.15206527709961 L204.29373168945312,37.24608612060547 L204.05914306640625,38.608882904052734 L203.88821411132812,40.087955474853516 L203.83047485351562,41.520389556884766 L203.89862060546875,42.77825927734375 L204.03302001953125,43.68242645263672 L204.16793823242188,44.04789352416992 L204.2542724609375,44.015357971191406 L204.2890625,43.78693771362305 " fill="none" stroke="black" stroke-linecap="round" stroke-width="2" /></svg>