<?xml version="1.0" encoding="utf-8" ?>
<svg baseProfile="full" height="100%" version="1.1" viewBox="0,0,150,60" width="100%" xmlns="http://www.w3.org/2000/svg" xmlns:ev="http://www.w3.org/2001/xml-events" xmlns:xlink="http://www.w3.org/1999/xlink"><defs /><path d="M0,0 M49.92180633544922,24.019603729248047 L49.928016662597656,23.930334091186523 L49.93400192260742,23.92089080810547 L49.94657897949219,24.126529693603516 L49.96328353881836,24.69233512878418 L49.978973388671875,25.660274505615234 L49.998050689697266,27.016239166259766 L50.0081901550293,28.74716567993164 L49.98583221435547,30.840091705322266 L49.93811798095703,33.26673889160156 L49.854854583740234,35.98442459106445 L49.73079299926758,38.9113883972168 L49.563785552978516,41.92498779296875 L49.35231018066406,44.883628845214844 L49.115638732910156,47.625694274902344 L48.90766143798828,49.99525451660156 L48.764404296875,51.8057975769043 L48.69865798950195,52.95018768310547 L48.6888427734375,53.423255920410156 L48.70194625854492,53.4504280090332 L48.713111877441406,53.29539489746094 M43.47942352294922,40.07657241821289 L43.4933967590332,40.02113342285156 L43.69393539428711,39.96802520751953 L44.22575378417969,39.94710159301758 L45.2249641418457,39.97765350341797 L46.7264404296875,40.03147888183594 L48.69566345214844,40.068729400634766 L51.042388916015625,40.05235290527344 L53.69580841064453,39.96936798095703 L56.45632553100586,39.835994720458984 L59.109737396240234,39.67882537841797 L61.14381790161133,39.54862976074219 L62.353912353515625,39.470855712890625 M69.31988525390625,41.44179916381836 L69.23712158203125,41.098304748535156 L68.95352172851562,40.5654411315918 L68.35371398925781,39.97007751464844 L67.3644790649414,39.525421142578125 L65.99642944335938,39.356178283691406 L64.36629486083984,39.533241271972656 L62.62222671508789,40.05305862426758 L60.91366195678711,40.903499603271484 L59.38557052612305,42.04170227050781 L58.15438461303711,43.39665222167969 L57.32462692260742,44.899139404296875 L56.992576599121094,46.455326080322266 L57.237457275390625,47.94465637207031 L58.089698791503906,49.239402770996094 L59.534156799316406,50.20282745361328 L61.49213790893555,50.72233963012695 L63.83428955078125,50.74939727783203 L66.36863708496094,50.27958679199219 L68.885498046875,49.35955047607422 L71.16233825683594,48.07615280151367 L72.99661254882812,46.54629898071289 L74.23175048828125,44.90740203857422 L74.81364440917969,43.311256408691406 L74.73185729980469,41.88398742675781 L74.11302185058594,40.73633575439453 L73.12399291992188,39.913330078125 L72.17518615722656,39.42898941040039 L71.5159912109375,39.21295928955078 M81.75808715820312,22.516590118408203 L81.76875305175781,22.5 L81.81120300292969,22.621055603027344 L81.90235900878906,23.012224197387695 L82.04132080078125,23.797470092773438 L82.19789123535156,25.013031005859375 L82.34861755371094,26.64739990234375 L82.46266174316406,28.654937744140625 L82.52131652832031,30.990589141845703 L82.52291870117188,33.57146453857422 L82.47068786621094,36.30281066894531 L82.3707275390625,39.0620002746582 L82.238037109375,41.7014274597168 L82.10595703125,44.063106536865234 L81.98069763183594,46.00596237182617 L81.86231994628906,47.44391632080078 L81.7886962890625,48.31788635253906 L81.80424499511719,48.65134811401367 L81.95167541503906,48.53156661987305 L82.16532897949219,48.21736526489258 L82.3585205078125,47.91582107543945 M91.40715026855469,38.141143798828125 L91.51947021484375,37.89985656738281 L91.55026245117188,37.63081359863281 L91.32669067382812,37.483524322509766 L90.67768859863281,37.64260482788086 L89.57589721679688,38.162933349609375 L88.097900390625,39.03208923339844 L86.40916442871094,40.16803741455078 L84.69499206542969,41.47834014892578 L83.16632080078125,42.82356262207031 L82.04150390625,44.07733154296875 L81.50173950195312,45.14667510986328 L81.6561279296875,45.96345520019531 L82.52061462402344,46.49081039428711 L84.01301574707031,46.724735260009766 L85.99041748046875,46.68928146362305 L88.2794189453125,46.460792541503906 L90.67329406738281,46.130977630615234 L92.97550964355469,45.78746032714844 L95.02742004394531,45.500770568847656 L96.71563720703125,45.260929107666016 L97.99043273925781,45.027870178222656 L98.85418701171875,44.758583068847656 L99.33796691894531,44.503143310546875 L99.54017639160156,44.31026077270508 M97.93753051757812,35.51272964477539 L97.99656677246094,35.56764602661133 L98.14823913574219,35.8140983581543 L98.42262268066406,36.35994338989258 L98.82598876953125,37.24252700805664 L99.33631896972656,38.38597869873047 L99.95901489257812,39.67015075683594 L100.71955871582031,40.976741790771484 L101.65635681152344,42.18647766113281 L102.78250122070312,43.18764114379883 L104.09602355957031,43.87577438354492 L105.54299926757812,44.161529541015625 L107.0748291015625,43.99973678588867 L108.64106750488281,43.41291427612305 L110.18777465820312,42.4782829284668 L111.61335754394531,41.297210693359375 L112.82276916503906,40.00840759277344 L113.70993041992188,38.7544059753418 L114.24534606933594,37.66160583496094 L114.46917724609375,36.83423614501953 L114.46484375,36.36587142944336 L114.27603149414062,36.29747772216797 L113.91804504394531,36.66370391845703 L113.3800048828125,37.48572540283203 L112.70100402832031,38.74993133544922 L111.94969177246094,40.405731201171875 L111.1859130859375,42.38728713989258 L110.41200256347656,44.60382843017578 L109.61151123046875,46.97386169433594 L108.7928466796875,49.42543411254883 L108.00613403320312,51.87102127075195 L107.33900451660156,54.197654724121094 L106.8829345703125,56.24726104736328 L106.67031860351562,57.8575439453125 L106.69253540039062,58.933021545410156 L106.83358764648438,59.496978759765625 L106.97834777832031,59.69350814819336 M123.52311706542969,37.2564811706543 L123.4842529296875,36.84455871582031 L123.29951477050781,36.24777603149414 L122.86709594726562,35.60591125488281 L122.13327026367188,35.133331298828125 L121.0938720703125,34.89318084716797 L119.78915405273438,34.93703842163086 L118.2945556640625,35.27527618408203 L116.71882629394531,35.92624282836914 L115.20011901855469,36.87272262573242 L113.92263793945312,38.041603088378906 L113.04379272460938,39.327938079833984 L112.705078125,40.61897659301758 L112.96183776855469,41.79566192626953 L113.80964660644531,42.7566032409668 L115.16220092773438,43.42238998413086 L116.89875793457031,43.72795104980469 L118.8670654296875,43.64161682128906 L120.90139770507812,43.17191696166992 L122.82208251953125,42.35842514038086 L124.47572326660156,41.26527404785156 L125.71162414550781,39.95816421508789 L126.44464111328125,38.513885498046875 L126.656005859375,37.02198791503906 L126.38125610351562,35.58465576171875 L125.68911743164062,34.30488586425781 L124.66490173339844,33.26188659667969 L123.67756652832031,32.55833435058594 L122.96739196777344,32.18596267700195 " fill="none" stroke="black" stroke-linecap="round" stroke-width="2" /></svg>