<?xml version="1.0" encoding="utf-8" ?>
<svg baseProfile="full" height="100%" version="1.1" viewBox="0,0,150,60" width="100%" xmlns="http://www.w3.org/2000/svg" xmlns:ev="http://www.w3.org/2001/xml-events" xmlns:xlink="http://www.w3.org/1999/xlink"><defs /><path d="M0,0 M57.027015686035156,22.616092681884766 L57.019691467285156,22.500125885009766 L57.03231430053711,22.5 L57.06504440307617,22.79137420654297 L57.095680236816406,23.554981231689453 L57.085594177246094,24.824878692626953 L57.015541076660156,26.58456802368164 L56.88240432739258,28.775917053222656 L56.71489334106445,31.346858978271484 L56.51553726196289,34.196746826171875 L56.2724723815918,37.215606689453125 L55.99155044555664,40.264949798583984 L55.6860237121582,43.18887710571289 L55.39139938354492,45.82680130004883 L55.17240524291992,48.052467346191406 L55.05145263671875,49.76866149902344 L55.019840240478516,50.874244689941406 L55.05076217651367,51.34748077392578 L55.08821487426758,51.24594497680664 L55.104576110839844,50.86955261230469 L55.105560302734375,50.493412017822266 M48.85962677001953,38.47603225708008 L48.948097229003906,38.356929779052734 L49.296226501464844,38.1978645324707 L50.060054779052734,38.03200149536133 L51.31498718261719,37.90667724609375 L52.99739456176758,37.810211181640625 L54.98105239868164,37.73857879638672 L57.07171630859375,37.67329025268555 L59.12647247314453,37.6181526184082 L61.0072135925293,37.56250762939453 L62.59864807128906,37.4957160949707 L63.70833969116211,37.432029724121094 L64.31967163085938,37.38674545288086 M66.19212341308594,37.159690856933594 L66.1889877319336,37.07490539550781 L66.190185546875,37.03752136230469 L66.19149780273438,37.1827507019043 L66.18241882324219,37.66934585571289 L66.1544418334961,38.590782165527344 L66.0907974243164,39.91401290893555 L65.983154296875,41.538509368896484 L65.84705352783203,43.33449172973633 L65.70389556884766,45.131568908691406 L65.57562255859375,46.75933074951172 L65.48380279541016,48.083961486816406 L65.42572021484375,48.96449279785156 L65.38151550292969,49.313621520996094 L65.35030364990234,49.111846923828125 L65.3480224609375,48.375728607177734 L65.39666748046875,47.16703796386719 L65.52906799316406,45.61368942260742 L65.79460144042969,43.83777618408203 L66.2187728881836,41.957786560058594 L66.86087036132812,40.09950256347656 L67.76087188720703,38.36932373046875 L68.94378662109375,36.86408996582031 L70.39308166503906,35.67679977416992 L72.08314514160156,34.862449645996094 L73.93447875976562,34.43109893798828 L75.88793182373047,34.362648010253906 L77.84693908691406,34.593040466308594 L79.76866912841797,35.05513000488281 L81.55978393554688,35.657997131347656 L83.1378402709961,36.3083381652832 L84.27899169921875,36.83668899536133 L84.93276977539062,37.16620635986328 M91.90729522705078,40.57695007324219 L91.87307739257812,40.19049072265625 L91.70325469970703,39.54295349121094 L91.28044128417969,38.722469329833984 L90.51119995117188,37.918827056884766 L89.40542602539062,37.24094009399414 L88.01304626464844,36.76187515258789 L86.42317199707031,36.52891540527344 L84.76759338378906,36.593692779541016 L83.12351989746094,36.99580764770508 L81.56344604492188,37.75163269042969 L80.19267272949219,38.845706939697266 L79.0824203491211,40.199493408203125 L78.32341003417969,41.70220947265625 L78.00990295410156,43.21620559692383 L78.1798324584961,44.592010498046875 L78.85873413085938,45.700618743896484 L80.04420471191406,46.44092559814453 L81.64991760253906,46.7401237487793 L83.56314086914062,46.57682800292969 L85.62470245361328,45.97179412841797 L87.650634765625,44.997501373291016 L89.49847412109375,43.76056671142578 L91.0634536743164,42.38716506958008 L92.25899505615234,41.022972106933594 L93.06680297851562,39.80758285522461 L93.53144836425781,38.849205017089844 L93.72027587890625,38.22297668457031 L93.7406997680664,37.951393127441406 L93.69393157958984,38.03133773803711 L93.62262725830078,38.45978927612305 L93.56156158447266,39.21506881713867 L93.55815887451172,40.24465560913086 L93.64923095703125,41.463802337646484 L93.89429473876953,42.751800537109375 L94.31561279296875,43.982723236083984 L94.8984603881836,45.02349853515625 L95.59166717529297,45.7703742980957 L96.31581115722656,46.179100036621094 L96.8956527709961,46.321659088134766 L97.2589340209961,46.315311431884766 M100.95868682861328,36.616676330566406 L100.94873809814453,36.612281799316406 L100.92259979248047,36.73023223876953 L100.87012481689453,37.077674865722656 L100.7765884399414,37.73371887207031 L100.64202117919922,38.67931365966797 L100.4734115600586,39.841949462890625 L100.31404876708984,41.11870193481445 L100.19971466064453,42.36119079589844 L100.1611557006836,43.41096496582031 L100.19963836669922,44.149993896484375 L100.27327728271484,44.54966735839844 L100.33717346191406,44.68822479248047 M100.7927017211914,28.873476028442383 L100.80232238769531,28.55474853515625 L100.8197250366211,28.15057373046875 L100.82591247558594,27.774227142333984 L100.85367584228516,27.60928726196289 L100.93915557861328,27.67028045654297 L101.11541748046875,27.932056427001953 L101.31867218017578,28.234067916870117 L101.49072265625,28.481395721435547 M107.58873748779297,36.831356048583984 L107.57247161865234,36.864864349365234 L107.55150604248047,37.03196334838867 L107.51114654541016,37.429298400878906 L107.44196319580078,38.13691329956055 L107.32688903808594,39.151371002197266 L107.16394805908203,40.41278839111328 L106.98499298095703,41.829132080078125 L106.8409652709961,43.25870895385742 L106.7344970703125,44.53953552246094 L106.66910552978516,45.56016540527344 L106.6216812133789,46.22346496582031 L106.59886932373047,46.48236846923828 L106.60851287841797,46.32344055175781 L106.68219757080078,45.72509765625 L106.82811737060547,44.686073303222656 L107.06049346923828,43.28710174560547 L107.3948745727539,41.64780807495117 L107.8797836303711,39.902767181396484 L108.54991149902344,38.18791198730469 L109.45423889160156,36.60095977783203 L110.62164306640625,35.232765197753906 L112.01998901367188,34.17601776123047 L113.59003448486328,33.51767349243164 L115.24502563476562,33.314605712890625 L116.8649673461914,33.593902587890625 L118.35382080078125,34.32793426513672 L119.6313705444336,35.44906997680664 L120.64131164550781,36.85307693481445 L121.40524291992188,38.430145263671875 L121.96289825439453,40.0721435546875 L122.34310913085938,41.66523742675781 L122.60572052001953,43.09210205078125 L122.7939453125,44.24846649169922 L122.91217803955078,45.014442443847656 L122.98616790771484,45.40517044067383 " fill="none" stroke="black" stroke-linecap="round" stroke-width="2" /></svg>