<?xml version="1.0" encoding="utf-8" ?>
<svg baseProfile="full" height="100%" version="1.1" viewBox="0,0,120,60" width="100%" xmlns="http://www.w3.org/2000/svg" xmlns:ev="http://www.w3.org/2001/xml-events" xmlns:xlink="http://www.w3.org/1999/xlink"><defs /><path d="M0,0 M41.34101486206055,28.735408782958984 L41.335819244384766,28.65829849243164 L41.338077545166016,28.586999893188477 L41.34992218017578,28.620174407958984 L41.366947174072266,28.887361526489258 L41.372703552246094,29.49068832397461 L41.349674224853516,30.470170974731445 L41.295780181884766,31.79923439025879 L41.267459869384766,33.43073272705078 L41.32350158691406,35.28156280517578 L41.533905029296875,37.24831008911133 L41.94265365600586,39.21272659301758 L42.5523796081543,41.0300178527832 L43.33169937133789,42.54323196411133 L44.27598190307617,43.62862014770508 L45.35103988647461,44.17653274536133 L46.561458587646484,44.140655517578125 L47.879764556884766,43.515228271484375 L49.26298141479492,42.36956787109375 L50.63802719116211,40.79670715332031 L51.91808319091797,38.92459487915039 L53.016845703125,36.868404388427734 L53.89695358276367,34.757041931152344 L54.52050018310547,32.69601821899414 L54.916568756103516,30.823936462402344 L55.12055587768555,29.24755859375 L55.166282653808594,28.044042587280273 L55.13423538208008,27.28192138671875 L55.08546447753906,26.90980339050293 M68.09894561767578,34.33327865600586 L68.03373718261719,33.87263488769531 L67.80535888671875,33.1646842956543 L67.30953979492188,32.340545654296875 L66.47840881347656,31.637935638427734 L65.28788757324219,31.156335830688477 L63.81307601928711,30.976030349731445 L62.13280487060547,31.130531311035156 L60.3599739074707,31.676727294921875 L58.616031646728516,32.60950469970703 L57.03074645996094,33.869754791259766 L55.744808197021484,35.3592414855957 L54.909767150878906,36.950714111328125 L54.62508010864258,38.501888275146484 L54.965328216552734,39.88814926147461 L55.930667877197266,40.97172164916992 L57.45674133300781,41.635982513427734 L59.430870056152344,41.81991958618164 L61.67442321777344,41.51882553100586 L63.99113082885742,40.78498840332031 L66.19491577148438,39.71885681152344 L68.12989807128906,38.427696228027344 L69.68666076660156,37.02609634399414 L70.81141662597656,35.64533615112305 L71.50445556640625,34.4184684753418 L71.83772277832031,33.44823455810547 L71.90702819824219,32.80881118774414 L71.81488037109375,32.53253936767578 L71.62666320800781,32.626686096191406 L71.38880920410156,33.105525970458984 L71.14482116699219,33.972679138183594 L70.96295166015625,35.16948318481445 L70.88951110839844,36.589481353759766 L70.96856689453125,38.08517837524414 L71.22084045410156,39.50902557373047 L71.64443969726562,40.73683166503906 L72.26277160644531,41.64659881591797 L73.07061767578125,42.15198516845703 L74.01058959960938,42.242149353027344 L74.83045959472656,42.09041213989258 L75.37904357910156,41.88512420654297 M79.91731262207031,32.80754470825195 L79.88404846191406,32.77155303955078 L79.79414367675781,32.83401870727539 L79.62460327148438,33.116817474365234 L79.37217712402344,33.73430633544922 L79.07798767089844,34.70408630371094 L78.81317138671875,35.96148681640625 L78.68759155273438,37.37495040893555 L78.79393005371094,38.80113220214844 L79.2142333984375,40.08340072631836 L79.99026489257812,41.102455139160156 L81.11981201171875,41.7672233581543 L82.54069519042969,42.01765441894531 L84.15719604492188,41.827308654785156 L85.83937072753906,41.215782165527344 L87.46575927734375,40.237701416015625 L88.9298095703125,39.0050048828125 L90.13932800292969,37.66639709472656 L91.02606201171875,36.37697219848633 L91.58500671386719,35.27655792236328 L91.87434387207031,34.46844482421875 L91.9676513671875,33.999813079833984 L91.94618225097656,33.896366119384766 L91.85826110839844,34.17247009277344 L91.71778869628906,34.82537078857422 L91.54110717773438,35.83011245727539 L91.36123657226562,37.113258361816406 L91.19625854492188,38.54085159301758 L91.11801147460938,40.003173828125 L91.17808532714844,41.37610626220703 L91.39723205566406,42.56645202636719 L91.6654052734375,43.41754150390625 L91.887451171875,43.89740753173828 M106.67793273925781,40.49573516845703 L106.9334716796875,40.01490020751953 L107.20487976074219,39.221946716308594 L107.34548950195312,38.206764221191406 L107.1868896484375,37.17821502685547 L106.70835876464844,36.209529876708984 L105.900390625,35.366371154785156 L104.77778625488281,34.69984817504883 L103.32980346679688,34.286563873291016 L101.62432861328125,34.20354461669922 L99.79252624511719,34.52097702026367 L97.99742126464844,35.23600387573242 L96.42301940917969,36.309444427490234 L95.24783325195312,37.64851760864258 L94.59837341308594,39.11495590209961 L94.56126403808594,40.564483642578125 L95.1527099609375,41.8416748046875 L96.30181884765625,42.790809631347656 L97.88252258300781,43.291664123535156 L99.7501220703125,43.26734924316406 L101.76197814941406,42.68932342529297 L103.79067993164062,41.581787109375 L105.74383544921875,39.98625946044922 L107.53797912597656,37.98646926879883 L109.10064697265625,35.68523406982422 L110.39779663085938,33.22134017944336 L111.41926574707031,30.753726959228516 L112.16517639160156,28.42125129699707 L112.68545532226562,26.362703323364258 L113.00794982910156,24.67732810974121 L113.16883850097656,23.429786682128906 L113.2147216796875,22.68377685546875 L113.16439819335938,22.5 L113.01515197753906,22.892837524414062 L112.79948425292969,23.888669967651367 L112.52371215820312,25.431224822998047 L112.2259521484375,27.407329559326172 L111.94715881347656,29.68502426147461 L111.71574401855469,32.1190185546875 L111.55435180664062,34.54886245727539 L111.49609375,36.83952713012695 L111.55848693847656,38.86299133300781 L111.74774169921875,40.518836975097656 L112.02384948730469,41.766204833984375 L112.30586242675781,42.57914733886719 L112.4967041015625,42.95581817626953 L112.57498168945312,43.031700134277344 L112.56985473632812,42.95977783203125 " fill="none" stroke="black" stroke-linecap="round" stroke-width="2" /></svg>