<?xml version="1.0" encoding="utf-8" ?>
<svg baseProfile="full" height="100%" version="1.1" viewBox="0,0,120,60" width="100%" xmlns="http://www.w3.org/2000/svg" xmlns:ev="http://www.w3.org/2001/xml-events" xmlns:xlink="http://www.w3.org/1999/xlink"><defs /><path d="M0,0 M44.216766357421875,29.801467895507812 L44.2492790222168,29.626203536987305 L44.27952575683594,29.44934844970703 L44.264530181884766,29.43324089050293 L44.1432991027832,29.776865005493164 L43.89842224121094,30.58384132385254 L43.547462463378906,31.872215270996094 L43.141239166259766,33.553070068359375 L42.7589111328125,35.48683547973633 L42.47529602050781,37.49878692626953 L42.352073669433594,39.410133361816406 L42.459556579589844,41.076290130615234 L42.85527801513672,42.352115631103516 L43.56388473510742,43.09931182861328 L44.593875885009766,43.223602294921875 L45.90602493286133,42.697784423828125 L47.394126892089844,41.58141326904297 L48.93086624145508,40.03033447265625 L50.373016357421875,38.24341583251953 L51.58943176269531,36.43412780761719 L52.50703048706055,34.802616119384766 L53.104007720947266,33.498287200927734 L53.38368606567383,32.608680725097656 L53.40480041503906,32.195919036865234 L53.24489974975586,32.301395416259766 L52.99785614013672,32.95307922363281 L52.75056076049805,34.1245231628418 L52.60104751586914,35.693885803222656 L52.63787078857422,37.459678649902344 L52.95096206665039,39.20186233520508 L53.602046966552734,40.725181579589844 L54.6226921081543,41.883792877197266 L55.97967529296875,42.558753967285156 L57.61091995239258,42.666160583496094 L59.39218521118164,42.17181396484375 L61.18461227416992,41.12176513671875 L62.81753158569336,39.63161849975586 L64.13653564453125,37.85813903808594 L65.04057312011719,35.96758270263672 L65.5068359375,34.129337310791016 L65.55036163330078,32.496280670166016 L65.28216552734375,31.20206069946289 L64.83343505859375,30.316150665283203 L64.40656280517578,29.82877540588379 L64.1234359741211,29.6375732421875 M71.778564453125,32.10643768310547 L71.76203155517578,32.07325744628906 L71.70863342285156,32.11742401123047 L71.59661865234375,32.344390869140625 L71.42007446289062,32.85350036621094 L71.19776916503906,33.66593551635742 L70.9571533203125,34.73622131347656 L70.71601867675781,35.97400665283203 L70.51364135742188,37.29902267456055 L70.36650085449219,38.59806823730469 L70.2862319946289,39.76080322265625 L70.26031494140625,40.60340118408203 L70.26593017578125,41.0747184753418 M71.525634765625,23.996353149414062 L71.53414916992188,23.611133575439453 L71.55990600585938,23.127790451049805 L71.59228515625,22.704639434814453 L71.62071228027344,22.5 M77.2337646484375,37.373287200927734 L77.79241943359375,37.272789001464844 L78.76742553710938,37.02690887451172 L80.08660888671875,36.588863372802734 L81.51948547363281,35.963653564453125 L82.93148803710938,35.174442291259766 L84.16197204589844,34.26620864868164 L85.09408569335938,33.29143524169922 L85.6239013671875,32.318233489990234 L85.67655944824219,31.412378311157227 L85.22611999511719,30.668701171875 L84.30050659179688,30.171804428100586 L82.94631958007812,29.981842041015625 L81.32159423828125,30.14999771118164 L79.63394165039062,30.690338134765625 L78.10728454589844,31.559925079345703 L76.94361877441406,32.69839859008789 L76.28878784179688,34.01980972290039 L76.20472717285156,35.41204071044922 L76.72804260253906,36.782066345214844 L77.843017578125,38.01835632324219 L79.50466918945312,39.0208740234375 L81.59774780273438,39.72105026245117 L83.9520263671875,40.10116195678711 L86.38258361816406,40.13941192626953 L88.667724609375,39.87769317626953 L90.63099670410156,39.37681579589844 L92.01557922363281,38.85989761352539 L92.77732849121094,38.480491638183594 M92.52482604980469,32.178855895996094 L92.48634338378906,32.17585754394531 L92.45069885253906,32.32423400878906 L92.41941833496094,32.74713897705078 L92.37336730957031,33.516387939453125 L92.29071044921875,34.5911865234375 L92.17453002929688,35.858314514160156 L92.04945373535156,37.16700744628906 L91.94674682617188,38.3773078918457 L91.86099243164062,39.357574462890625 L91.77366638183594,39.989234924316406 L91.72062683105469,40.21284103393555 L91.75006103515625,39.987579345703125 L91.92227172851562,39.33011245727539 L92.27554321289062,38.306278228759766 L92.81031799316406,37.019691467285156 L93.51960754394531,35.57999038696289 L94.41607666015625,34.12181091308594 L95.51780700683594,32.750732421875 L96.82498168945312,31.571746826171875 L98.2996826171875,30.663345336914062 L99.88124084472656,30.096101760864258 L101.48271179199219,29.908170700073242 L103.02754211425781,30.121463775634766 L104.44149780273438,30.727415084838867 L105.6505126953125,31.69269371032715 L106.5955810546875,32.942237854003906 L107.24859619140625,34.387847900390625 L107.6400146484375,35.92163848876953 L107.85057067871094,37.42451095581055 L107.95179748535156,38.77901077270508 L108.02809143066406,39.89760971069336 L108.16297912597656,40.68918991088867 L108.42366027832031,41.10197448730469 L108.72364807128906,41.22833251953125 L108.9808349609375,41.19422149658203 " fill="none" stroke="black" stroke-linecap="round" stroke-width="2" /></svg>